SplineFontDB: 3.0
FontName: Comme-Regular
FullName: Comme Regular
FamilyName: Comme
Weight: Regular
Copyright: Digitized data Copyright (c) 2011-2014, vernon adams.
Version: 2
ItalicAngle: 0
UnderlinePosition: 0
UnderlineWidth: 0
Ascent: 1638
Descent: 410
UFOAscent: 1560
UFODescent: -556
LayerCount: 2
Layer: 0 0 "Back"  1
Layer: 1 0 "Fore"  0
OS2Version: 0
OS2_WeightWidthSlopeOnly: 0
OS2_UseTypoMetrics: 0
CreationTime: 1390955995
ModificationTime: 1390956381
PfmFamily: 0
TTFWeight: 400
TTFWidth: 5
LineGap: 0
VLineGap: 0
OS2TypoAscent: 2416
OS2TypoAOffset: 0
OS2TypoDescent: -512
OS2TypoDOffset: 0
OS2TypoLinegap: 0
OS2WinAscent: 2416
OS2WinAOffset: 0
OS2WinDescent: 512
OS2WinDOffset: 0
HheadAscent: 0
HheadAOffset: 1
HheadDescent: 0
HheadDOffset: 1
OS2Vendor: 'NeWT'
Lookup: 4 0 1 "ligaStandardLigatureslookup0"  {"ligaStandardLigatureslookup0 subtable"  } ['liga' ('latn' <'dflt' > 'grek' <'dflt' > 'DFLT' <'dflt' > ) ]
DEI: 91125
LangName: 1033 "" "" "" "" "" "Version 2" "" "Comme is a trademark of Vernon Adams and may be registered in certain jurisdictions." "newtypography" "Vernon Adams" "" "newtypography.co.uk" "newtypography.co.uk" "Copyright (c) 2014, vernon adams.+AAoACgAA-This Font Software is licensed under the SIL Open Font License, Version 1.1.+AAoA-This license is available with a FAQ at:+AAoA-http://scripts.sil.org/OFL+AAoA" "http://scripts.sil.org/OFL" "" "Comme" "Regular" 
PickledData: "(dp1
S'public.glyphOrder'
p2
(S'A'
S'Agrave'
S'Aacute'
S'Acircumflex'
S'Atilde'
S'Adieresis'
S'Aring'
S'Amacron'
S'Abreve'
S'Aogonek'
S'uni01CD'
S'uni0200'
S'uni0202'
S'uni0226'
S'B'
S'uni1E02'
S'C'
S'Ccedilla'
S'Cacute'
S'Ccircumflex'
S'Cdotaccent'
S'Ccaron'
S'D'
S'Dcaron'
S'uni1E0A'
S'E'
S'Egrave'
S'Eacute'
S'Ecircumflex'
S'Edieresis'
S'Emacron'
S'Ebreve'
S'Edotaccent'
S'Eogonek'
S'Ecaron'
S'uni0204'
S'uni0206'
S'uni0228'
S'uni1EBC'
S'F'
S'uni1E1E'
S'G'
S'Gcircumflex'
S'Gbreve'
S'Gdotaccent'
S'Gcommaaccent'
S'Gcaron'
S'uni01F4'
S'H'
S'Hcircumflex'
S'uni021E'
S'I'

StartChar: A
Encoding: 65 65 0
Width: 1419
VWidth: 0
GlyphClass: 2
Flags: HW
PickledData: "(dp1
S'org.pippin.gimp.org.kernagic'
p2
(dp3
S'lstem'
p4
I0
sS'rstem'
p5
I0
ssS'com.typemytype.robofont.layerData'
p6
(dp7
sS'org.robofab.postScriptHintData'
p8
(dp9
s."
AnchorPoint: "bot" 708 0 basechar 0
AnchorPoint: "ogonek" 1243 0 basechar 0
AnchorPoint: "top" 706 1456 basechar 0
LayerCount: 2
Fore
SplineSet
608 1456 m 257
 806 1456 l 257
 1356 0 l 257
 1163 0 l 257
 995 453 l 257
 422 453 l 257
 255 0 l 257
 63 0 l 257
 608 1456 l 257
467 588 m 257
 950 588 l 257
 708 1268 l 257
 467 588 l 257
EndSplineSet
EndChar

StartChar: AE
Encoding: 198 198 1
Width: 1606
VWidth: 0
GlyphClass: 2
Flags: HW
PickledData: "(dp1
S'org.pippin.gimp.org.kernagic'
p2
(dp3
S'lstem'
p4
I0
sS'rstem'
p5
I0
ssS'com.typemytype.robofont.layerData'
p6
(dp7
sS'org.robofab.postScriptHintData'
p8
(dp9
s."
LayerCount: 2
Fore
SplineSet
780 595 m 257
 780 1291 l 257
 421 595 l 257
 780 595 l 257
683 1456 m 257
 1549 1456 l 257
 1542 1311 l 257
 961 1311 l 257
 961 834 l 257
 1484 834 l 257
 1484 689 l 257
 961 689 l 257
 961 147 l 257
 1565 147 l 257
 1553 0 l 257
 780 0 l 257
 780 462 l 257
 354 462 l 257
 111 0 l 257
 -94 0 l 257
 683 1456 l 257
EndSplineSet
EndChar

StartChar: B
Encoding: 66 66 13
Width: 1373
VWidth: 0
GlyphClass: 2
Flags: HW
PickledData: "(dp1
S'org.pippin.gimp.org.kernagic'
p2
(dp3
S'lstem'
p4
I0
sS'rstem'
p5
I0
ssS'com.typemytype.robofont.layerData'
p6
(dp7
sS'org.robofab.postScriptHintData'
p8
(dp9
s."
AnchorPoint: "top" 658 1456 basechar 0
LayerCount: 2
Fore
SplineSet
557 -9 m 256
 453 -9 335 -3 203 8 c 257
 203 1434 l 257
 368 1455 507 1464 622 1464 c 256
 1155 1464 1190 1257 1190 1098 c 256
 1190 965 1127 850 942 790 c 257
 1157 738 1242 612 1242 432 c 256
 1242 120 1047 -9 557 -9 c 256
397 1314 m 257
 397 851 l 257
 668 851 l 258
 853 851 1011 889 1011 1085 c 256
 1011 1246 920 1327 631 1327 c 256
 564 1327 485 1323 397 1314 c 257
397 717 m 257
 397 143 l 257
 467 138 532 135 590 135 c 256
 1015 135 1049 265 1049 427 c 256
 1049 635 930 717 657 717 c 258
 397 717 l 257
EndSplineSet
EndChar

StartChar: C
Encoding: 67 67 14
Width: 1433
VWidth: 0
GlyphClass: 2
Flags: HW
PickledData: "(dp1
S'org.pippin.gimp.org.kernagic'
p2
(dp3
S'lstem'
p4
I0
sS'rstem'
p5
I0
ssS'com.typemytype.robofont.layerData'
p6
(dp7
sS'org.robofab.postScriptHintData'
p8
(dp9
s."
AnchorPoint: "bot" 791 1 basechar 0
AnchorPoint: "top" 775 1456 basechar 0
LayerCount: 2
Fore
SplineSet
1341 1097 m 257
 1201 1046 l 257
 1185 1046 l 257
 1149 1208 997 1324 814 1324 c 256
 533 1324 350 1126 350 729 c 256
 350 332 535 133 814 133 c 256
 997 133 1153 252 1189 412 c 257
 1205 412 l 257
 1345 361 l 257
 1292 106 1045 -20 801 -20 c 256
 412 -20 152 253 152 729 c 256
 152 1205 412 1478 801 1478 c 256
 1043 1478 1288 1352 1341 1097 c 257
EndSplineSet
EndChar

StartChar: D
Encoding: 68 68 21
Width: 1500
VWidth: 0
GlyphClass: 2
Flags: HW
PickledData: "(dp1
S'org.pippin.gimp.org.kernagic'
p2
(dp3
S'lstem'
p4
I0
sS'rstem'
p5
I0
ssS'com.typemytype.robofont.layerData'
p6
(dp7
sS'com.fontlab.hintData'
p8
(dp9
S'vhints'
p10
((dp11
S'position'
p12
I1280
sS'width'
p13
I122
stp14
sS'hhints'
p15
((dp16
g12
I0
sg13
I94
s(dp17
g12
I1355
sg13
I94
stp18
ssS'org.robofab.postScriptHintData'
p19
(dp20
s."
HStem: 0 94 1355 94
VStem: 1280 122
AnchorPoint: "mid" 303 767 basechar 0
AnchorPoint: "bot" 778 -1 basechar 0
AnchorPoint: "top" 742 1456 basechar 0
LayerCount: 2
Fore
SplineSet
203 10 m 257
 203 1434 l 257
 345 1453 471 1462 581 1462 c 256
 1201 1462 1347 1175 1347 745 c 256
 1347 297 1138 -11 509 -11 c 256
 416 -11 314 -4 203 10 c 257
397 135 m 257
 455 129 510 126 560 126 c 256
 1038 126 1154 383 1154 740 c 256
 1154 1098 1053 1325 598 1325 c 256
 537 1325 471 1321 397 1313 c 257
 397 135 l 257
EndSplineSet
EndChar

StartChar: Delta
Encoding: 916 916 24
Width: 1334
VWidth: 0
GlyphClass: 2
Flags: HW
PickledData: "(dp1
S'org.pippin.gimp.org.kernagic'
p2
(dp3
S'lstem'
p4
I0
sS'rstem'
p5
I0
ssS'com.typemytype.robofont.layerData'
p6
(dp7
S'b'
(dp8
S'name'
p9
S'Delta'
p10
sS'lib'
p11
(dp12
sS'unicodes'
p13
(tsS'width'
p14
I1334
sS'contours'
p15
(tsS'components'
p16
(tsS'anchors'
p17
(tsssS'org.robofab.postScriptHintData'
p18
(dp19
s."
LayerCount: 2
Fore
SplineSet
264 152 m 257
 1063 152 l 257
 661 1302 l 257
 264 152 l 257
43 0 m 257
 574 1486 l 257
 747 1486 l 257
 1286 0 l 257
 43 0 l 257
EndSplineSet
EndChar

StartChar: E
Encoding: 69 69 25
Width: 1309
VWidth: 0
GlyphClass: 2
Flags: HW
PickledData: "(dp1
S'org.pippin.gimp.org.kernagic'
p2
(dp3
S'lstem'
p4
I0
sS'rstem'
p5
I0
ssS'com.typemytype.robofont.layerData'
p6
(dp7
sS'org.robofab.postScriptHintData'
p8
(dp9
s."
AnchorPoint: "bot" 709 0 basechar 0
AnchorPoint: "ogonek" 892 0 basechar 0
AnchorPoint: "top" 738 1456 basechar 0
LayerCount: 2
Fore
SplineSet
203 1456 m 257
 1162 1456 l 257
 1155 1310 l 257
 397 1310 l 257
 397 827 l 257
 1097 827 l 257
 1097 680 l 257
 397 680 l 257
 397 148 l 257
 1178 148 l 257
 1166 0 l 257
 203 0 l 257
 203 1456 l 257
EndSplineSet
EndChar

StartChar: Eng
Encoding: 330 330 34
Width: 1517
VWidth: 0
GlyphClass: 2
Flags: HW
PickledData: "(dp1
S'org.robofab.postScriptHintData'
p2
(dp3
s."
LayerCount: 2
Fore
SplineSet
1321 -5 m 2
 1321 1456 l 1
 1146 1456 l 1
 1146 267 l 1
 397 1456 l 1
 203 1456 l 1
 203 0 l 1
 381 0 l 1
 381 740 l 1
 364 1194 l 1
 1146 -31 l 1
 1141 -221 1081 -293 732 -293 c 1
 734 -434 l 1
 1150 -433 1321 -334 1321 -5 c 2
EndSplineSet
EndChar

StartChar: Euro
Encoding: 8364 8364 37
Width: 1391
VWidth: 0
GlyphClass: 2
Flags: HW
PickledData: "(dp1
S'org.pippin.gimp.org.kernagic'
p2
(dp3
S'lstem'
p4
I0
sS'rstem'
p5
I0
ssS'com.typemytype.robofont.layerData'
p6
(dp7
S'b'
(dp8
S'name'
p9
S'Euro'
p10
sS'lib'
p11
(dp12
sS'unicodes'
p13
(tsS'width'
p14
I1391
sS'contours'
p15
(tsS'components'
p16
(tsS'anchors'
p17
(tsssS'org.robofab.postScriptHintData'
p18
(dp19
s."
LayerCount: 2
Fore
SplineSet
-53 528 m 1
 -46 643 l 1
 80 643 l 1
 78 671 77 700 77 729 c 0
 77 759 78 788 80 817 c 1
 -46 817 l 1
 -41 930 l 1
 94 930 l 1
 158 1281 396 1478 726 1478 c 0
 968 1478 1213 1352 1266 1097 c 1
 1126 1046 l 1
 1110 1046 l 1
 1074 1208 922 1324 739 1324 c 0
 510 1324 346 1193 293 930 c 1
 822 930 l 1
 815 817 l 1
 278 817 l 1
 276 789 275 760 275 729 c 0
 275 699 276 671 278 643 c 1
 815 643 l 1
 808 528 l 1
 294 528 l 1
 347 265 512 133 739 133 c 0
 922 133 1078 252 1114 412 c 1
 1130 412 l 1
 1270 361 l 1
 1217 106 970 -20 726 -20 c 0
 396 -20 158 177 94 528 c 1
 -53 528 l 1
EndSplineSet
EndChar

StartChar: F
Encoding: 70 70 38
Width: 1211
VWidth: 0
GlyphClass: 2
Flags: HW
PickledData: "(dp1
S'org.pippin.gimp.org.kernagic'
p2
(dp3
S'lstem'
p4
I0
sS'rstem'
p5
I705
ssS'com.typemytype.robofont.layerData'
p6
(dp7
sS'org.robofab.postScriptHintData'
p8
(dp9
s."
AnchorPoint: "top" 738 1456 basechar 0
LayerCount: 2
Fore
SplineSet
203 1456 m 257
 1170 1456 l 257
 1160 1307 l 257
 397 1307 l 257
 397 801 l 257
 1071 801 l 257
 1071 659 l 257
 397 659 l 257
 397 0 l 257
 203 0 l 257
 203 1456 l 257
EndSplineSet
EndChar

StartChar: G
Encoding: 71 71 39
Width: 1478
VWidth: 0
GlyphClass: 2
Flags: HW
PickledData: "(dp1
S'org.pippin.gimp.org.kernagic'
p2
(dp3
S'lstem'
p4
I0
sS'rstem'
p5
I0
ssS'com.typemytype.robofont.layerData'
p6
(dp7
sS'org.robofab.postScriptHintData'
p8
(dp9
s."
AnchorPoint: "bot" 805 1 basechar 0
AnchorPoint: "top" 799 1456 basechar 0
LayerCount: 2
Fore
SplineSet
822 -20 m 256
 373 -20 152 288 152 736 c 256
 152 1188 409 1476 848 1476 c 256
 1072 1476 1249 1393 1336 1282 c 257
 1240 1176 l 257
 1223 1176 l 257
 1160 1246 1036 1323 854 1323 c 256
 522 1323 350 1089 350 737 c 256
 350 366 487 133 856 133 c 256
 987 133 1086 155 1155 175 c 257
 1155 618 l 257
 828 640 l 257
 837 769 l 257
 1332 769 l 257
 1332 73 l 257
 1184 14 1022 -20 822 -20 c 256
EndSplineSet
EndChar

StartChar: H
Encoding: 72 72 45
Width: 1541
VWidth: 0
GlyphClass: 2
Flags: HW
PickledData: "(dp1
S'org.pippin.gimp.org.kernagic'
p2
(dp3
S'lstem'
p4
I0
sS'rstem'
p5
I0
ssS'com.typemytype.robofont.layerData'
p6
(dp7
sS'org.robofab.postScriptHintData'
p8
(dp9
s."
AnchorPoint: "top" 784 1456 basechar 0
LayerCount: 2
Fore
SplineSet
1140 673 m 257
 401 673 l 257
 401 -1 l 257
 207 -1 l 257
 207 1456 l 257
 401 1456 l 257
 401 825 l 257
 1140 825 l 257
 1140 1456 l 257
 1335 1456 l 257
 1335 -1 l 257
 1140 -1 l 257
 1140 673 l 257
EndSplineSet
EndChar

StartChar: Hbar
Encoding: 294 294 46
Width: 1486
VWidth: 0
GlyphClass: 2
Flags: HW
PickledData: "(dp1
S'org.pippin.gimp.org.kernagic'
p2
(dp3
S'lstem'
p4
I0
sS'rstem'
p5
I0
ssS'com.typemytype.robofont.layerData'
p6
(dp7
sS'org.robofab.postScriptHintData'
p8
(dp9
s."
LayerCount: 2
Fore
SplineSet
75 1280 m 261
 75 1155 l 261
 1426 1155 l 261
 1426 1280 l 261
 75 1280 l 261
EndSplineSet
Refer: 45 72 N 1 0 0 1 0 0 2
EndChar

StartChar: I
Encoding: 73 73 48
Width: 973
VWidth: 0
GlyphClass: 2
Flags: HW
PickledData: "(dp1
S'org.pippin.gimp.org.kernagic'
p2
(dp3
S'lstem'
p4
I0
sS'rstem'
p5
I0
ssS'com.typemytype.robofont.layerData'
p6
(dp7
sS'com.fontlab.hintData'
p8
(dp9
S'vhints'
p10
((dp11
S'position'
p12
I111
sS'width'
p13
I529
stp14
sS'hhints'
p15
((dp16
g12
I0
sg13
I86
s(dp17
g12
I1363
sg13
I86
stp18
ssS'org.robofab.postScriptHintData'
p19
(dp20
s."
HStem: 0 86 1363 86
VStem: 111 529
AnchorPoint: "ogonek" 485 0 basechar 0
AnchorPoint: "top" 483 1456 basechar 0
LayerCount: 2
Fore
SplineSet
191 1456 m 257
 772 1456 l 257
 772 1338 l 257
 580 1338 l 257
 580 118 l 257
 772 118 l 257
 772 -1 l 257
 191 -1 l 257
 191 118 l 257
 385 118 l 257
 385 1338 l 257
 191 1338 l 257
 191 1456 l 257
EndSplineSet
EndChar

StartChar: J
Encoding: 74 74 59
Width: 797
VWidth: 0
GlyphClass: 2
Flags: HW
PickledData: "(dp1
S'org.pippin.gimp.org.kernagic'
p2
(dp3
S'lstem'
p4
I132
sS'rstem'
p5
I0
ssS'com.typemytype.robofont.layerData'
p6
(dp7
sS'org.robofab.postScriptHintData'
p8
(dp9
s."
AnchorPoint: "top" 473 1456 basechar 0
LayerCount: 2
Fore
SplineSet
370 1456 m 257
 565 1456 l 257
 565 29 l 258
 565 -243 519 -295 286 -380 c 257
 197 -412 l 257
 137 -266 l 257
 260 -214 l 258
 364 -171 370 -146 370 30 c 258
 370 1456 l 257
EndSplineSet
EndChar

StartChar: K
Encoding: 75 75 61
Width: 1319
VWidth: 0
GlyphClass: 2
Flags: HW
PickledData: "(dp1
S'org.pippin.gimp.org.kernagic'
p2
(dp3
S'lstem'
p4
I0
sS'rstem'
p5
I851
ssS'com.typemytype.robofont.layerData'
p6
(dp7
sS'org.robofab.postScriptHintData'
p8
(dp9
s."
AnchorPoint: "bot" 692 0 basechar 0
AnchorPoint: "top" 689 1456 basechar 0
LayerCount: 2
Fore
SplineSet
1294 1456 m 257
 1294 1436 l 257
 698 837 l 257
 1332 19 l 257
 1332 0 l 257
 1114 0 l 257
 555 732 l 257
 397 578 l 257
 397 0 l 257
 203 0 l 257
 203 1456 l 257
 397 1456 l 257
 397 761 l 257
 1082 1456 l 257
 1294 1456 l 257
EndSplineSet
EndChar

StartChar: L
Encoding: 76 76 63
Width: 1103
VWidth: 0
GlyphClass: 2
Flags: HW
PickledData: "(dp1
S'org.pippin.gimp.org.kernagic'
p2
(dp3
S'lstem'
p4
I0
sS'rstem'
p5
I597
ssS'com.typemytype.robofont.layerData'
p6
(dp7
sS'org.robofab.postScriptHintData'
p8
(dp9
s."
AnchorPoint: "mid" 331 747 basechar 0
AnchorPoint: "bot" 635 0 basechar 0
AnchorPoint: "top" 443 1456 basechar 0
LayerCount: 2
Fore
SplineSet
203 1456 m 257
 397 1456 l 257
 397 146 l 257
 1101 146 l 257
 1095 0 l 257
 203 0 l 257
 203 1456 l 257
EndSplineSet
EndChar

StartChar: M
Encoding: 77 77 69
Width: 1815
VWidth: 0
GlyphClass: 2
Flags: HW
PickledData: "(dp1
S'org.pippin.gimp.org.kernagic'
p2
(dp3
S'lstem'
p4
I0
sS'rstem'
p5
I0
ssS'com.typemytype.robofont.guides'
p6
((dp7
S'y'
I378
sS'x'
I548
sS'magnetic'
p8
I5
sS'angle'
p9
I0
sS'isGlobal'
p10
I00
stp11
sS'com.typemytype.robofont.layerData'
p12
(dp13
sS'com.fontlab.hintData'
p14
(dp15
S'vhints'
p16
((dp17
S'position'
p18
I185
sS'width'
p19
I166
s(dp20
g18
I214
sg19
I151
s(dp21
g18
I332
sg19
I33
s(dp22
g18
I1463
sg19
I149
s(dp23
g18
I1463
sg19
I39
s(dp24
g18
I1477
sg19
I164
stp25
ssS'org.robofab.postScriptHintData'
p26
(dp27
s."
VStem: 185 166 214 151 332 33 1463 149 1463 39 1477 164
AnchorPoint: "top" 921 1456 basechar 0
LayerCount: 2
Fore
SplineSet
183 -1 m 257
 183 485 l 257
 207 1456 l 257
 438 1456 l 257
 909 396 l 257
 1383 1456 l 257
 1608 1456 l 257
 1632 486 l 257
 1632 -1 l 257
 1450 -1 l 257
 1450 482 l 257
 1442 1193 l 257
 986 173 l 257
 828 173 l 257
 375 1203 l 257
 366 479 l 257
 366 -1 l 257
 183 -1 l 257
EndSplineSet
EndChar

StartChar: N
Encoding: 78 78 70
Width: 1524
VWidth: 0
GlyphClass: 2
Flags: HW
PickledData: "(dp1
S'org.pippin.gimp.org.kernagic'
p2
(dp3
S'lstem'
p4
I0
sS'rstem'
p5
I0
ssS'com.typemytype.robofont.layerData'
p6
(dp7
sS'org.robofab.postScriptHintData'
p8
(dp9
s."
AnchorPoint: "bot" 774 0 basechar 0
AnchorPoint: "top" 788 1456 basechar 0
LayerCount: 2
Fore
SplineSet
1146 1456 m 257
 1321 1456 l 257
 1321 0 l 257
 1119 0 l 257
 364 1194 l 257
 381 740 l 257
 381 0 l 257
 203 0 l 257
 203 1456 l 257
 397 1456 l 257
 1157 249 l 257
 1146 668 l 257
 1146 1456 l 257
EndSplineSet
EndChar

StartChar: O
Encoding: 79 79 76
Width: 1620
VWidth: 0
GlyphClass: 2
Flags: HW
PickledData: "(dp1
S'org.pippin.gimp.org.kernagic'
p2
(dp3
S'lstem'
p4
I0
sS'rstem'
p5
I0
ssS'com.typemytype.robofont.guides'
p6
(tsS'com.typemytype.robofont.layerData'
p7
(dp8
sS'com.fontlab.hintData'
p9
(dp10
S'vhints'
p11
((dp12
S'position'
p13
I150
sS'width'
p14
I122
s(dp15
g13
I1390
sg14
I122
stp16
sS'hhints'
p17
((dp18
g13
I-19
sg14
I96
s(dp19
g13
I1372
sg14
I96
stp20
ssS'org.robofab.postScriptHintData'
p21
(dp22
s."
HStem: -19 96 1372 96
VStem: 150 122 1390 122
AnchorPoint: "ogonek" 892 1 basechar 0
AnchorPoint: "top" 813 1456 basechar 0
LayerCount: 2
Fore
SplineSet
1267 720 m 256
 1267 1083 1141 1322 813 1322 c 256
 486 1322 354 1085 354 720 c 256
 354 370 475 134 811 134 c 256
 1148 134 1267 370 1267 720 c 256
156 721 m 256
 156 1185 374 1476 814 1476 c 256
 1245 1476 1464 1183 1464 719 c 256
 1464 272 1256 -20 813 -20 c 256
 365 -20 156 267 156 721 c 256
EndSplineSet
EndChar

StartChar: OE
Encoding: 338 338 77
Width: 2355
VWidth: 0
GlyphClass: 2
Flags: HW
PickledData: "(dp1
S'org.pippin.gimp.org.kernagic'
p2
(dp3
S'lstem'
p4
I0
sS'rstem'
p5
I0
ssS'com.typemytype.robofont.layerData'
p6
(dp7
S'b'
(dp8
S'name'
p9
S'OE'
p10
sS'lib'
p11
(dp12
sS'unicodes'
p13
(tsS'width'
p14
I2367
sS'contours'
p15
(tsS'components'
p16
(tsS'anchors'
p17
(tsssS'org.robofab.postScriptHintData'
p18
(dp19
s."
LayerCount: 2
Fore
SplineSet
1251 721 m 256
 1251 1084 1125 1324 793 1324 c 256
 463 1324 331 1086 331 721 c 256
 331 371 452 133 792 133 c 256
 1132 133 1251 371 1251 721 c 256
140 722 m 256
 140 1187 358 1477 794 1477 c 256
 995 1477 1156 1403 1252 1270 c 257
 1252 1456 l 257
 2206 1456 l 257
 2198 1311 l 257
 1439 1311 l 257
 1439 826 l 257
 2140 826 l 257
 2140 680 l 257
 1439 680 l 257
 1439 147 l 257
 2221 147 l 257
 2210 0 l 257
 1252 0 l 257
 1252 180 l 257
 1157 52 998 -20 793 -20 c 256
 348 -20 140 267 140 722 c 256
EndSplineSet
EndChar

StartChar: Oslash
Encoding: 216 216 85
Width: 1620
VWidth: 0
GlyphClass: 2
Flags: HW
PickledData: "(dp1
S'org.pippin.gimp.org.kernagic'
p2
(dp3
S'lstem'
p4
I0
sS'rstem'
p5
I0
ssS'com.typemytype.robofont.layerData'
p6
(dp7
sS'org.robofab.postScriptHintData'
p8
(dp9
s."
AnchorPoint: "top" 814 1456 basechar 0
LayerCount: 2
Fore
SplineSet
811 134 m 256
 1148 134 1267 370 1267 720 c 256
 1267 953 1215 1136 1089 1236 c 257
 675 150 l 257
 715 139 761 134 811 134 c 256
575 191 m 257
 991 1293 l 257
 940 1312 881 1322 813 1322 c 256
 486 1322 354 1085 354 720 c 256
 354 471 415 279 575 191 c 257
522 -251 m 257
 422 -215 l 257
 516 34 l 257
 272 137 156 383 156 721 c 256
 156 1185 374 1476 814 1476 c 256
 900 1476 978 1465 1047 1441 c 257
 1141 1691 l 257
 1247 1650 l 257
 1151 1397 l 257
 1359 1280 1464 1040 1464 719 c 256
 1464 272 1256 -20 813 -20 c 256
 742 -20 677 -13 618 1 c 257
 522 -251 l 257
EndSplineSet
EndChar

StartChar: P
Encoding: 80 80 88
Width: 1307
VWidth: 0
GlyphClass: 2
Flags: HW
PickledData: "(dp1
S'org.pippin.gimp.org.kernagic'
p2
(dp3
S'lstem'
p4
I0
sS'rstem'
p5
I807
ssS'com.typemytype.robofont.layerData'
p6
(dp7
sS'org.robofab.postScriptHintData'
p8
(dp9
s."
AnchorPoint: "top" 692 1456 basechar 0
LayerCount: 2
Fore
SplineSet
203 1434 m 257
 367 1453 507 1463 625 1463 c 256
 1066 1463 1213 1329 1213 1063 c 256
 1213 811 1101 627 610 627 c 256
 546 627 475 629 397 636 c 257
 397 0 l 257
 203 0 l 257
 203 1434 l 257
397 774 m 257
 478 767 549 764 611 764 c 256
 969 764 1034 876 1034 1059 c 256
 1034 1228 964 1326 637 1326 c 256
 569 1326 489 1322 397 1313 c 257
 397 774 l 257
EndSplineSet
EndChar

StartChar: Q
Encoding: 81 81 89
Width: 1597
VWidth: 0
GlyphClass: 2
Flags: HW
PickledData: "(dp1
S'org.pippin.gimp.org.kernagic'
p2
(dp3
S'lstem'
p4
I0
sS'rstem'
p5
I0
ssS'com.typemytype.robofont.layerData'
p6
(dp7
sS'org.robofab.postScriptHintData'
p8
(dp9
s."
LayerCount: 2
Fore
SplineSet
156 721 m 0
 156 267 365 -20 813 -20 c 0
 830 -20 846 -20 862 -19 c 1
 948 -144 1153 -431 1165 -441 c 1
 1290 -351 l 1
 1278 -341 1110 -104 1031 8 c 1
 1325 91 1464 353 1464 719 c 0
 1464 1183 1245 1476 814 1476 c 0
 374 1476 156 1185 156 721 c 0
1267 720 m 0
 1267 370 1148 134 811 134 c 0
 475 134 354 370 354 720 c 0
 354 1085 486 1322 813 1322 c 0
 1141 1322 1267 1083 1267 720 c 0
EndSplineSet
EndChar

StartChar: R
Encoding: 82 82 90
Width: 1341
VWidth: 0
GlyphClass: 2
Flags: HW
PickledData: "(dp1
S'org.pippin.gimp.org.kernagic'
p2
(dp3
S'lstem'
p4
I0
sS'rstem'
p5
I839
ssS'com.typemytype.robofont.layerData'
p6
(dp7
sS'com.fontlab.hintData'
p8
(dp9
S'vhints'
p10
((dp11
S'position'
p12
I1122
sS'width'
p13
I117
stp14
sS'hhints'
p15
((dp16
g12
I722
sg13
I96
s(dp17
g12
I1355
sg13
I94
stp18
ssS'org.robofab.postScriptHintData'
p19
(dp20
s."
HStem: 722 96 1355 94
VStem: 1122 117
AnchorPoint: "bot" 716 0 basechar 0
AnchorPoint: "top" 709 1456 basechar 0
LayerCount: 2
Fore
SplineSet
1237 1071 m 256
 1237 852 1121 734 926 685 c 257
 1275 20 l 257
 1275 0 l 257
 1068 0 l 257
 732 663 l 257
 397 662 l 257
 397 0 l 257
 203 0 l 257
 203 1434 l 257
 383 1454 535 1464 662 1464 c 256
 1084 1464 1237 1349 1237 1071 c 256
662 1326 m 256
 588 1326 500 1321 397 1312 c 257
 397 796 l 257
 651 796 l 258
 979 796 1058 874 1058 1067 c 256
 1058 1239 990 1326 662 1326 c 256
EndSplineSet
EndChar

StartChar: S
Encoding: 83 83 94
Width: 1222
VWidth: 0
GlyphClass: 2
Flags: HW
PickledData: "(dp1
S'org.pippin.gimp.org.kernagic'
p2
(dp3
S'lstem'
p4
I185
sS'rstem'
p5
I826
ssS'com.typemytype.robofont.guides'
p6
((dp7
S'y'
I973
sS'x'
I1035
sS'magnetic'
p8
I5
sS'angle'
p9
F90
sS'isGlobal'
p10
I00
s(dp11
S'y'
I382
sS'x'
I75
sg8
I5
sg9
F90
sg10
I00
stp12
sS'com.typemytype.robofont.layerData'
p13
(dp14
sS'org.robofab.postScriptHintData'
p15
(dp16
s."
AnchorPoint: "bot" 623 0 basechar 0
AnchorPoint: "top" 620 1474 basechar 0
LayerCount: 2
Fore
SplineSet
917 384 m 256
 917 522 852 561 638 650 c 258
 435 734 l 258
 233 816 117 879 117 1083 c 256
 117 1393 360 1476 620 1476 c 256
 813 1476 980 1405 1081 1289 c 257
 977 1185 l 257
 962 1185 l 257
 886 1273 759 1324 612 1324 c 256
 449 1324 312 1273 312 1106 c 256
 312 993 360 957 520 891 c 257
 725 808 l 257
 963 713 1102 642 1102 383 c 256
 1102 79 843 -20 599 -20 c 256
 367 -20 194 71 112 171 c 257
 219 274 l 257
 232 274 l 257
 326 181 465 134 598 134 c 256
 779 134 917 201 917 384 c 256
EndSplineSet
EndChar

StartChar: T
Encoding: 84 84 100
Width: 1149
VWidth: 0
GlyphClass: 2
Flags: HW
PickledData: "(dp1
S'org.pippin.gimp.org.kernagic'
p2
(dp3
S'lstem'
p4
I285
sS'rstem'
p5
I844
ssS'com.typemytype.robofont.layerData'
p6
(dp7
sS'org.robofab.postScriptHintData'
p8
(dp9
s."
AnchorPoint: "mid" 578 763 basechar 0
AnchorPoint: "bot" 579 0 basechar 0
AnchorPoint: "top" 578 1456 basechar 0
LayerCount: 2
Fore
SplineSet
6 1456 m 257
 1143 1456 l 257
 1143 1310 l 257
 671 1310 l 257
 671 -1 l 257
 476 -1 l 257
 476 1310 l 257
 6 1310 l 257
 6 1456 l 257
EndSplineSet
EndChar

StartChar: Thorn
Encoding: 222 222 105
Width: 1215
VWidth: 0
GlyphClass: 2
Flags: HW
PickledData: "(dp1
S'org.pippin.gimp.org.kernagic'
p2
(dp3
S'lstem'
p4
I0
sS'rstem'
p5
I0
ssS'com.typemytype.robofont.layerData'
p6
(dp7
S'b'
(dp8
S'name'
p9
S'Thorn'
p10
sS'lib'
p11
(dp12
sS'unicodes'
p13
(tsS'width'
p14
I1192
sS'contours'
p15
(tsS'components'
p16
(tsS'anchors'
p17
(tsssS'org.robofab.postScriptHintData'
p18
(dp19
s."
LayerCount: 2
Fore
SplineSet
190 0 m 257
 190 1493 l 257
 385 1493 l 257
 385 1180 l 257
 566 1180 l 258
 861 1180 1049 1097 1049 835 c 256
 1049 580 921 449 567 449 c 258
 385 449 l 257
 385 0 l 257
 190 0 l 257
385 1041 m 257
 385 590 l 257
 559 590 l 258
 784 590 856 648 856 831 c 256
 856 996 757 1041 567 1041 c 258
 385 1041 l 257
EndSplineSet
EndChar

StartChar: U
Encoding: 85 85 106
Width: 1455
VWidth: 0
GlyphClass: 2
Flags: HW
PickledData: "(dp1
S'org.pippin.gimp.org.kernagic'
p2
(dp3
S'lstem'
p4
I0
sS'rstem'
p5
I0
ssS'com.typemytype.robofont.layerData'
p6
(dp7
sS'org.robofab.postScriptHintData'
p8
(dp9
s."
AnchorPoint: "bot" 723 1 basechar 0
AnchorPoint: "ogonek" 863 19 basechar 0
AnchorPoint: "top" 736 1456 basechar 0
LayerCount: 2
Fore
SplineSet
1085 1457 m 257
 1280 1457 l 257
 1280 539 l 258
 1280 214 1111 -20 725 -20 c 256
 335 -20 170 209 170 542 c 258
 170 1457 l 257
 365 1457 l 257
 365 547 l 258
 365 277 463 135 725 135 c 256
 978 135 1085 277 1085 547 c 258
 1085 1457 l 257
EndSplineSet
EndChar

StartChar: V
Encoding: 86 86 117
Width: 1442
VWidth: 0
GlyphClass: 2
Flags: HW
PickledData: "(dp1
S'org.pippin.gimp.org.kernagic'
p2
(dp3
S'lstem'
p4
I0
sS'rstem'
p5
I0
ssS'com.typemytype.robofont.layerData'
p6
(dp7
sS'org.robofab.postScriptHintData'
p8
(dp9
s."
LayerCount: 2
Fore
SplineSet
624 -1 m 257
 77 1456 l 257
 274 1456 l 257
 422 1045 574 639 715 222 c 257
 858 638 1010 1045 1158 1456 c 257
 1365 1456 l 257
 803 -1 l 257
 624 -1 l 257
EndSplineSet
EndChar

StartChar: W
Encoding: 87 87 118
Width: 1979
VWidth: 0
GlyphClass: 2
Flags: HW
PickledData: "(dp1
S'org.pippin.gimp.org.kernagic'
p2
(dp3
S'lstem'
p4
I0
sS'rstem'
p5
I0
ssS'com.typemytype.robofont.layerData'
p6
(dp7
sS'org.robofab.postScriptHintData'
p8
(dp9
s."
AnchorPoint: "bot" 996 0 basechar 0
AnchorPoint: "top" 1001 1456 basechar 0
LayerCount: 2
Fore
SplineSet
999 1191 m 257
 648 0 l 257
 464 0 l 257
 77 1456 l 257
 251 1456 l 257
 565 259 l 257
 907 1427 l 257
 1089 1427 l 257
 1428 246 l 257
 1714 1456 l 257
 1902 1456 l 257
 1524 0 l 257
 1337 0 l 257
 999 1191 l 257
EndSplineSet
EndChar

StartChar: X
Encoding: 88 88 123
Width: 1291
VWidth: 0
GlyphClass: 2
Flags: HW
PickledData: "(dp1
S'org.pippin.gimp.org.kernagic'
p2
(dp3
S'lstem'
p4
I0
sS'rstem'
p5
I0
ssS'com.typemytype.robofont.layerData'
p6
(dp7
sS'org.robofab.postScriptHintData'
p8
(dp9
s."
LayerCount: 2
Fore
SplineSet
750 730 m 257
 1236 -1 l 257
 1018 -1 l 257
 632 581 l 257
 245 -1 l 257
 46 -1 l 257
 528 738 l 257
 52 1456 l 257
 267 1456 l 257
 649 882 l 257
 1020 1456 l 257
 1228 1456 l 257
 750 730 l 257
EndSplineSet
EndChar

StartChar: Y
Encoding: 89 89 124
Width: 1364
VWidth: 0
GlyphClass: 2
Flags: HW
PickledData: "(dp1
S'org.pippin.gimp.org.kernagic'
p2
(dp3
S'lstem'
p4
I0
sS'rstem'
p5
I0
ssS'com.typemytype.robofont.layerData'
p6
(dp7
sS'org.robofab.postScriptHintData'
p8
(dp9
s."
AnchorPoint: "top" 683 1456 basechar 0
LayerCount: 2
Fore
SplineSet
781 514 m 257
 781 0 l 257
 587 0 l 257
 587 517 l 257
 76 1456 l 257
 260 1456 l 257
 683 684 l 257
 1094 1456 l 257
 1288 1456 l 257
 781 514 l 257
EndSplineSet
EndChar

StartChar: Z
Encoding: 90 90 129
Width: 1190
VWidth: 0
GlyphClass: 2
Flags: HW
PickledData: "(dp1
S'org.pippin.gimp.org.kernagic'
p2
(dp3
S'lstem'
p4
I0
sS'rstem'
p5
I0
ssS'com.typemytype.robofont.layerData'
p6
(dp7
sS'org.robofab.postScriptHintData'
p8
(dp9
s."
AnchorPoint: "bot" 649 0 basechar 0
AnchorPoint: "top" 666 1456 basechar 0
LayerCount: 2
Fore
SplineSet
92 0 m 257
 92 133 l 257
 905 1311 l 257
 124 1311 l 257
 122 1456 l 257
 1116 1456 l 257
 1122 1324 l 257
 314 146 l 257
 1130 146 l 257
 1124 0 l 257
 92 0 l 257
EndSplineSet
EndChar

StartChar: a
Encoding: 97 97 133
Width: 1120
VWidth: 0
GlyphClass: 2
Flags: HW
PickledData: "(dp1
S'org.pippin.gimp.org.kernagic'
p2
(dp3
S'lstem'
p4
I0
sS'rstem'
p5
I0
ssS'com.typemytype.robofont.guides'
p6
(tsS'com.typemytype.robofont.layerData'
p7
(dp8
sS'com.fontlab.hintData'
p9
(dp10
S'vhints'
p11
((dp12
S'position'
p13
I126
sS'width'
p14
I120
s(dp15
g13
I842
sg14
I32
s(dp16
g13
I875
sg14
I86
stp17
sS'hhints'
p18
((dp19
g13
I-15
sg14
I92
s(dp20
g13
I535
sg14
I82
s(dp21
g13
I983
sg14
I92
stp22
ssS'org.robofab.postScriptHintData'
p23
(dp24
s."
HStem: -15 92 535 82 983 92
VStem: 126 120 842 32 875 86
AnchorPoint: "bot" 498 1 basechar 0
AnchorPoint: "ogonek" 899 1 basechar 0
AnchorPoint: "top" 562 1083 basechar 0
LayerCount: 2
Fore
SplineSet
490 109 m 256
 618 109 721 167 788 253 c 257
 788 480 l 257
 577 481 l 258
 356 481 286 417 286 292 c 256
 286 156 376 109 490 109 c 256
113 294 m 256
 113 486 244 598 544 598 c 258
 556 598 l 257
 788 595 l 257
 788 720 l 258
 788 894 709 968 551 968 c 256
 448 968 307 936 204 866 c 257
 151 1004 l 257
 260 1073 412 1106 556 1106 c 256
 799 1106 969 998 969 705 c 258
 969 0 l 257
 817 0 l 257
 804 133 l 257
 718 30 610 -20 462 -20 c 256
 255 -20 113 83 113 294 c 256
EndSplineSet
EndChar

StartChar: acute
Encoding: 180 180 137
Width: 732
VWidth: 0
GlyphClass: 4
Flags: HW
PickledData: "(dp1
S'org.robofab.postScriptHintData'
p2
(dp3
sS'com.typemytype.robofont.layerData'
p4
(dp5
s."
AnchorPoint: "top" 355 1082 mark 0
LayerCount: 2
Fore
SplineSet
292 1209 m 257
 488 1586 l 257
 710 1586 l 257
 411 1209 l 257
 292 1209 l 257
EndSplineSet
EndChar

StartChar: ae
Encoding: 230 230 139
Width: 1657
VWidth: 0
GlyphClass: 2
Flags: HW
PickledData: "(dp1
S'org.pippin.gimp.org.kernagic'
p2
(dp3
S'lstem'
p4
I0
sS'rstem'
p5
I0
ssS'com.typemytype.robofont.layerData'
p6
(dp7
sS'com.fontlab.hintData'
p8
(dp9
S'vhints'
p10
((dp11
S'position'
p12
I126
sS'width'
p13
I119
s(dp14
g12
I817
sg13
I117
s(dp15
g12
I817
sg13
I82
s(dp16
g12
I1556
sg13
I98
stp17
sS'hhints'
p18
((dp19
g12
I-14
sg13
I98
s(dp20
g12
I518
sg13
I82
s(dp21
g12
I983
sg13
I92
stp22
ssS'org.robofab.postScriptHintData'
p23
(dp24
s."
HStem: -14 98 518 82 983 92
VStem: 126 119 817 117 817 82 1556 98
AnchorPoint: "top" 910 1082 basechar 0
LayerCount: 2
Fore
SplineSet
1216 968 m 256
 1033 968 924 850 909 606 c 257
 986 600 1051 597 1107 597 c 256
 1392 597 1426 673 1426 757 c 256
 1426 873 1371 968 1216 968 c 256
738 357 m 256
 737 361 737 493 737 495 c 256
 660 504 545 509 503 509 c 256
 283 509 234 417 234 294 c 256
 234 153 348 109 439 109 c 256
 610 109 732 197 738 357 c 256
1587 775 m 256
 1587 525 1399 471 1141 471 c 256
 1068 471 989 476 907 481 c 257
 925 208 1060 115 1249 115 c 256
 1375 115 1456 156 1545 207 c 257
 1597 87 l 257
 1507 25 1379 -20 1227 -20 c 256
 1043 -20 901 58 826 205 c 257
 737 35 557 -20 385 -20 c 257
 193 -11 62 91 62 294 c 256
 62 489 172 626 481 626 c 256
 529 626 656 623 738 613 c 257
 738 716 l 258
 738 899 666 965 508 965 c 256
 407 965 275 938 151 857 c 257
 82 972 l 257
 210 1057 333 1102 504 1102 c 256
 681 1102 804 1048 849 899 c 257
 929 1045 1059 1102 1212 1102 c 256
 1457 1102 1587 957 1587 775 c 256
EndSplineSet
EndChar

StartChar: ampersand
Encoding: 38 38 144
Width: 1420
VWidth: 0
GlyphClass: 2
Flags: HW
PickledData: "(dp1
S'org.pippin.gimp.org.kernagic'
p2
(dp3
S'lstem'
p4
I0
sS'rstem'
p5
I0
ssS'com.typemytype.robofont.layerData'
p6
(dp7
sS'com.fontlab.hintData'
p8
(dp9
S'vhints'
p10
((dp11
S'position'
p12
I135
sS'width'
p13
I121
s(dp14
g12
I312
sg13
I105
s(dp15
g12
I917
sg13
I110
stp16
sS'hhints'
p17
((dp18
g12
I-19
sg13
I96
s(dp19
g12
I1372
sg13
I96
stp20
ssS'org.robofab.postScriptHintData'
p21
(dp22
s."
HStem: -19 96 1372 96
VStem: 135 121 312 105 917 110
LayerCount: 2
Fore
SplineSet
600 1353 m 256
 473 1353 376 1276 376 1162 c 256
 376 1068 412 989 524 858 c 257
 665 933 798 1014 798 1165 c 256
 798 1284 730 1353 600 1353 c 256
94 393 m 256
 94 599 209 697 396 792 c 257
 270 923 222 1035 222 1159 c 256
 222 1354 381 1482 600 1482 c 256
 803 1482 957 1375 957 1170 c 256
 957 958 781 856 609 763 c 257
 998 378 l 257
 1068 472 1142 597 1228 762 c 257
 1340 689 l 257
 1282 575 1209 415 1101 276 c 257
 1299 80 l 257
 1202 -22 l 257
 1008 171 l 257
 893 60 746 -20 551 -20 c 256
 270 -20 94 150 94 393 c 256
575 122 m 256
 698 122 800 160 908 271 c 257
 482 695 l 257
 344 621 263 544 263 402 c 256
 263 228 376 122 575 122 c 256
EndSplineSet
EndChar

StartChar: apostrophemod
Encoding: 700 700 146
Width: 645
VWidth: 0
GlyphClass: 2
Flags: HW
PickledData: "(dp1
S'org.robofab.postScriptHintData'
p2
(dp3
sS'com.typemytype.robofont.layerData'
p4
(dp5
s."
LayerCount: 2
Fore
SplineSet
115 1154 m 257
 115 1154 175 1546 180 1591 c 257
 368 1591 l 257
 352 1502 257 1154 257 1154 c 257
 115 1154 l 257
EndSplineSet
EndChar

StartChar: approxequal
Encoding: 8776 8776 147
Width: 1151
VWidth: 0
GlyphClass: 2
Flags: HW
PickledData: "(dp1
S'org.pippin.gimp.org.kernagic'
p2
(dp3
S'lstem'
p4
I0
sS'rstem'
p5
I0
ssS'com.typemytype.robofont.layerData'
p6
(dp7
S'b'
(dp8
S'name'
p9
S'approxequal'
p10
sS'lib'
p11
(dp12
sS'unicodes'
p13
(tsS'width'
p14
I1136
sS'contours'
p15
(tsS'components'
p16
(tsS'anchors'
p17
(tsssS'org.robofab.postScriptHintData'
p18
(dp19
s."
LayerCount: 2
Fore
SplineSet
134 429 m 257
 82 523 l 257
 126 640 213 730 346 730 c 256
 426 730 484 706 585 659 c 256
 678 618 756 579 815 579 c 256
 895 579 974 648 1012 738 c 257
 1068 651 l 257
 1020 522 944 442 814 442 c 256
 742 442 669 471 582 512 c 256
 484 556 412 591 344 591 c 256
 256 591 177 519 134 429 c 257
134 768 m 257
 82 862 l 257
 126 979 213 1068 346 1068 c 256
 426 1068 484 1044 585 998 c 256
 678 957 756 918 815 918 c 256
 895 918 974 987 1012 1076 c 257
 1068 989 l 257
 1020 861 944 780 814 780 c 256
 742 780 669 810 582 851 c 256
 484 895 412 930 344 930 c 256
 256 930 177 858 134 768 c 257
EndSplineSet
EndChar

StartChar: asciicircum
Encoding: 94 94 150
Width: 1296
VWidth: 0
GlyphClass: 2
Flags: HW
PickledData: "(dp1
S'org.pippin.gimp.org.kernagic'
p2
(dp3
S'lstem'
p4
I0
sS'rstem'
p5
I0
ssS'com.typemytype.robofont.layerData'
p6
(dp7
sS'org.robofab.postScriptHintData'
p8
(dp9
s."
LayerCount: 2
Fore
SplineSet
605 1456 m 257
 689 1456 l 257
 1204 297 l 257
 1024 297 l 257
 648 1170 l 257
 270 297 l 257
 92 297 l 257
 605 1456 l 257
EndSplineSet
EndChar

StartChar: asciitilde
Encoding: 126 126 151
Width: 1192
VWidth: 0
GlyphClass: 2
Flags: HW
PickledData: "(dp1
S'org.pippin.gimp.org.kernagic'
p2
(dp3
S'lstem'
p4
I0
sS'rstem'
p5
I0
ssS'com.typemytype.robofont.layerData'
p6
(dp7
S'b'
(dp8
S'name'
p9
S'asciitilde'
p10
sS'lib'
p11
(dp12
sS'unicodes'
p13
(tsS'width'
p14
I1192
sS'contours'
p15
(tsS'components'
p16
(tsS'anchors'
p17
(tsssS'org.robofab.postScriptHintData'
p18
(dp19
s."
LayerCount: 2
Fore
SplineSet
356 649 m 256
 268 649 189 576 144 489 c 257
 98 591 l 257
 144 701 230 789 360 789 c 256
 439 789 499 765 597 721 c 256
 691 680 769 642 829 642 c 256
 910 642 988 711 1030 798 c 257
 1081 703 l 257
 1032 582 950 503 825 503 c 256
 687 503 477 649 356 649 c 256
EndSplineSet
EndChar

StartChar: asterisk
Encoding: 42 42 152
Width: 947
VWidth: 0
GlyphClass: 2
Flags: HW
PickledData: "(dp1
S'org.pippin.gimp.org.kernagic'
p2
(dp3
S'lstem'
p4
I0
sS'rstem'
p5
I0
ssS'com.typemytype.robofont.layerData'
p6
(dp7
sS'org.robofab.postScriptHintData'
p8
(dp9
s."
LayerCount: 2
Fore
SplineSet
294 588 m 257
 155 674 l 257
 387 985 l 257
 46 1062 l 257
 91 1219 l 257
 427 1078 l 257
 393 1462 l 257
 561 1462 l 257
 525 1078 l 257
 864 1219 l 257
 908 1062 l 257
 563 985 l 257
 602 934 716 781 800 674 c 257
 749 642 714 620 663 588 c 257
 472 925 l 257
 294 588 l 257
EndSplineSet
EndChar

StartChar: at
Encoding: 64 64 153
Width: 1940
VWidth: 0
GlyphClass: 2
Flags: HW
PickledData: "(dp1
S'org.pippin.gimp.org.kernagic'
p2
(dp3
S'lstem'
p4
I0
sS'rstem'
p5
I0
ssS'com.typemytype.robofont.layerData'
p6
(dp7
sS'org.robofab.postScriptHintData'
p8
(dp9
s."
LayerCount: 2
Fore
SplineSet
899 337 m 256
 1048 337 1097 492 1129 696 c 257
 1171 952 l 257
 1127 962 1065 971 1036 971 c 256
 855 971 729 803 729 580 c 256
 729 433 778 337 899 337 c 256
946 -195 m 256
 474 -195 147 111 147 615 c 256
 147 1115 513 1486 1013 1486 c 256
 1445 1486 1777 1202 1777 753 c 256
 1777 401 1576 221 1402 221 c 263
 1315 221 1194 304 1164 436 c 257
 1115 324 1022 216 882 216 c 256
 688 216 580 373 580 573 c 256
 580 825 733 1083 1020 1083 c 256
 1121 1083 1254 1052 1339 1008 c 257
 1311 802 1274 614 1274 488 c 256
 1274 406 1330 347 1402 347 c 256
 1517 347 1640 487 1640 761 c 256
 1640 1094 1433 1359 1006 1359 c 256
 573 1359 302 1030 302 611 c 256
 302 212 533 -65 949 -65 c 256
 1114 -65 1284 -34 1419 52 c 257
 1463 -57 l 257
 1335 -146 1139 -195 946 -195 c 256
EndSplineSet
EndChar

StartChar: b
Encoding: 98 98 155
Width: 1211
VWidth: 0
GlyphClass: 2
Flags: HW
PickledData: "(dp1
S'org.pippin.gimp.org.kernagic'
p2
(dp3
S'lstem'
p4
I0
sS'rstem'
p5
I0
ssS'com.typemytype.robofont.guides'
p6
(tsS'com.typemytype.robofont.layerData'
p7
(dp8
sS'com.fontlab.hintData'
p9
(dp10
S'vhints'
p11
((dp12
S'position'
p13
I193
sS'width'
p14
I125
s(dp15
g13
I193
sg14
I94
s(dp16
g13
I1018
sg14
I122
stp17
sS'hhints'
p18
((dp19
g13
I-19
sg14
I92
s(dp20
g13
I982
sg14
I92
stp21
ssS'org.robofab.postScriptHintData'
p22
(dp23
s."
HStem: -19 92 982 92
VStem: 193 125 193 94 1018 122
AnchorPoint: "top" 660 1082 basechar 0
LayerCount: 2
Fore
SplineSet
626 115 m 256
 825 115 912 279 912 542 c 256
 912 792 848 970 645 970 c 256
 430 970 339 808 339 559 c 258
 339 250 l 257
 405 159 507 115 626 115 c 256
671 1106 m 256
 965 1106 1098 871 1098 543 c 256
 1098 205 932 -20 637 -20 c 256
 495 -20 388 37 323 115 c 257
 312 0 l 257
 164 0 l 257
 164 1540 l 257
 346 1560 l 257
 346 1109 l 257
 339 882 l 257
 412 1061 546 1106 671 1106 c 256
EndSplineSet
EndChar

StartChar: backslash
Encoding: 92 92 156
Width: 937
VWidth: 0
GlyphClass: 2
Flags: HW
PickledData: "(dp1
S'org.pippin.gimp.org.kernagic'
p2
(dp3
S'lstem'
p4
I0
sS'rstem'
p5
I0
ssS'com.typemytype.robofont.layerData'
p6
(dp7
S'b'
(dp8
S'name'
p9
S'backslash'
p10
sS'lib'
p11
(dp12
sS'unicodes'
p13
(tsS'width'
p14
I937
sS'contours'
p15
(tsS'components'
p16
(tsS'anchors'
p17
(tsssS'org.robofab.postScriptHintData'
p18
(dp19
s."
LayerCount: 2
Fore
SplineSet
634 -17 m 257
 97 1479 l 257
 239 1479 l 257
 776 -17 l 257
 634 -17 l 257
EndSplineSet
EndChar

StartChar: bar
Encoding: 124 124 157
Width: 686
VWidth: 0
GlyphClass: 2
Flags: HW
PickledData: "(dp1
S'org.pippin.gimp.org.kernagic'
p2
(dp3
S'lstem'
p4
I0
sS'rstem'
p5
I0
ssS'com.typemytype.robofont.layerData'
p6
(dp7
S'b'
(dp8
S'name'
p9
S'bar'
p10
sS'lib'
p11
(dp12
sS'unicodes'
p13
(tsS'width'
p14
I681
sS'contours'
p15
(tsS'components'
p16
(tsS'anchors'
p17
(tsssS'org.robofab.postScriptHintData'
p18
(dp19
s."
LayerCount: 2
Fore
SplineSet
263 1476 m 257
 414 1476 l 257
 414 -279 l 257
 263 -279 l 257
 263 1476 l 257
EndSplineSet
EndChar

StartChar: braceleft
Encoding: 123 123 158
Width: 862
VWidth: 0
GlyphClass: 2
Flags: HW
PickledData: "(dp1
S'org.pippin.gimp.org.kernagic'
p2
(dp3
S'lstem'
p4
I0
sS'rstem'
p5
I0
ssS'com.typemytype.robofont.layerData'
p6
(dp7
sS'org.robofab.postScriptHintData'
p8
(dp9
s."
LayerCount: 2
Fore
SplineSet
734 -262 m 257
 440 -262 392 -211 392 78 c 258
 392 256 l 258
 392 471 392 538 192 538 c 257
 192 686 l 257
 390 686 392 753 392 968 c 258
 392 1147 l 258
 392 1436 440 1487 734 1487 c 257
 734 1360 l 257
 585 1359 574 1330 574 1129 c 258
 574 886 l 258
 574 715 531 639 376 612 c 257
 531 585 574 509 574 337 c 258
 574 97 l 258
 574 -105 585 -134 734 -134 c 257
 734 -262 l 257
EndSplineSet
EndChar

StartChar: braceright
Encoding: 125 125 159
Width: 862
VWidth: 0
GlyphClass: 2
Flags: HW
PickledData: "(dp1
S'org.pippin.gimp.org.kernagic'
p2
(dp3
S'lstem'
p4
I0
sS'rstem'
p5
I0
ssS'com.typemytype.robofont.layerData'
p6
(dp7
sS'org.robofab.postScriptHintData'
p8
(dp9
s."
LayerCount: 2
Fore
SplineSet
126 -262 m 257
 126 -134 l 257
 276 -134 286 -105 286 97 c 258
 286 337 l 258
 286 509 329 585 484 612 c 257
 329 639 286 715 286 886 c 258
 286 1129 l 258
 286 1330 276 1359 126 1360 c 257
 126 1487 l 257
 420 1487 468 1436 468 1147 c 258
 468 968 l 258
 468 753 471 686 669 686 c 257
 669 538 l 257
 468 538 468 471 468 256 c 258
 468 78 l 258
 468 -211 420 -262 126 -262 c 257
EndSplineSet
EndChar

StartChar: bracketleft
Encoding: 91 91 160
Width: 823
VWidth: 0
GlyphClass: 2
Flags: HW
PickledData: "(dp1
S'org.pippin.gimp.org.kernagic'
p2
(dp3
S'lstem'
p4
I0
sS'rstem'
p5
I0
ssS'com.typemytype.robofont.layerData'
p6
(dp7
sS'org.robofab.postScriptHintData'
p8
(dp9
s."
LayerCount: 2
Fore
SplineSet
218 -255 m 257
 218 1477 l 257
 680 1477 l 257
 680 1348 l 257
 401 1348 l 257
 401 -126 l 257
 680 -126 l 257
 680 -255 l 257
 218 -255 l 257
EndSplineSet
EndChar

StartChar: bracketright
Encoding: 93 93 161
Width: 965
VWidth: 0
GlyphClass: 2
Flags: HW
PickledData: "(dp1
S'org.pippin.gimp.org.kernagic'
p2
(dp3
S'lstem'
p4
I0
sS'rstem'
p5
I0
ssS'com.typemytype.robofont.layerData'
p6
(dp7
sS'org.robofab.postScriptHintData'
p8
(dp9
s."
LayerCount: 2
Fore
SplineSet
288 -255 m 257
 288 -126 l 257
 568 -126 l 257
 568 1348 l 257
 288 1348 l 257
 288 1477 l 257
 750 1477 l 257
 750 -255 l 257
 288 -255 l 257
EndSplineSet
EndChar

StartChar: breve
Encoding: 728 728 162
Width: 874
VWidth: 0
GlyphClass: 4
Flags: HW
PickledData: "(dp1
S'org.robofab.postScriptHintData'
p2
(dp3
sS'com.typemytype.robofont.layerData'
p4
(dp5
s."
AnchorPoint: "top" 427 1066 mark 0
LayerCount: 2
Fore
SplineSet
423 1288 m 256
 285 1288 179 1367 179 1532 c 257
 296 1532 l 257
 296 1441 360 1401 423 1401 c 256
 487 1401 555 1441 555 1532 c 257
 670 1532 l 257
 670 1367 562 1288 423 1288 c 256
EndSplineSet
EndChar

StartChar: breveinvertedcomb
Encoding: 785 785 163
Width: 797
VWidth: 0
GlyphClass: 4
Flags: HW
PickledData: "(dp1
S'org.robofab.postScriptHintData'
p2
(dp3
sS'com.typemytype.robofont.layerData'
p4
(dp5
s."
AnchorPoint: "top" 411 1066 mark 0
LayerCount: 2
Fore
SplineSet
163 1288 m 257
 163 1453 269 1532 407 1532 c 256
 545 1532 653 1452 653 1288 c 257
 539 1288 l 257
 539 1378 470 1419 407 1419 c 256
 344 1419 280 1378 280 1288 c 257
 163 1288 l 257
EndSplineSet
EndChar

StartChar: brokenbar
Encoding: 166 166 164
Width: 663
VWidth: 0
GlyphClass: 2
Flags: HW
PickledData: "(dp1
S'org.pippin.gimp.org.kernagic'
p2
(dp3
S'lstem'
p4
I0
sS'rstem'
p5
I0
ssS'com.typemytype.robofont.layerData'
p6
(dp7
S'b'
(dp8
S'name'
p9
S'brokenbar'
p10
sS'lib'
p11
(dp12
sS'unicodes'
p13
(tsS'width'
p14
I653
sS'contours'
p15
(tsS'components'
p16
(tsS'anchors'
p17
(tsssS'org.robofab.postScriptHintData'
p18
(dp19
s."
LayerCount: 2
Fore
SplineSet
267 1571 m 257
 400 1571 l 257
 400 819 l 257
 267 819 l 257
 267 1571 l 257
267 531 m 257
 400 531 l 257
 400 -225 l 257
 267 -225 l 257
 267 531 l 257
EndSplineSet
EndChar

StartChar: bullet
Encoding: 8226 8226 165
Width: 913
VWidth: 0
GlyphClass: 2
Flags: HW
PickledData: "(dp1
S'org.pippin.gimp.org.kernagic'
p2
(dp3
S'lstem'
p4
I0
sS'rstem'
p5
I0
ssS'com.typemytype.robofont.layerData'
p6
(dp7
S'b'
(dp8
S'name'
p9
S'bullet'
p10
sS'lib'
p11
(dp12
sS'unicodes'
p13
(tsS'width'
p14
I908
sS'contours'
p15
(tsS'components'
p16
(tsS'anchors'
p17
(tsssS'org.robofab.postScriptHintData'
p18
(dp19
s."
LayerCount: 2
Fore
SplineSet
445 407 m 256
 278 407 130 528 130 736 c 256
 130 946 282 1071 451 1071 c 256
 618 1071 767 950 767 741 c 256
 767 531 614 407 445 407 c 256
EndSplineSet
EndChar

StartChar: c
Encoding: 99 99 166
Width: 1077
VWidth: 0
GlyphClass: 2
Flags: HW
PickledData: "(dp1
S'org.pippin.gimp.org.kernagic'
p2
(dp3
S'lstem'
p4
I0
sS'rstem'
p5
I696
ssS'com.typemytype.robofont.guides'
p6
((dp7
S'y'
I417
sS'x'
I962
sS'magnetic'
p8
I5
sS'angle'
p9
F90
sS'isGlobal'
p10
I00
s(dp11
S'y'
I1020
sS'x'
I565
sg8
I5
sg9
F90
sg10
I00
s(dp12
S'y'
I994
sS'x'
I572
sg8
I5
sg9
F90
sg10
I00
stp13
sS'com.typemytype.robofont.layerData'
p14
(dp15
sS'com.fontlab.hintData'
p16
(dp17
S'vhints'
p18
((dp19
S'position'
p20
I128
sS'width'
p21
I120
stp22
sS'hhints'
p23
((dp24
g20
I-19
sg21
I92
s(dp25
g20
I982
sg21
I92
stp26
ssS'org.robofab.postScriptHintData'
p27
(dp28
s."
HStem: -19 92 982 92
VStem: 128 120
AnchorPoint: "bot" 602 1 basechar 0
AnchorPoint: "top" 618 1083 basechar 0
LayerCount: 2
Fore
SplineSet
868 272 m 257
 881 272 l 257
 995 210 l 257
 949 100 843 -20 605 -20 c 256
 304 -20 113 198 113 543 c 256
 113 888 304 1106 605 1106 c 256
 843 1106 948 986 995 876 c 257
 882 811 l 257
 869 811 l 257
 819 902 749 969 613 969 c 256
 406 969 300 811 300 543 c 256
 300 276 405 117 611 117 c 258
 613 117 l 258
 749 117 818 181 868 272 c 257
EndSplineSet
EndChar

StartChar: caron
Encoding: 711 711 168
Width: 899
VWidth: 0
GlyphClass: 4
Flags: HW
PickledData: "(dp1
S'org.robofab.postScriptHintData'
p2
(dp3
sS'com.typemytype.robofont.layerData'
p4
(dp5
s."
AnchorPoint: "top" 444 1082 mark 0
LayerCount: 2
Fore
SplineSet
334 1238 m 257
 137 1585 l 257
 294 1585 l 257
 431 1356 l 257
 566 1585 l 257
 723 1585 l 257
 527 1238 l 257
 334 1238 l 257
EndSplineSet
EndChar

StartChar: caron.alt
Encoding: 65537 -1 169
Width: 735
VWidth: 0
GlyphClass: 4
Flags: HW
PickledData: "(dp1
S'org.robofab.postScriptHintData'
p2
(dp3
sS'com.typemytype.robofont.layerData'
p4
(dp5
s."
AnchorPoint: "caron.alt" 216 1082 mark 0
LayerCount: 2
Fore
SplineSet
462 1159 m 257
 497 1542 l 257
 675 1542 l 257
 595 1159 l 257
 462 1159 l 257
EndSplineSet
EndChar

StartChar: cedilla
Encoding: 184 184 174
Width: 685
VWidth: 0
GlyphClass: 4
Flags: HW
PickledData: "(dp1
S'org.robofab.postScriptHintData'
p2
(dp3
sS'com.typemytype.robofont.layerData'
p4
(dp5
s."
AnchorPoint: "bot" 402 11 mark 0
LayerCount: 2
Fore
SplineSet
354 -402 m 256
 299 -402 246 -391 196 -369 c 257
 227 -284 l 257
 268 -303 310 -311 348 -311 c 256
 429 -311 495 -272 495 -197 c 256
 495 -153 472 -107 387 -107 c 256
 371 -107 353 -108 332 -112 c 257
 331 -60 l 257
 367 -46 403 -40 436 -40 c 256
 531 -40 605 -94 605 -203 c 256
 605 -326 497 -402 354 -402 c 256
EndSplineSet
EndChar

StartChar: cent
Encoding: 162 162 175
Width: 1077
VWidth: 0
GlyphClass: 2
Flags: HW
PickledData: "(dp1
S'org.pippin.gimp.org.kernagic'
p2
(dp3
S'lstem'
p4
I0
sS'rstem'
p5
I0
ssS'com.typemytype.robofont.layerData'
p6
(dp7
sS'org.robofab.postScriptHintData'
p8
(dp9
s."
LayerCount: 2
Fore
SplineSet
550 1388 m 1
 664 1388 l 1
 662 1104 l 1
 860 1086 952 977 995 876 c 1
 882 811 l 1
 869 811 l 1
 819 902 749 969 613 969 c 0
 406 969 300 811 300 543 c 0
 300 276 405 117 611 117 c 2
 613 117 l 2
 749 117 818 181 868 272 c 1
 881 272 l 1
 995 210 l 1
 953 111 863 3 670 -17 c 1
 655 -309 l 1
 539 -309 l 1
 539 -16 l 1
 276 14 113 224 113 543 c 0
 113 862 277 1072 540 1102 c 1
 550 1388 l 1
EndSplineSet
EndChar

StartChar: circumflex
Encoding: 710 710 176
Width: 886
VWidth: 0
GlyphClass: 4
Flags: HW
PickledData: "(dp1
S'org.robofab.postScriptHintData'
p2
(dp3
sS'com.typemytype.robofont.layerData'
p4
(dp5
s."
AnchorPoint: "top" 434 1082 mark 0
LayerCount: 2
Fore
SplineSet
136 1251 m 257
 333 1598 l 257
 526 1598 l 257
 722 1251 l 257
 565 1251 l 257
 430 1480 l 257
 293 1251 l 257
 136 1251 l 257
EndSplineSet
EndChar

StartChar: colon
Encoding: 58 58 177
Width: 658
VWidth: 0
GlyphClass: 2
Flags: HW
PickledData: "(dp1
S'org.pippin.gimp.org.kernagic'
p2
(dp3
S'lstem'
p4
I0
sS'rstem'
p5
I0
ssS'com.typemytype.robofont.layerData'
p6
(dp7
S'b'
(dp8
S'name'
p9
S'colon'
p10
sS'lib'
p11
(dp12
sS'unicodes'
p13
(tsS'width'
p14
I653
sS'contours'
p15
(tsS'components'
p16
(tsS'anchors'
p17
(tsssS'org.robofab.postScriptHintData'
p18
(dp19
s."
LayerCount: 2
Fore
SplineSet
326 -10 m 256
 243 -10 200 50 200 116 c 256
 200 181 242 243 326 243 c 256
 409 243 448 181 448 116 c 256
 448 50 409 -10 326 -10 c 256
326 833 m 256
 243 833 200 893 200 959 c 256
 200 1024 242 1086 326 1086 c 256
 409 1086 448 1024 448 959 c 256
 448 893 409 833 326 833 c 256
EndSplineSet
EndChar

StartChar: comma
Encoding: 44 44 178
Width: 629
VWidth: 0
GlyphClass: 2
Flags: HW
PickledData: "(dp1
S'org.pippin.gimp.org.kernagic'
p2
(dp3
S'lstem'
p4
I0
sS'rstem'
p5
I0
ssS'com.typemytype.robofont.layerData'
p6
(dp7
sS'org.robofab.postScriptHintData'
p8
(dp9
s."
LayerCount: 2
Fore
SplineSet
193 -305 m 257
 193 -305 234 233 234 239 c 257
 418 239 l 257
 418 148 l 257
 300 -305 l 257
 193 -305 l 257
EndSplineSet
EndChar

StartChar: commaaccent
Encoding: 806 806 179
Width: 611
VWidth: 0
GlyphClass: 4
Flags: HW
PickledData: "(dp1
S'org.robofab.postScriptHintData'
p2
(dp3
s."
AnchorPoint: "bot" 329 0 mark 0
LayerCount: 2
Fore
SplineSet
194 -523 m 257
 194 -523 241 -203 241 -134 c 257
 415 -134 l 257
 416 -176 316 -523 316 -523 c 257
 194 -523 l 257
EndSplineSet
EndChar

StartChar: commaturnedabovecomb
Encoding: 786 786 180
Width: 600
VWidth: 0
GlyphClass: 4
Flags: HW
PickledData: "(dp1
S'org.robofab.postScriptHintData'
p2
(dp3
s."
AnchorPoint: "top" 296 1066 mark 0
LayerCount: 2
Fore
SplineSet
198 1304 m 257
 198 1344 304 1784 304 1784 c 257
 423 1784 l 257
 423 1784 391 1351 391 1282 c 257
 194 1282 l 257
 198 1304 l 257
EndSplineSet
EndChar

StartChar: copyright
Encoding: 169 169 181
Width: 1712
VWidth: 0
GlyphClass: 2
Flags: HW
PickledData: "(dp1
S'org.pippin.gimp.org.kernagic'
p2
(dp3
S'lstem'
p4
I0
sS'rstem'
p5
I0
ssS'com.typemytype.robofont.layerData'
p6
(dp7
sS'org.robofab.postScriptHintData'
p8
(dp9
s."
LayerCount: 2
Fore
SplineSet
765 -23 m 256
 382 -23 10 241 10 727 c 256
 10 1216 382 1479 765 1479 c 256
 1151 1479 1533 1216 1533 727 c 256
 1533 241 1152 -23 765 -23 c 256
765 68 m 256
 1101 68 1421 303 1421 727 c 256
 1421 1153 1101 1386 765 1386 c 256
 431 1386 114 1153 114 727 c 256
 114 302 431 68 765 68 c 256
785 236 m 256
 528 236 308 434 308 726 c 256
 308 1010 523 1216 778 1216 c 256
 880 1216 978 1187 1066 1129 c 257
 1022 1039 l 257
 948 1091 856 1115 783 1115 c 256
 592 1115 436 959 436 730 c 256
 436 485 593 335 790 335 c 256
 870 335 948 353 1033 405 c 257
 1069 317 l 257
 983 263 885 236 785 236 c 256
EndSplineSet
EndChar

StartChar: currency
Encoding: 164 164 182
Width: 1159
VWidth: 0
GlyphClass: 2
Flags: HW
PickledData: "(dp1
S'org.pippin.gimp.org.kernagic'
p2
(dp3
S'lstem'
p4
I0
sS'rstem'
p5
I0
ssS'com.typemytype.robofont.layerData'
p6
(dp7
S'b'
(dp8
S'name'
p9
S'currency'
p10
sS'lib'
p11
(dp12
sS'unicodes'
p13
(tsS'width'
p14
I1164
sS'contours'
p15
(tsS'components'
p16
(tsS'anchors'
p17
(tsssS'org.robofab.postScriptHintData'
p18
(dp19
s."
LayerCount: 2
Fore
SplineSet
877 721 m 256
 877 892 759 1038 576 1038 c 256
 393 1038 275 892 275 721 c 256
 275 550 393 406 576 406 c 256
 760 406 877 551 877 721 c 256
833 1043 m 257
 1014 1217 l 257
 1079 1146 l 257
 899 970 l 257
 952 895 979 810 979 721 c 256
 979 628 952 544 900 473 c 257
 1078 296 l 257
 1014 225 l 257
 833 399 l 257
 762 341 674 308 576 308 c 256
 477 308 390 340 318 400 c 257
 139 226 l 257
 72 297 l 257
 252 473 l 257
 200 545 173 630 173 721 c 256
 173 812 199 897 252 970 c 257
 71 1149 l 257
 139 1217 l 257
 318 1044 l 257
 389 1104 479 1137 576 1137 c 256
 673 1137 762 1102 833 1043 c 257
EndSplineSet
EndChar

StartChar: d
Encoding: 100 100 183
Width: 1203
VWidth: 0
GlyphClass: 2
Flags: HW
PickledData: "(dp1
S'org.pippin.gimp.org.kernagic'
p2
(dp3
S'lstem'
p4
I0
sS'rstem'
p5
I0
ssS'com.typemytype.robofont.layerData'
p6
(dp7
sS'com.fontlab.hintData'
p8
(dp9
S'vhints'
p10
((dp11
S'position'
p12
I114
sS'width'
p13
I166
s(dp14
g12
I907
sg13
I161
s(dp15
g12
I930
sg13
I138
stp16
sS'hhints'
p17
((dp18
g12
I-19
sg13
I127
s(dp19
g12
I953
sg13
I127
stp20
ssS'org.robofab.postScriptHintData'
p21
(dp22
s."
HStem: -19 127 953 127
VStem: 114 166 907 161 930 138
AnchorPoint: "mid" 964 1310 basechar 0
AnchorPoint: "caron.alt" 1135 1201 basechar 0
AnchorPoint: "top" 533 1082 basechar 0
LayerCount: 2
Fore
SplineSet
598 115 m 256
 711 115 808 152 872 230 c 257
 872 845 l 257
 816 926 714 970 597 970 c 256
 398 970 300 813 300 547 c 256
 300 275 395 115 598 115 c 256
579 -20 m 256
 275 -20 113 210 113 544 c 256
 113 882 287 1103 578 1103 c 258
 584 1103 l 257
 592 1103 l 258
 717 1103 810 1057 871 992 c 257
 866 1153 l 257
 866 1540 l 257
 1054 1560 l 257
 1054 0 l 257
 897 0 l 257
 887 118 l 257
 808 25 688 -20 579 -20 c 256
EndSplineSet
EndChar

StartChar: dagger
Encoding: 8224 8224 184
Width: 1060
VWidth: 0
GlyphClass: 2
Flags: HW
PickledData: "(dp1
S'org.pippin.gimp.org.kernagic'
p2
(dp3
S'lstem'
p4
I0
sS'rstem'
p5
I0
ssS'com.typemytype.robofont.layerData'
p6
(dp7
S'b'
(dp8
S'name'
p9
S'dagger'
p10
sS'lib'
p11
(dp12
sS'unicodes'
p13
(tsS'width'
p14
I1050
sS'contours'
p15
(tsS'components'
p16
(tsS'anchors'
p17
(tsssS'org.robofab.postScriptHintData'
p18
(dp19
s."
LayerCount: 2
Fore
SplineSet
461 1491 m 257
 589 1491 l 257
 589 1109 l 257
 884 1109 l 257
 884 998 l 257
 590 998 l 257
 590 97 l 257
 461 97 l 257
 461 998 l 257
 173 998 l 257
 173 1109 l 257
 461 1109 l 257
 461 1491 l 257
EndSplineSet
EndChar

StartChar: daggerdbl
Encoding: 8225 8225 185
Width: 1032
VWidth: 0
GlyphClass: 2
Flags: HW
PickledData: "(dp1
S'org.pippin.gimp.org.kernagic'
p2
(dp3
S'lstem'
p4
I0
sS'rstem'
p5
I0
ssS'com.typemytype.robofont.layerData'
p6
(dp7
S'b'
(dp8
S'name'
p9
S'daggerdbl'
p10
sS'lib'
p11
(dp12
sS'unicodes'
p13
(tsS'width'
p14
I1022
sS'contours'
p15
(tsS'components'
p16
(tsS'anchors'
p17
(tsssS'org.robofab.postScriptHintData'
p18
(dp19
s."
LayerCount: 2
Fore
SplineSet
458 1473 m 257
 585 1473 l 257
 585 1089 l 257
 865 1089 l 257
 865 980 l 257
 589 980 l 257
 589 549 l 257
 864 549 l 257
 864 444 l 257
 588 444 l 257
 588 58 l 257
 458 58 l 257
 458 444 l 257
 179 444 l 257
 179 549 l 257
 458 549 l 257
 458 980 l 257
 179 980 l 257
 179 1089 l 257
 458 1089 l 257
 458 1473 l 257
EndSplineSet
EndChar

StartChar: dblgravecomb
Encoding: 783 783 186
Width: 890
VWidth: 0
GlyphClass: 4
Flags: HW
PickledData: "(dp1
S'org.robofab.postScriptHintData'
p2
(dp3
sS'com.typemytype.robofont.layerData'
p4
(dp5
s."
AnchorPoint: "top" 484 1066 mark 0
LayerCount: 2
Fore
SplineSet
560 1247 m 257
 373 1598 l 257
 540 1598 l 257
 672 1247 l 257
 560 1247 l 257
285 1247 m 257
 60 1598 l 257
 244 1598 l 257
 393 1247 l 257
 285 1247 l 257
EndSplineSet
EndChar

StartChar: degree
Encoding: 176 176 189
Width: 875
VWidth: 0
GlyphClass: 2
Flags: HW
PickledData: "(dp1
S'org.pippin.gimp.org.kernagic'
p2
(dp3
S'lstem'
p4
I0
sS'rstem'
p5
I0
ssS'com.typemytype.robofont.layerData'
p6
(dp7
sS'org.robofab.postScriptHintData'
p8
(dp9
s."
LayerCount: 2
Fore
SplineSet
429 890 m 256
 268 890 129 1013 129 1187 c 256
 129 1359 268 1479 429 1479 c 256
 593 1479 732 1359 732 1187 c 256
 732 1020 597 890 429 890 c 256
429 992 m 256
 533 992 618 1070 618 1186 c 256
 618 1301 533 1378 430 1378 c 256
 328 1378 243 1301 243 1186 c 256
 243 1069 326 992 429 992 c 256
EndSplineSet
EndChar

StartChar: dieresis
Encoding: 168 168 190
Width: 935
VWidth: 0
GlyphClass: 4
Flags: HW
PickledData: "(dp1
S'org.robofab.postScriptHintData'
p2
(dp3
sS'com.typemytype.robofont.layerData'
p4
(dp5
s."
AnchorPoint: "top" 465 1082 mark 0
LayerCount: 2
Fore
SplineSet
674 1290 m 256
 600 1290 566 1338 566 1399 c 256
 566 1459 599 1508 674 1508 c 256
 747 1508 780 1459 780 1399 c 256
 780 1338 747 1290 674 1290 c 256
239 1290 m 256
 166 1290 132 1338 132 1399 c 256
 132 1459 164 1508 239 1508 c 256
 312 1508 345 1459 345 1399 c 256
 345 1338 312 1290 239 1290 c 256
EndSplineSet
EndChar

StartChar: divide
Encoding: 247 247 191
Width: 1174
VWidth: 0
GlyphClass: 2
Flags: HW
PickledData: "(dp1
S'org.pippin.gimp.org.kernagic'
p2
(dp3
S'lstem'
p4
I0
sS'rstem'
p5
I0
ssS'com.typemytype.robofont.layerData'
p6
(dp7
sS'org.robofab.postScriptHintData'
p8
(dp9
s."
LayerCount: 2
Fore
SplineSet
485 1101 m 257
 688 1101 l 257
 688 891 l 257
 485 891 l 257
 485 1101 l 257
485 245 m 257
 685 245 l 257
 685 31 l 257
 485 31 l 257
 485 245 l 257
103 650 m 257
 1066 650 l 257
 1066 505 l 257
 103 505 l 257
 103 650 l 257
EndSplineSet
EndChar

StartChar: dollar
Encoding: 36 36 192
Width: 1222
VWidth: 0
GlyphClass: 2
Flags: HW
PickledData: "(dp1
S'org.pippin.gimp.org.kernagic'
p2
(dp3
S'lstem'
p4
I0
sS'rstem'
p5
I0
ssS'com.typemytype.robofont.layerData'
p6
(dp7
S'b'
(dp8
S'name'
p9
S'dollar'
p10
sS'lib'
p11
(dp12
sS'unicodes'
p13
(tsS'width'
p14
I1221
sS'contours'
p15
(tsS'components'
p16
(tsS'anchors'
p17
(tsssS'org.robofab.postScriptHintData'
p18
(dp19
s."
LayerCount: 2
Fore
SplineSet
563 1766 m 1
 690 1766 l 1
 690 1473 l 1
 853 1458 992 1391 1081 1289 c 1
 977 1185 l 1
 962 1185 l 1
 886 1273 759 1324 612 1324 c 0
 449 1324 312 1273 312 1106 c 0
 312 993 360 957 520 891 c 2
 725 808 l 2
 963 713 1102 642 1102 383 c 0
 1102 113 897 5 680 -16 c 1
 668 -296 l 1
 546 -296 l 1
 546 -18 l 1
 341 -5 188 79 112 171 c 1
 219 274 l 1
 232 274 l 1
 326 181 465 134 598 134 c 0
 779 134 917 201 917 384 c 0
 917 522 852 561 638 650 c 2
 435 734 l 2
 233 816 117 879 117 1083 c 0
 117 1365 317 1459 549 1474 c 1
 563 1766 l 1
EndSplineSet
EndChar

StartChar: dotaccent
Encoding: 729 729 193
Width: 453
VWidth: 0
GlyphClass: 4
Flags: HW
PickledData: "(dp1
S'org.robofab.postScriptHintData'
p2
(dp3
sS'com.typemytype.robofont.layerData'
p4
(dp5
s."
AnchorPoint: "top" 225 1082 mark 0
LayerCount: 2
Fore
SplineSet
358 1431 m 256
 358 1351 310 1302 226 1302 c 256
 142 1302 94 1351 94 1431 c 256
 94 1508 142 1556 226 1556 c 256
 310 1556 358 1508 358 1431 c 256
EndSplineSet
EndChar

StartChar: dotlessi
Encoding: 305 305 194
Width: 527
VWidth: 0
GlyphClass: 2
Flags: HW
PickledData: "(dp1
S'org.pippin.gimp.org.kernagic'
p2
(dp3
S'lstem'
p4
I0
sS'rstem'
p5
I0
ssS'com.typemytype.robofont.layerData'
p6
(dp7
sS'org.robofab.postScriptHintData'
p8
(dp9
s."
AnchorPoint: "ogonek" 282 0 basechar 0
AnchorPoint: "top" 280 1082 basechar 0
LayerCount: 2
Fore
SplineSet
183 1082 m 257
 365 1082 l 257
 365 0 l 257
 183 0 l 257
 183 1082 l 257
EndSplineSet
EndChar

StartChar: dotlessj
Encoding: 65538 -1 195
Width: 595
VWidth: 0
GlyphClass: 2
Flags: HW
PickledData: "(dp1
S'org.pippin.gimp.org.kernagic'
p2
(dp3
S'lstem'
p4
I0
sS'rstem'
p5
I0
ssS'com.typemytype.robofont.layerData'
p6
(dp7
sS'com.fontlab.hintData'
p8
(dp9
S'vhints'
p10
((dp11
S'position'
p12
I111
sS'width'
p13
I142
stp14
sS'hhints'
p15
((dp16
g12
I-479
sg13
I112
stp17
ssS'org.robofab.postScriptHintData'
p18
(dp19
s."
HStem: -479 112
VStem: 111 142
LayerCount: 2
Fore
SplineSet
241 1082 m 257
 423 1082 l 257
 423 -12 l 258
 423 -275 336 -350 112 -385 c 257
 50 -395 l 257
 21 -253 l 257
 86 -238 l 258
 237 -204 241 -167 241 19 c 258
 241 1082 l 257
EndSplineSet
EndChar

StartChar: e
Encoding: 101 101 196
Width: 1136
VWidth: 0
GlyphClass: 2
Flags: HW
PickledData: "(dp1
S'org.pippin.gimp.org.kernagic'
p2
(dp3
S'lstem'
p4
I0
sS'rstem'
p5
I747
ssS'com.typemytype.robofont.layerData'
p6
(dp7
sS'com.fontlab.hintData'
p8
(dp9
S'hhints'
p10
((dp11
S'position'
p12
I-19
sS'width'
p13
I94
s(dp14
g12
I982
sg13
I92
stp15
ssS'org.robofab.postScriptHintData'
p16
(dp17
s."
HStem: -19 94 982 92
AnchorPoint: "bot" 624 1 basechar 0
AnchorPoint: "ogonek" 900 50 basechar 0
AnchorPoint: "top" 618 1082 basechar 0
LayerCount: 2
Fore
SplineSet
302 627 m 257
 875 627 l 257
 872 844 791 971 618 971 c 256
 443 971 321 839 302 627 c 257
1022 509 m 257
 299 509 l 257
 315 233 460 115 654 115 c 256
 778 115 857 155 946 206 c 257
 959 206 l 257
 1001 87 l 257
 912 25 783 -20 631 -20 c 256
 338 -20 113 191 113 538 c 256
 113 898 336 1106 609 1106 c 256
 874 1106 1031 920 1031 620 c 256
 1031 589 1022 512 1022 509 c 257
EndSplineSet
EndChar

StartChar: eight
Encoding: 56 56 204
Width: 1260
VWidth: 0
GlyphClass: 2
Flags: HW
PickledData: "(dp1
S'org.pippin.gimp.org.kernagic'
p2
(dp3
S'lstem'
p4
I0
sS'rstem'
p5
I0
ssS'com.typemytype.robofont.layerData'
p6
(dp7
sS'org.robofab.postScriptHintData'
p8
(dp9
s."
LayerCount: 2
Fore
SplineSet
630 820 m 257
 810 862 899 962 899 1117 c 256
 899 1259 793 1341 630 1341 c 256
 468 1341 359 1258 359 1117 c 256
 359 962 452 862 630 820 c 257
630 120 m 256
 835 120 931 205 931 382 c 256
 931 551 804 657 630 697 c 257
 457 657 326 557 326 381 c 256
 326 210 431 120 630 120 c 256
630 -20 m 256
 366 -20 151 106 151 366 c 256
 151 570 263 698 451 764 c 257
 298 816 181 934 181 1115 c 256
 181 1348 371 1476 631 1476 c 256
 891 1476 1077 1348 1077 1115 c 256
 1077 934 970 825 813 766 c 257
 992 706 1108 557 1108 366 c 256
 1108 106 896 -20 630 -20 c 256
EndSplineSet
EndChar

StartChar: emdash
Encoding: 8212 8212 207
Width: 2128
VWidth: 0
GlyphClass: 2
Flags: HW
PickledData: "(dp1
S'org.robofab.postScriptHintData'
p2
(dp3
sS'com.typemytype.robofont.layerData'
p4
(dp5
s."
LayerCount: 2
Fore
SplineSet
60 515 m 257
 60 658 l 257
 2068 658 l 257
 2068 515 l 257
 60 515 l 257
EndSplineSet
EndChar

StartChar: endash
Encoding: 8211 8211 208
Width: 1319
VWidth: 0
GlyphClass: 2
Flags: HW
PickledData: "(dp1
S'org.pippin.gimp.org.kernagic'
p2
(dp3
S'lstem'
p4
I0
sS'rstem'
p5
I0
ssS'com.typemytype.robofont.layerData'
p6
(dp7
sS'org.robofab.postScriptHintData'
p8
(dp9
s."
LayerCount: 2
Fore
SplineSet
72 523 m 257
 72 653 l 257
 1248 653 l 257
 1248 523 l 257
 72 523 l 257
EndSplineSet
EndChar

StartChar: eng
Encoding: 331 331 209
Width: 1197
VWidth: 0
GlyphClass: 2
Flags: HW
PickledData: "(dp1
S'org.robofab.postScriptHintData'
p2
(dp3
sS'com.typemytype.robofont.layerData'
p4
(dp5
s."
LayerCount: 2
Fore
SplineSet
165 0 m 1
 347 0 l 1
 347 612 l 2
 347 807 439 970 662 970 c 0
 825 970 874 848 874 665 c 2
 874 -11 l 2
 873 -227 837 -293 467 -293 c 1
 469 -434 l 1
 913 -433 1055 -343 1055 -14 c 2
 1055 652 l 2
 1055 944 944 1106 700 1106 c 0
 524 1106 401 1031 335 871 c 1
 316 1082 l 1
 165 1082 l 1
 165 0 l 1
EndSplineSet
EndChar

StartChar: equal
Encoding: 61 61 211
Width: 1070
VWidth: 0
GlyphClass: 2
Flags: HW
PickledData: "(dp1
S'org.pippin.gimp.org.kernagic'
p2
(dp3
S'lstem'
p4
I0
sS'rstem'
p5
I0
ssS'com.typemytype.robofont.layerData'
p6
(dp7
S'b'
(dp8
S'name'
p9
S'equal'
p10
sS'lib'
p11
(dp12
sS'unicodes'
p13
(tsS'width'
p14
I1050
sS'contours'
p15
(tsS'components'
p16
(tsS'anchors'
p17
(tsssS'org.robofab.postScriptHintData'
p18
(dp19
s."
LayerCount: 2
Fore
SplineSet
128 570 m 257
 948 570 l 257
 948 416 l 257
 128 416 l 257
 128 570 l 257
128 957 m 257
 948 957 l 257
 948 804 l 257
 128 804 l 257
 128 957 l 257
EndSplineSet
EndChar

StartChar: estimated
Encoding: 8494 8494 212
Width: 1218
VWidth: 0
GlyphClass: 2
Flags: HW
PickledData: "(dp1
S'org.robofab.postScriptHintData'
p2
(dp3
sS'com.typemytype.robofont.layerData'
p4
(dp5
S'b'
(dp6
S'name'
p7
S'estimated'
p8
sS'lib'
p9
(dp10
sS'unicodes'
p11
(tsS'width'
p12
I1223
sS'contours'
p13
(tsS'components'
p14
(tsS'anchors'
p15
(tsss."
LayerCount: 2
Fore
SplineSet
1004 600 m 257
 1004 834 868 1039 659 1039 c 256
 487 1039 340 861 325 600 c 257
 1004 600 l 257
102 540 m 256
 102 859 331 1099 653 1099 c 256
 973 1099 1120 867 1120 520 c 257
 323 520 l 257
 324 244 442 53 671 53 c 256
 851 53 963 134 1061 239 c 257
 1112 188 l 257
 1013 70 878 -20 671 -20 c 256
 289 -20 102 221 102 540 c 256
EndSplineSet
EndChar

StartChar: eth
Encoding: 240 240 213
Width: 1216
VWidth: 0
GlyphClass: 2
Flags: HW
PickledData: "(dp1
S'org.pippin.gimp.org.kernagic'
p2
(dp3
S'lstem'
p4
I0
sS'rstem'
p5
I0
ssS'com.typemytype.robofont.layerData'
p6
(dp7
sS'org.robofab.postScriptHintData'
p8
(dp9
s."
LayerCount: 2
Fore
SplineSet
940 496 m 256
 940 677 819 845 599 845 c 256
 390 845 269 692 269 488 c 256
 269 297 379 117 605 117 c 256
 826 117 940 267 940 496 c 256
223 1578 m 257
 421 1578 l 257
 571 1428 l 257
 858 1539 l 257
 908 1424 l 257
 660 1329 l 257
 843 1129 943 999 1011 870 c 256
 1063 768 1097 628 1097 490 c 256
 1097 198 930 -20 599 -20 c 256
 276 -20 101 218 101 489 c 256
 101 780 300 974 581 974 c 256
 719 974 784 918 842 876 c 257
 790 971 690 1103 522 1270 c 257
 268 1169 l 257
 219 1287 l 257
 437 1373 l 257
 223 1578 l 257
EndSplineSet
EndChar

StartChar: exclam
Encoding: 33 33 214
Width: 715
VWidth: 0
GlyphClass: 2
Flags: HW
PickledData: "(dp1
S'org.pippin.gimp.org.kernagic'
p2
(dp3
S'lstem'
p4
I0
sS'rstem'
p5
I0
ssS'com.typemytype.robofont.layerData'
p6
(dp7
sS'org.robofab.postScriptHintData'
p8
(dp9
s."
LayerCount: 2
Fore
SplineSet
348 -13 m 256
 267 -13 229 49 229 110 c 256
 229 170 267 231 348 231 c 256
 429 231 467 170 467 110 c 256
 467 47 429 -13 348 -13 c 256
312 433 m 257
 253 1334 l 257
 253 1467 l 257
 437 1467 l 257
 437 1334 l 257
 384 433 l 257
 312 433 l 257
EndSplineSet
EndChar

StartChar: f
Encoding: 102 102 216
Width: 761
VWidth: 0
GlyphClass: 2
Flags: HW
PickledData: "(dp1
S'org.pippin.gimp.org.kernagic'
p2
(dp3
S'lstem'
p4
I182
sS'rstem'
p5
I417
ssS'com.typemytype.robofont.layerData'
p6
(dp7
sS'com.fontlab.hintData'
p8
(dp9
S'vhints'
p10
((dp11
S'position'
p12
I269
sS'width'
p13
I166
stp14
sS'hhints'
p15
((dp16
g12
I952
sg13
I89
s(dp17
g12
I1358
sg13
I122
stp18
ssS'org.robofab.postScriptHintData'
p19
(dp20
s."
HStem: 952 89 1358 122
VStem: 269 166
AnchorPoint: "top" 390 1456 basechar 0
LayerCount: 2
Fore
SplineSet
438 1082 m 257
 712 1082 l 257
 712 971 l 257
 438 971 l 257
 438 0 l 257
 256 0 l 257
 256 971 l 257
 67 971 l 257
 72 1065 l 257
 256 1079 l 257
 256 1162 l 258
 256 1458 369 1517 565 1517 c 258
 580 1517 l 258
 662 1517 728 1501 731 1500 c 257
 719 1376 l 257
 713 1377 649 1384 614 1384 c 256
 473 1384 438 1342 438 1162 c 258
 438 1082 l 257
EndSplineSet
EndChar

StartChar: five
Encoding: 53 53 217
Width: 1260
VWidth: 0
GlyphClass: 2
Flags: HW
PickledData: "(dp1
S'org.pippin.gimp.org.kernagic'
p2
(dp3
S'lstem'
p4
I0
sS'rstem'
p5
I0
ssS'com.typemytype.robofont.layerData'
p6
(dp7
sS'org.robofab.postScriptHintData'
p8
(dp9
s."
LayerCount: 2
Fore
SplineSet
665 798 m 256
 560 798 465 755 403 673 c 257
 255 697 l 257
 301 1456 l 257
 1046 1456 l 257
 1027 1311 l 257
 473 1311 l 257
 427 836 l 257
 497 899 581 937 694 937 c 256
 986 937 1136 706 1136 472 c 256
 1136 226 971 -20 627 -20 c 256
 401 -20 241 96 180 197 c 257
 286 300 l 257
 301 300 l 257
 380 191 478 135 625 135 c 256
 842 135 943 301 943 472 c 256
 943 638 845 798 665 798 c 256
EndSplineSet
EndChar

StartChar: florin
Encoding: 402 402 219
Width: 1033
VWidth: 0
GlyphClass: 2
Flags: HW
PickledData: "(dp1
S'org.robofab.postScriptHintData'
p2
(dp3
s."
LayerCount: 2
Fore
SplineSet
553 1244 m 258
 587 1420 679 1552 868 1552 c 256
 996 1552 1098 1494 1099 1302 c 257
 964 1302 l 257
 962 1406 937 1460 877 1460 c 258
 875 1460 l 258
 778 1460 751 1365 731 1261 c 258
 696 1077 l 257
 918 1077 l 257
 902 994 l 257
 678 994 l 257
 473 121 l 258
 414 -133 270 -271 99 -271 c 256
 66 -271 31 -266 -4 -255 c 257
 16 -168 l 257
 53 -175 83 -179 110 -179 c 256
 279 -179 264 -41 301 121 c 257
 508 994 l 257
 337 994 l 257
 354 1077 l 257
 521 1077 l 257
 553 1244 l 258
EndSplineSet
EndChar

StartChar: foundryicon
Encoding: 65540 -1 220
Width: 1347
VWidth: 0
GlyphClass: 2
Flags: HW
PickledData: "(dp1
S'org.robofab.postScriptHintData'
p2
(dp3
s."
LayerCount: 2
Fore
SplineSet
280 2 m 257
 423 461 l 257
 34 755 l 257
 519 755 l 257
 669 1215 l 257
 828 755 l 257
 1313 755 l 257
 922 461 l 257
 1066 2 l 257
 669 278 l 257
 280 2 l 257
485 405 m 257
 591 405 l 257
 591 552 l 257
 761 405 l 257
 867 405 l 257
 867 672 l 257
 761 672 l 257
 761 523 l 257
 591 672 l 257
 485 672 l 257
 485 405 l 257
EndSplineSet
EndChar

StartChar: four
Encoding: 52 52 221
Width: 1260
VWidth: 0
GlyphClass: 2
Flags: HW
PickledData: "(dp1
S'org.pippin.gimp.org.kernagic'
p2
(dp3
S'lstem'
p4
I0
sS'rstem'
p5
I0
ssS'com.typemytype.robofont.layerData'
p6
(dp7
sS'org.robofab.postScriptHintData'
p8
(dp9
s."
LayerCount: 2
Fore
SplineSet
316 517 m 257
 777 517 l 257
 777 1234 l 257
 316 517 l 257
777 0 m 257
 777 372 l 257
 181 372 l 257
 134 518 l 257
 761 1456 l 257
 960 1456 l 257
 960 518 l 257
 1133 518 l 257
 1121 372 l 257
 960 372 l 257
 960 0 l 257
 777 0 l 257
EndSplineSet
EndChar

StartChar: fraction
Encoding: 8260 8260 222
Width: 1043
VWidth: 0
GlyphClass: 2
Flags: HW
PickledData: "(dp1
S'org.robofab.postScriptHintData'
p2
(dp3
s."
LayerCount: 2
Fore
SplineSet
128 0 m 257
 776 1467 l 257
 929 1467 l 257
 278 0 l 257
 128 0 l 257
EndSplineSet
EndChar

StartChar: g
Encoding: 103 103 223
Width: 1206
VWidth: 0
GlyphClass: 2
Flags: HW
PickledData: "(dp1
S'org.pippin.gimp.org.kernagic'
p2
(dp3
S'lstem'
p4
I0
sS'rstem'
p5
I0
ssS'com.typemytype.robofont.layerData'
p6
(dp7
sS'com.fontlab.hintData'
p8
(dp9
S'vhints'
p10
((dp11
S'position'
p12
I128
sS'width'
p13
I122
s(dp14
g12
I977
sg13
I125
s(dp15
g12
I977
sg13
I36
stp16
sS'hhints'
p17
((dp18
g12
I-426
sg13
I101
s(dp19
g12
I0
sg13
I93
s(dp20
g12
I982
sg13
I92
stp21
ssS'org.robofab.postScriptHintData'
p22
(dp23
s."
HStem: -426 101 0 93 982 92
VStem: 128 122 977 125 977 36
AnchorPoint: "top" 603 1082 basechar 0
LayerCount: 2
Fore
SplineSet
598 115 m 256
 712 115 814 155 871 232 c 257
 871 836 l 257
 805 928 713 970 596 970 c 256
 399 970 299 811 299 547 c 256
 299 276 394 115 598 115 c 256
581 -18 m 256
 285 -18 113 198 113 546 c 256
 113 889 297 1106 585 1106 c 256
 722 1106 821 1048 883 972 c 257
 891 1082 l 257
 1046 1082 l 257
 1046 52 l 258
 1046 -310 911 -487 559 -487 c 256
 436 -487 315 -462 230 -431 c 257
 245 -289 l 257
 268 -289 l 257
 351 -324 464 -345 557 -345 c 256
 760 -345 875 -263 875 4 c 258
 875 11 l 257
 874 93 l 257
 793 8 678 -18 581 -18 c 256
EndSplineSet
EndChar

StartChar: germandbls
Encoding: 223 223 229
Width: 1283
VWidth: 0
GlyphClass: 2
Flags: HW
PickledData: "(dp1
S'org.pippin.gimp.org.kernagic'
p2
(dp3
S'lstem'
p4
I0
sS'rstem'
p5
I0
ssS'com.typemytype.robofont.layerData'
p6
(dp7
S'b'
(dp8
S'name'
p9
S'germandbls'
p10
sS'lib'
p11
(dp12
sS'unicodes'
p13
(tsS'width'
p14
I1278
sS'contours'
p15
(tsS'components'
p16
(tsS'anchors'
p17
(tsssS'org.robofab.postScriptHintData'
p18
(dp19
s."
LayerCount: 2
Fore
SplineSet
852 -20 m 256
 729 -20 591 16 509 57 c 257
 555 191 l 257
 609 162 718 124 825 124 c 256
 948 124 1000 204 1000 295 c 256
 1000 507 626 604 626 802 c 256
 626 970 827 1028 827 1232 c 256
 827 1339 759 1410 627 1410 c 256
 445 1410 346 1316 346 1079 c 258
 346 1 l 257
 165 1 l 257
 165 1080 l 258
 165 1374 323 1552 621 1552 c 256
 849 1552 999 1426 999 1232 c 256
 999 1015 790 907 790 818 c 256
 790 705 1180 597 1180 297 c 256
 1180 102 1058 -20 852 -20 c 256
EndSplineSet
EndChar

StartChar: grave
Encoding: 96 96 230
Width: 929
VWidth: 0
GlyphClass: 4
Flags: HW
PickledData: "(dp1
S'org.robofab.postScriptHintData'
p2
(dp3
sS'com.typemytype.robofont.layerData'
p4
(dp5
s."
AnchorPoint: "top" 474 1066 mark 0
LayerCount: 2
Fore
SplineSet
405 1209 m 257
 97 1586 l 257
 329 1586 l 257
 524 1209 l 257
 405 1209 l 257
EndSplineSet
EndChar

StartChar: greater
Encoding: 62 62 231
Width: 1107
VWidth: 0
GlyphClass: 2
Flags: HW
PickledData: "(dp1
S'org.pippin.gimp.org.kernagic'
p2
(dp3
S'lstem'
p4
I0
sS'rstem'
p5
I0
ssS'com.typemytype.robofont.layerData'
p6
(dp7
S'b'
(dp8
S'name'
p9
S'greater'
p10
sS'lib'
p11
(dp12
sS'unicodes'
p13
(tsS'width'
p14
I1107
sS'contours'
p15
(tsS'components'
p16
(tsS'anchors'
p17
(tsssS'org.robofab.postScriptHintData'
p18
(dp19
s."
LayerCount: 2
Fore
SplineSet
94 1033 m 257
 94 1185 l 257
 1024 689 l 257
 1024 595 l 257
 92 145 l 257
 92 300 l 257
 817 648 l 257
 94 1033 l 257
EndSplineSet
EndChar

StartChar: greaterequal
Encoding: 8805 8805 232
Width: 1192
VWidth: 0
GlyphClass: 2
Flags: HW
PickledData: "(dp1
S'org.pippin.gimp.org.kernagic'
p2
(dp3
S'lstem'
p4
I0
sS'rstem'
p5
I0
ssS'com.typemytype.robofont.layerData'
p6
(dp7
S'b'
(dp8
S'name'
p9
S'greaterequal'
p10
sS'lib'
p11
(dp12
sS'unicodes'
p13
(tsS'width'
p14
I1192
sS'contours'
p15
(tsS'components'
p16
(tsS'anchors'
p17
(tsssS'org.robofab.postScriptHintData'
p18
(dp19
s."
LayerCount: 2
Fore
SplineSet
129 8 m 257
 129 137 l 257
 1063 138 l 257
 1063 8 l 257
 129 8 l 257
157 234 m 257
 157 380 l 257
 865 758 l 257
 160 1161 l 257
 160 1309 l 257
 1045 800 l 257
 1045 715 l 257
 157 234 l 257
EndSplineSet
EndChar

StartChar: guillemotleft
Encoding: 171 171 233
Width: 999
VWidth: 0
GlyphClass: 2
Flags: HW
PickledData: "(dp1
S'org.pippin.gimp.org.kernagic'
p2
(dp3
S'lstem'
p4
I0
sS'rstem'
p5
I0
ssS'com.typemytype.robofont.layerData'
p6
(dp7
S'b'
(dp8
S'name'
p9
S'guillemotleft'
p10
sS'lib'
p11
(dp12
sS'unicodes'
p13
(tsS'width'
p14
I994
sS'contours'
p15
(tsS'components'
p16
(tsS'anchors'
p17
(tsssS'org.robofab.postScriptHintData'
p18
(dp19
s."
LayerCount: 2
Fore
SplineSet
729 146 m 257
 442 551 l 257
 732 959 l 257
 895 959 l 257
 614 554 l 257
 889 146 l 257
 729 146 l 257
369 146 m 257
 82 551 l 257
 373 959 l 257
 536 959 l 257
 255 554 l 257
 529 146 l 257
 369 146 l 257
EndSplineSet
EndChar

StartChar: guillemotright
Encoding: 187 187 234
Width: 999
VWidth: 0
GlyphClass: 2
Flags: HW
PickledData: "(dp1
S'org.pippin.gimp.org.kernagic'
p2
(dp3
S'lstem'
p4
I0
sS'rstem'
p5
I0
ssS'com.typemytype.robofont.layerData'
p6
(dp7
sS'org.robofab.postScriptHintData'
p8
(dp9
s."
LayerCount: 2
Fore
SplineSet
608 146 m 257
 449 146 l 257
 723 554 l 257
 443 959 l 257
 606 959 l 257
 896 552 l 257
 608 146 l 257
250 146 m 257
 90 146 l 257
 365 554 l 257
 85 959 l 257
 248 959 l 257
 537 552 l 257
 250 146 l 257
EndSplineSet
EndChar

StartChar: guilsinglleft
Encoding: 8249 8249 235
Width: 629
VWidth: 0
GlyphClass: 2
Flags: HW
PickledData: "(dp1
S'org.robofab.postScriptHintData'
p2
(dp3
s."
LayerCount: 2
Fore
SplineSet
380 150 m 257
 97 553 l 257
 384 961 l 257
 549 961 l 257
 267 556 l 257
 541 150 l 257
 380 150 l 257
EndSplineSet
EndChar

StartChar: guilsinglright
Encoding: 8250 8250 236
Width: 766
VWidth: 0
GlyphClass: 2
Flags: HW
PickledData: "(dp1
S'org.pippin.gimp.org.kernagic'
p2
(dp3
S'lstem'
p4
I0
sS'rstem'
p5
I0
ssS'com.typemytype.robofont.layerData'
p6
(dp7
S'b'
(dp8
S'name'
p9
S'guilsinglright'
p10
sS'lib'
p11
(dp12
sS'unicodes'
p13
(tsS'width'
p14
I766
sS'contours'
p15
(tsS'components'
p16
(tsS'anchors'
p17
(tsssS'org.robofab.postScriptHintData'
p18
(dp19
s."
LayerCount: 2
Fore
SplineSet
154 150 m 257
 432 571 l 257
 150 1000 l 257
 314 1000 l 257
 609 571 l 257
 317 150 l 257
 154 150 l 257
EndSplineSet
EndChar

StartChar: h
Encoding: 104 104 237
Width: 1209
VWidth: 0
GlyphClass: 2
Flags: HW
PickledData: "(dp1
S'org.pippin.gimp.org.kernagic'
p2
(dp3
S'lstem'
p4
I0
sS'rstem'
p5
I0
ssS'com.typemytype.robofont.layerData'
p6
(dp7
sS'com.fontlab.hintData'
p8
(dp9
S'vhints'
p10
((dp11
S'position'
p12
I193
sS'width'
p13
I122
s(dp14
g12
I910
sg13
I122
stp15
sS'hhints'
p16
((dp17
g12
I982
sg13
I92
stp18
ssS'org.robofab.postScriptHintData'
p19
(dp20
s."
HStem: 982 92
VStem: 193 122 910 122
AnchorPoint: "mid" 266 1281 basechar 0
AnchorPoint: "top" 666 1397 basechar 0
LayerCount: 2
Fore
SplineSet
167 0 m 257
 167 1540 l 257
 349 1560 l 257
 349 1147 l 257
 343 880 l 257
 417 1049 549 1106 700 1106 c 256
 933 1106 1061 947 1061 670 c 258
 1061 0 l 257
 877 0 l 257
 877 661 l 258
 877 868 818 970 663 970 c 256
 423 970 348 784 348 596 c 258
 348 0 l 257
 167 0 l 257
EndSplineSet
EndChar

StartChar: hungarumlaut
Encoding: 733 733 240
Width: 813
VWidth: 0
GlyphClass: 4
Flags: HW
PickledData: "(dp1
S'org.robofab.postScriptHintData'
p2
(dp3
sS'com.typemytype.robofont.layerData'
p4
(dp5
s."
AnchorPoint: "top" 346 1066 mark 0
LayerCount: 2
Fore
SplineSet
435 1247 m 257
 584 1598 l 257
 768 1598 l 257
 543 1247 l 257
 435 1247 l 257
157 1247 m 257
 288 1598 l 257
 455 1598 l 257
 268 1247 l 257
 157 1247 l 257
EndSplineSet
EndChar

StartChar: hyphen
Encoding: 45 45 241
Width: 862
VWidth: 0
GlyphClass: 4
Flags: HW
PickledData: "(dp1
S'org.pippin.gimp.org.kernagic'
p2
(dp3
S'lstem'
p4
I0
sS'rstem'
p5
I0
ssS'com.typemytype.robofont.layerData'
p6
(dp7
sS'org.robofab.postScriptHintData'
p8
(dp9
s."
AnchorPoint: "mid" 408 607 mark 0
LayerCount: 2
Fore
SplineSet
172 525 m 257
 172 666 l 257
 681 666 l 257
 681 525 l 257
 172 525 l 257
EndSplineSet
EndChar

StartChar: infinity
Encoding: 8734 8734 253
Width: 1659
VWidth: 0
GlyphClass: 2
Flags: HW
PickledData: "(dp1
S'org.pippin.gimp.org.kernagic'
p2
(dp3
S'lstem'
p4
I0
sS'rstem'
p5
I0
ssS'com.typemytype.robofont.layerData'
p6
(dp7
S'b'
(dp8
S'name'
p9
S'infinity'
p10
sS'lib'
p11
(dp12
sS'unicodes'
p13
(tsS'width'
p14
I1647
sS'contours'
p15
(tsS'components'
p16
(tsS'anchors'
p17
(tsssS'org.robofab.postScriptHintData'
p18
(dp19
s."
LayerCount: 2
Fore
SplineSet
1454 659 m 256
 1454 779 1362 882 1231 882 c 256
 1100 882 993 763 907 633 c 257
 1025 469 1114 382 1235 382 c 256
 1384 382 1454 504 1454 659 c 256
751 631 m 257
 661 775 553 882 417 882 c 256
 276 882 189 768 189 633 c 256
 189 507 283 382 424 382 c 256
 549 382 660 496 751 631 c 257
829 739 m 257
 941 898 1065 1012 1235 1012 c 256
 1457 1012 1581 855 1581 636 c 256
 1581 407 1428 248 1233 248 c 256
 1085 248 963 337 829 520 c 257
 712 361 585 248 422 248 c 256
 200 248 71 435 71 654 c 256
 71 854 225 1012 418 1012 c 256
 585 1012 709 903 829 739 c 257
EndSplineSet
EndChar

StartChar: integral
Encoding: 8747 8747 254
Width: 971
VWidth: 0
GlyphClass: 2
Flags: HW
PickledData: "(dp1
S'org.pippin.gimp.org.kernagic'
p2
(dp3
S'lstem'
p4
I0
sS'rstem'
p5
I0
ssS'com.typemytype.robofont.layerData'
p6
(dp7
S'b'
(dp8
S'name'
p9
S'integral'
p10
sS'lib'
p11
(dp12
sS'unicodes'
p13
(tsS'width'
p14
I994
sS'contours'
p15
(tsS'components'
p16
(tsS'anchors'
p17
(tsssS'org.robofab.postScriptHintData'
p18
(dp19
s."
LayerCount: 2
Fore
SplineSet
509 1156 m 258
 509 1401 575 1528 751 1528 c 256
 786 1528 827 1523 874 1512 c 257
 874 1407 l 257
 839 1418 809 1423 782 1423 c 256
 666 1423 641 1325 641 1165 c 258
 641 -32 l 258
 641 -282 561 -419 375 -419 c 256
 341 -419 301 -415 258 -405 c 257
 258 -295 l 257
 294 -305 327 -309 354 -309 c 256
 484 -309 509 -206 509 -40 c 258
 509 1156 l 258
EndSplineSet
EndChar

StartChar: k
Encoding: 107 107 259
Width: 1098
VWidth: 0
GlyphClass: 2
Flags: HW
PickledData: "(dp1
S'org.pippin.gimp.org.kernagic'
p2
(dp3
S'lstem'
p4
I0
sS'rstem'
p5
I671
ssS'com.typemytype.robofont.layerData'
p6
(dp7
sS'org.robofab.postScriptHintData'
p8
(dp9
s."
AnchorPoint: "bot" 596 0 basechar 0
LayerCount: 2
Fore
SplineSet
167 0 m 257
 167 1540 l 257
 349 1560 l 257
 349 765 l 257
 343 552 l 257
 837 1082 l 257
 1043 1082 l 257
 1043 1059 l 257
 599 591 l 257
 1075 25 l 257
 1075 0 l 257
 880 0 l 257
 470 504 l 257
 349 400 l 257
 349 0 l 257
 167 0 l 257
EndSplineSet
EndChar

StartChar: kgreenlandic
Encoding: 312 312 261
Width: 1089
VWidth: 0
GlyphClass: 2
Flags: HW
PickledData: "(dp1
S'org.robofab.postScriptHintData'
p2
(dp3
s."
LayerCount: 2
Fore
SplineSet
152 0 m 257
 152 1082 l 257
 326 1082 l 257
 326 765 l 257
 320 544 l 257
 819 1082 l 257
 1020 1082 l 257
 1020 1059 l 257
 574 589 l 257
 1053 22 l 257
 1053 0 l 257
 861 0 l 257
 450 501 l 257
 326 393 l 257
 326 0 l 257
 152 0 l 257
EndSplineSet
EndChar

StartChar: l
Encoding: 108 108 262
Width: 635
VWidth: 0
GlyphClass: 2
Flags: HW
PickledData: "(dp1
S'org.pippin.gimp.org.kernagic'
p2
(dp3
S'lstem'
p4
I0
sS'rstem'
p5
I238
ssS'com.typemytype.robofont.layerData'
p6
(dp7
sS'com.fontlab.hintData'
p8
(dp9
S'vhints'
p10
((dp11
S'position'
p12
I193
sS'width'
p13
I122
stp14
sS'hhints'
p15
((dp16
g12
I-11
sg13
I87
stp17
ssS'org.robofab.postScriptHintData'
p18
(dp19
s."
HStem: -11 87
VStem: 193 122
AnchorPoint: "mid" 291 808 basechar 0
AnchorPoint: "top" 343 1502 basechar 0
LayerCount: 2
Fore
SplineSet
468 -8 m 257
 463 -8 l 258
 270 -8 169 45 169 310 c 258
 169 1540 l 257
 350 1560 l 257
 350 312 l 258
 350 151 370 137 491 128 c 257
 553 124 l 257
 539 -8 l 257
 468 -8 l 257
EndSplineSet
EndChar

StartChar: less
Encoding: 60 60 267
Width: 1107
VWidth: 0
GlyphClass: 2
Flags: HW
PickledData: "(dp1
S'org.pippin.gimp.org.kernagic'
p2
(dp3
S'lstem'
p4
I0
sS'rstem'
p5
I0
ssS'com.typemytype.robofont.layerData'
p6
(dp7
S'b'
(dp8
S'name'
p9
S'less'
p10
sS'lib'
p11
(dp12
sS'unicodes'
p13
(tsS'width'
p14
I1107
sS'contours'
p15
(tsS'components'
p16
(tsS'anchors'
p17
(tsssS'org.robofab.postScriptHintData'
p18
(dp19
s."
LayerCount: 2
Fore
SplineSet
1009 140 m 257
 78 597 l 257
 78 690 l 257
 1009 1180 l 257
 1009 1028 l 257
 277 648 l 257
 1009 295 l 257
 1009 140 l 257
EndSplineSet
EndChar

StartChar: lessequal
Encoding: 8804 8804 268
Width: 1192
VWidth: 0
GlyphClass: 2
Flags: HW
PickledData: "(dp1
S'org.robofab.postScriptHintData'
p2
(dp3
sS'com.typemytype.robofont.layerData'
p4
(dp5
s."
LayerCount: 2
Fore
SplineSet
127 7 m 257
 127 137 l 257
 1061 136 l 257
 1061 7 l 257
 127 7 l 257
1034 244 m 257
 146 720 l 257
 146 805 l 257
 1030 1308 l 257
 1030 1161 l 257
 330 763 l 257
 1034 389 l 257
 1034 244 l 257
EndSplineSet
EndChar

StartChar: logicalnot
Encoding: 172 172 269
Width: 1244
VWidth: 0
GlyphClass: 2
Flags: HW
PickledData: "(dp1
S'org.pippin.gimp.org.kernagic'
p2
(dp3
S'lstem'
p4
I0
sS'rstem'
p5
I0
ssS'com.typemytype.robofont.layerData'
p6
(dp7
sS'org.robofab.postScriptHintData'
p8
(dp9
s."
LayerCount: 2
Fore
SplineSet
104 809 m 257
 1064 809 l 257
 1064 253 l 257
 935 253 l 257
 935 672 l 257
 104 672 l 257
 104 809 l 257
EndSplineSet
EndChar

StartChar: lozenge
Encoding: 9674 9674 270
Width: 1169
VWidth: 0
GlyphClass: 2
Flags: HW
PickledData: "(dp1
S'org.pippin.gimp.org.kernagic'
p2
(dp3
S'lstem'
p4
I0
sS'rstem'
p5
I0
ssS'com.typemytype.robofont.layerData'
p6
(dp7
S'b'
(dp8
S'name'
p9
S'lozenge'
p10
sS'lib'
p11
(dp12
sS'unicodes'
p13
(tsS'width'
p14
I1164
sS'contours'
p15
(tsS'components'
p16
(tsS'anchors'
p17
(tsssS'org.robofab.postScriptHintData'
p18
(dp19
s."
LayerCount: 2
Fore
SplineSet
901 764 m 257
 883 799 610 1355 592 1390 c 257
 573 1355 290 801 271 766 c 257
 289 731 567 170 585 135 c 257
 604 171 883 729 901 764 c 257
537 1579 m 257
 642 1579 l 257
 1053 766 l 257
 634 -47 l 257
 530 -47 l 257
 120 764 l 257
 537 1579 l 257
EndSplineSet
EndChar

StartChar: m
Encoding: 109 109 272
Width: 1832
VWidth: 0
GlyphClass: 2
Flags: HW
PickledData: "(dp1
S'org.pippin.gimp.org.kernagic'
p2
(dp3
S'lstem'
p4
I0
sS'rstem'
p5
I0
ssS'com.typemytype.robofont.layerData'
p6
(dp7
sS'com.fontlab.hintData'
p8
(dp9
S'vhints'
p10
((dp11
S'position'
p12
I193
sS'width'
p13
I122
s(dp14
g12
I193
sg13
I98
s(dp15
g12
I845
sg13
I122
s(dp16
g12
I1483
sg13
I122
stp17
sS'hhints'
p18
((dp19
g12
I982
sg13
I92
stp20
ssS'org.robofab.postScriptHintData'
p21
(dp22
s."
HStem: 982 92
VStem: 193 122 193 98 845 122 1483 122
AnchorPoint: "top" 959 1082 basechar 0
LayerCount: 2
Fore
SplineSet
1015 596 m 258
 1015 0 l 257
 833 0 l 257
 833 610 l 258
 833 860 775 970 629 970 c 256
 466 970 370 828 346 638 c 257
 346 0 l 257
 164 0 l 257
 164 1082 l 257
 316 1082 l 257
 335 870 l 257
 402 1035 524 1106 665 1106 c 256
 831 1106 941 1009 982 851 c 257
 1053 1026 1183 1106 1338 1106 c 256
 1560 1106 1683 963 1683 697 c 258
 1683 0 l 257
 1502 0 l 257
 1502 644 l 258
 1502 802 1474 970 1303 970 c 256
 1168 970 1015 836 1015 596 c 258
EndSplineSet
EndChar

StartChar: macron
Encoding: 175 175 273
Width: 1144
VWidth: 0
GlyphClass: 4
Flags: HW
PickledData: "(dp1
S'org.robofab.postScriptHintData'
p2
(dp3
sS'com.typemytype.robofont.layerData'
p4
(dp5
s."
AnchorPoint: "mid" 555 1374 mark 0
AnchorPoint: "top" 571 1066 mark 0
LayerCount: 2
Fore
SplineSet
265 1327 m 257
 265 1427 l 257
 849 1427 l 257
 849 1327 l 257
 265 1327 l 257
EndSplineSet
EndChar

StartChar: minus
Encoding: 8722 8722 275
Width: 1169
VWidth: 0
GlyphClass: 2
Flags: HW
PickledData: "(dp1
S'org.pippin.gimp.org.kernagic'
p2
(dp3
S'lstem'
p4
I0
sS'rstem'
p5
I0
ssS'com.typemytype.robofont.layerData'
p6
(dp7
sS'org.robofab.postScriptHintData'
p8
(dp9
s."
LayerCount: 2
Fore
SplineSet
104 666 m 257
 1070 666 l 257
 1070 522 l 257
 104 522 l 257
 104 666 l 257
EndSplineSet
EndChar

StartChar: multiply
Encoding: 215 215 276
Width: 994
VWidth: 0
GlyphClass: 2
Flags: HW
PickledData: "(dp1
S'org.pippin.gimp.org.kernagic'
p2
(dp3
S'lstem'
p4
I0
sS'rstem'
p5
I0
ssS'com.typemytype.robofont.layerData'
p6
(dp7
sS'org.robofab.postScriptHintData'
p8
(dp9
s."
LayerCount: 2
Fore
SplineSet
113 962 m 257
 209 1063 l 257
 493 755 l 257
 775 1060 l 257
 874 959 l 257
 589 653 l 257
 615 626 877 340 877 340 c 257
 784 238 l 257
 493 551 l 257
 200 238 l 257
 104 337 l 257
 397 653 l 257
 113 962 l 257
EndSplineSet
EndChar

StartChar: n
Encoding: 110 110 277
Width: 1204
VWidth: 0
GlyphClass: 2
Flags: HW
PickledData: "(dp1
S'org.pippin.gimp.org.kernagic'
p2
(dp3
S'lstem'
p4
I0
sS'rstem'
p5
I0
ssS'com.typemytype.robofont.layerData'
p6
(dp7
sS'com.fontlab.hintData'
p8
(dp9
S'vhints'
p10
((dp11
S'position'
p12
I193
sS'width'
p13
I122
s(dp14
g12
I903
sg13
I122
stp15
sS'hhints'
p16
((dp17
g12
I0
sg13
I22
s(dp18
g12
I982
sg13
I92
s(dp19
g12
I1034
sg13
I21
stp20
ssS'org.robofab.postScriptHintData'
p21
(dp22
s."
HStem: 0 22 982 92 1034 21
VStem: 193 122 903 122
AnchorPoint: "bot" 607 0 basechar 0
AnchorPoint: "top" 697 1082 basechar 0
LayerCount: 2
Fore
SplineSet
165 0 m 257
 165 1082 l 257
 316 1082 l 257
 335 871 l 257
 401 1031 524 1106 700 1106 c 256
 944 1106 1055 944 1055 652 c 258
 1055 0 l 257
 874 0 l 257
 874 665 l 258
 874 848 825 970 662 970 c 256
 439 970 347 807 347 612 c 258
 347 0 l 257
 165 0 l 257
EndSplineSet
EndChar

StartChar: nine
Encoding: 57 57 282
Width: 1260
VWidth: 0
GlyphClass: 2
Flags: HW
PickledData: "(dp1
S'org.pippin.gimp.org.kernagic'
p2
(dp3
S'lstem'
p4
I0
sS'rstem'
p5
I0
ssS'com.typemytype.robofont.layerData'
p6
(dp7
sS'org.robofab.postScriptHintData'
p8
(dp9
s."
LayerCount: 2
Fore
SplineSet
967 1017 m 256
 967 1186 858 1333 663 1333 c 256
 468 1333 354 1187 354 1016 c 256
 354 839 454 702 650 702 c 256
 783 702 967 780 967 1017 c 256
352 0 m 257
 352 22 l 257
 514 226 680 427 838 636 c 257
 768 590 682 564 601 564 c 256
 364 564 174 744 174 1015 c 256
 174 1275 370 1476 662 1476 c 256
 969 1476 1144 1254 1144 1006 c 256
 1144 792 1053 645 915 469 c 257
 551 0 l 257
 352 0 l 257
EndSplineSet
EndChar

StartChar: notequal
Encoding: 8800 8800 283
Width: 1089
VWidth: 0
GlyphClass: 2
Flags: HW
PickledData: "(dp1
S'org.pippin.gimp.org.kernagic'
p2
(dp3
S'lstem'
p4
I0
sS'rstem'
p5
I0
ssS'com.typemytype.robofont.layerData'
p6
(dp7
S'b'
(dp8
S'name'
p9
S'notequal'
p10
sS'lib'
p11
(dp12
sS'unicodes'
p13
(tsS'width'
p14
I1079
sS'contours'
p15
(tsS'components'
p16
(tsS'anchors'
p17
(tsssS'org.robofab.postScriptHintData'
p18
(dp19
s."
LayerCount: 2
Fore
SplineSet
315 47 m 257
 212 66 l 257
 328 350 l 257
 74 350 l 257
 67 475 l 257
 387 475 l 257
 539 782 l 257
 74 782 l 257
 66 908 l 257
 595 908 l 257
 732 1200 l 257
 836 1186 l 257
 722 908 l 257
 993 908 l 257
 1002 781 l 257
 668 781 l 257
 511 474 l 257
 995 474 l 257
 1002 350 l 257
 457 350 l 257
 315 47 l 257
EndSplineSet
EndChar

StartChar: numbersign
Encoding: 35 35 285
Width: 1159
VWidth: 0
GlyphClass: 2
Flags: HW
PickledData: "(dp1
S'org.pippin.gimp.org.kernagic'
p2
(dp3
S'lstem'
p4
I0
sS'rstem'
p5
I0
ssS'com.typemytype.robofont.layerData'
p6
(dp7
sS'org.robofab.postScriptHintData'
p8
(dp9
s."
LayerCount: 2
Fore
SplineSet
389 539 m 257
 686 539 l 257
 776 988 l 257
 480 988 l 257
 389 539 l 257
168 -18 m 257
 260 442 l 257
 65 442 l 257
 78 539 l 257
 279 539 l 257
 369 988 l 257
 173 988 l 257
 186 1083 l 257
 388 1083 l 257
 488 1550 l 257
 599 1550 l 257
 500 1083 l 257
 796 1083 l 257
 896 1550 l 257
 1003 1550 l 257
 904 1083 l 257
 1110 1083 l 257
 1094 988 l 257
 885 988 l 257
 795 539 l 257
 1015 539 l 257
 1000 442 l 257
 775 442 l 257
 683 -18 l 257
 575 -18 l 257
 666 442 l 257
 370 442 l 257
 278 -18 l 257
 168 -18 l 257
EndSplineSet
EndChar

StartChar: o
Encoding: 111 111 286
Width: 1205
VWidth: 0
GlyphClass: 2
Flags: HW
PickledData: "(dp1
S'org.pippin.gimp.org.kernagic'
p2
(dp3
S'lstem'
p4
I0
sS'rstem'
p5
I0
ssS'com.typemytype.robofont.guides'
p6
((dp7
S'y'
I1093
sS'x'
I582
sS'magnetic'
p8
I5
sS'angle'
p9
F90
sS'isGlobal'
p10
I00
stp11
sS'com.typemytype.robofont.layerData'
p12
(dp13
sS'com.fontlab.hintData'
p14
(dp15
S'vhints'
p16
((dp17
S'position'
p18
I128
sS'width'
p19
I120
s(dp20
g18
I982
sg19
I120
stp21
sS'hhints'
p22
((dp23
g18
I-19
sg19
I92
s(dp24
g18
I982
sg19
I92
stp25
ssS'org.robofab.postScriptHintData'
p26
(dp27
s."
HStem: -19 92 982 92
VStem: 128 120 982 120
AnchorPoint: "ogonek" 712 1 basechar 0
AnchorPoint: "top" 603 1082 basechar 0
LayerCount: 2
Fore
SplineSet
603 -20 m 256
 288 -20 113 206 113 542 c 256
 113 885 285 1106 603 1106 c 256
 920 1106 1092 885 1092 542 c 256
 1092 206 917 -20 603 -20 c 256
603 115 m 256
 814 115 905 295 905 541 c 256
 905 793 813 970 603 970 c 256
 392 970 300 793 300 541 c 256
 300 295 391 115 603 115 c 256
EndSplineSet
EndChar

StartChar: oe
Encoding: 339 339 291
Width: 1909
VWidth: 0
GlyphClass: 2
Flags: HW
PickledData: "(dp1
S'org.pippin.gimp.org.kernagic'
p2
(dp3
S'lstem'
p4
I0
sS'rstem'
p5
I0
ssS'com.typemytype.robofont.layerData'
p6
(dp7
S'b'
(dp8
S'name'
p9
S'oe'
p10
sS'lib'
p11
(dp12
sS'unicodes'
p13
(tsS'width'
p14
F1915.3599999999999
sS'contours'
p15
(tsS'components'
p16
(tsS'anchors'
p17
(tsssS'org.robofab.postScriptHintData'
p18
(dp19
s."
LayerCount: 2
Fore
SplineSet
1083 626 m 257
 1661 626 l 257
 1657 846 1574 972 1401 972 c 256
 1228 972 1102 840 1083 626 c 257
594 115 m 256
 808 115 900 295 900 541 c 256
 900 792 808 971 594 971 c 256
 380 971 287 792 287 541 c 256
 287 295 379 115 594 115 c 256
1811 621 m 258
 1811 599 l 258
 1811 567 1803 509 1803 509 c 257
 1080 509 l 257
 1083 224 1248 115 1438 115 c 256
 1562 115 1643 155 1728 206 c 257
 1740 206 l 257
 1782 86 l 257
 1696 26 1570 -19 1419 -20 c 256
 1242 -20 1060 87 995 244 c 257
 944 91 779 -20 594 -20 c 256
 282 -20 107 206 107 542 c 256
 107 885 278 1105 594 1105 c 256
 781 1105 937 1006 997 852 c 257
 1065 1007 1231 1105 1393 1105 c 256
 1654 1105 1811 921 1811 621 c 258
EndSplineSet
EndChar

StartChar: ogonek
Encoding: 731 731 292
Width: 766
VWidth: 0
GlyphClass: 4
Flags: HW
PickledData: "(dp1
S'org.pippin.gimp.org.kernagic'
p2
(dp3
S'lstem'
p4
I0
sS'rstem'
p5
I0
ssS'com.typemytype.robofont.layerData'
p6
(dp7
sS'org.robofab.postScriptHintData'
p8
(dp9
s."
AnchorPoint: "ogonek" 492 0 mark 0
LayerCount: 2
Fore
SplineSet
442 -423 m 256
 318 -423 251 -364 251 -269 c 256
 251 -153 354 -38 455 4 c 257
 539 4 l 257
 478 -41 396 -152 396 -228 c 256
 396 -284 433 -308 478 -308 c 256
 521 -308 570 -291 588 -283 c 257
 591 -392 l 257
 556 -408 493 -423 442 -423 c 256
EndSplineSet
EndChar

StartChar: one
Encoding: 49 49 296
Width: 1260
VWidth: 0
GlyphClass: 2
Flags: HW
PickledData: "(dp1
S'org.pippin.gimp.org.kernagic'
p2
(dp3
S'lstem'
p4
I0
sS'rstem'
p5
I0
ssS'com.typemytype.robofont.layerData'
p6
(dp7
sS'org.robofab.postScriptHintData'
p8
(dp9
s."
LayerCount: 2
Fore
SplineSet
198 0 m 257
 198 135 l 257
 587 135 l 257
 587 1287 l 257
 475 1226 286 1164 209 1153 c 257
 209 1298 l 257
 297 1318 525 1400 604 1456 c 257
 773 1456 l 257
 773 135 l 257
 1120 135 l 257
 1120 0 l 257
 198 0 l 257
EndSplineSet
EndChar

StartChar: onehalf
Encoding: 189 189 297
Width: 1771
VWidth: 0
GlyphClass: 2
Flags: HW
PickledData: "(dp1
S'org.pippin.gimp.org.kernagic'
p2
(dp3
S'lstem'
p4
I0
sS'rstem'
p5
I0
ssS'com.typemytype.robofont.layerData'
p6
(dp7
sS'org.robofab.postScriptHintData'
p8
(dp9
s."
LayerCount: 2
Fore
SplineSet
376 0 m 257
 1292 1479 l 257
 1430 1479 l 257
 515 0 l 257
 376 0 l 257
137 594 m 257
 137 709 l 257
 286 709 l 257
 286 1332 l 257
 249 1309 154 1269 128 1258 c 257
 128 1375 l 257
 160 1389 275 1442 316 1479 c 257
 430 1479 l 257
 430 709 l 257
 570 709 l 257
 570 594 l 257
 137 594 l 257
1154 0 m 257
 1151 113 l 257
 1400 366 l 258
 1509 478 1540 538 1540 607 c 256
 1540 702 1471 748 1390 748 c 256
 1312 748 1242 712 1185 634 c 257
 1110 716 l 257
 1164 811 1274 872 1393 872 c 256
 1553 872 1679 778 1679 614 c 256
 1679 479 1619 402 1493 284 c 258
 1316 118 l 257
 1671 118 l 257
 1665 0 l 257
 1154 0 l 257
EndSplineSet
EndChar

StartChar: onequarter
Encoding: 188 188 298
Width: 1739
VWidth: 0
GlyphClass: 2
Flags: HW
PickledData: "(dp1
S'org.pippin.gimp.org.kernagic'
p2
(dp3
S'lstem'
p4
I0
sS'rstem'
p5
I0
ssS'com.typemytype.robofont.layerData'
p6
(dp7
sS'org.robofab.postScriptHintData'
p8
(dp9
s."
LayerCount: 2
Fore
SplineSet
1136 300 m 257
 1393 300 l 257
 1393 686 l 257
 1136 300 l 257
376 0 m 257
 1293 1479 l 257
 1432 1479 l 257
 517 0 l 257
 376 0 l 257
1394 0 m 257
 1394 190 l 257
 993 190 l 257
 993 288 l 257
 1384 859 l 257
 1526 859 l 257
 1526 300 l 257
 1639 300 l 257
 1645 190 l 257
 1525 190 l 257
 1525 0 l 257
 1394 0 l 257
133 594 m 257
 133 711 l 257
 282 711 l 257
 282 1329 l 257
 245 1306 149 1267 123 1255 c 257
 123 1375 l 257
 155 1389 270 1442 310 1479 c 257
 425 1479 l 257
 425 711 l 257
 563 711 l 257
 563 594 l 257
 133 594 l 257
EndSplineSet
EndChar

StartChar: ordmasculine
Encoding: 186 186 300
Width: 965
VWidth: 0
GlyphClass: 2
Flags: HW
PickledData: "(dp1
S'org.pippin.gimp.org.kernagic'
p2
(dp3
S'lstem'
p4
I0
sS'rstem'
p5
I0
ssS'com.typemytype.robofont.layerData'
p6
(dp7
S'b'
(dp8
S'name'
p9
S'ordmasculine'
p10
sS'lib'
p11
(dp12
sS'unicodes'
p13
(tsS'width'
p14
I965
sS'contours'
p15
(tsS'components'
p16
(tsS'anchors'
p17
(tsssS'org.robofab.postScriptHintData'
p18
(dp19
s."
LayerCount: 2
Fore
SplineSet
683 1093 m 256
 683 1266 613 1370 480 1370 c 256
 351 1370 285 1268 285 1096 c 256
 285 926 350 827 480 827 c 256
 618 827 683 925 683 1093 c 256
141 1096 m 256
 141 1319 260 1484 480 1484 c 256
 706 1484 820 1322 820 1096 c 256
 820 880 688 713 480 713 c 256
 260 713 141 877 141 1096 c 256
EndSplineSet
EndChar

StartChar: oslash
Encoding: 248 248 301
Width: 1205
VWidth: 0
GlyphClass: 2
Flags: HW
PickledData: "(dp1
S'org.pippin.gimp.org.kernagic'
p2
(dp3
S'lstem'
p4
I0
sS'rstem'
p5
I0
ssS'com.typemytype.robofont.layerData'
p6
(dp7
sS'org.robofab.postScriptHintData'
p8
(dp9
s."
LayerCount: 2
Fore
SplineSet
749 932 m 1
 377 228 l 1
 324 304 300 414 300 541 c 0
 300 793 392 970 603 970 c 0
 660 970 709 956 749 932 c 1
812 878 m 1
 876 802 905 684 905 541 c 0
 905 295 814 115 603 115 c 0
 534 115 478 134 434 168 c 1
 812 878 l 1
191 -124 m 1
 257 -163 l 1
 363 35 l 1
 430 -1 511 -20 603 -20 c 0
 917 -20 1092 206 1092 542 c 0
 1092 761 1022 930 889 1024 c 1
 984 1201 l 1
 912 1240 l 1
 819 1064 l 1
 757 1092 685 1106 603 1106 c 0
 285 1106 113 885 113 542 c 0
 113 338 177 175 298 78 c 1
 191 -124 l 1
EndSplineSet
EndChar

StartChar: p
Encoding: 112 112 304
Width: 1212
VWidth: 0
GlyphClass: 2
Flags: HW
PickledData: "(dp1
S'org.pippin.gimp.org.kernagic'
p2
(dp3
S'lstem'
p4
I0
sS'rstem'
p5
I0
ssS'com.typemytype.robofont.layerData'
p6
(dp7
sS'com.fontlab.hintData'
p8
(dp9
S'vhints'
p10
((dp11
S'position'
p12
I193
sS'width'
p13
I122
s(dp14
g12
I193
sg13
I97
s(dp15
g12
I1009
sg13
I122
stp16
sS'hhints'
p17
((dp18
g12
I-19
sg13
I92
s(dp19
g12
I982
sg13
I92
stp20
ssS'org.robofab.postScriptHintData'
p21
(dp22
s."
HStem: -19 92 982 92
VStem: 193 122 193 97 1009 122
AnchorPoint: "top" 666 1082 basechar 0
LayerCount: 2
Fore
SplineSet
625 115 m 256
 824 115 912 276 912 542 c 256
 912 792 847 970 644 970 c 256
 430 970 342 810 340 575 c 257
 340 250 l 257
 406 159 508 115 625 115 c 256
165 -458 m 257
 165 1082 l 257
 317 1082 l 257
 334 859 l 257
 387 1023 508 1106 670 1106 c 256
 963 1106 1099 877 1099 540 c 256
 1099 211 925 -20 641 -20 c 256
 509 -20 408 21 341 89 c 257
 346 -67 l 257
 346 -458 l 257
 165 -458 l 257
EndSplineSet
EndChar

StartChar: paragraph
Encoding: 182 182 305
Width: 1146
VWidth: 0
GlyphClass: 2
Flags: HW
PickledData: "(dp1
S'org.pippin.gimp.org.kernagic'
p2
(dp3
S'lstem'
p4
I0
sS'rstem'
p5
I0
ssS'com.typemytype.robofont.layerData'
p6
(dp7
sS'org.robofab.postScriptHintData'
p8
(dp9
s."
LayerCount: 2
Fore
SplineSet
645 1331 m 257
 645 -205 l 257
 516 -205 l 257
 516 763 l 257
 235 763 131 934 131 1111 c 256
 131 1281 229 1456 557 1456 c 258
 914 1456 l 257
 914 -205 l 257
 785 -205 l 257
 785 1331 l 257
 645 1331 l 257
EndSplineSet
EndChar

StartChar: parenleft
Encoding: 40 40 306
Width: 776
VWidth: 0
GlyphClass: 2
Flags: HW
PickledData: "(dp1
S'org.pippin.gimp.org.kernagic'
p2
(dp3
S'lstem'
p4
I0
sS'rstem'
p5
I0
ssS'com.typemytype.robofont.layerData'
p6
(dp7
S'b'
(dp8
S'name'
p9
S'parenright'
p10
sS'lib'
p11
(dp12
sS'unicodes'
p13
(tsS'width'
p14
I766
sS'contours'
p15
(tsS'components'
p16
(tsS'anchors'
p17
(tsssS'org.robofab.postScriptHintData'
p18
(dp19
s."
LayerCount: 2
Fore
SplineSet
212 677 m 256
 212 1004 305 1324 471 1591 c 257
 618 1591 l 257
 618 1556 l 257
 446 1273 371 985 371 677 c 256
 371 369 446 81 618 -203 c 257
 618 -236 l 257
 471 -236 l 257
 305 30 212 351 212 677 c 256
EndSplineSet
EndChar

StartChar: parenright
Encoding: 41 41 307
Width: 776
VWidth: 0
GlyphClass: 2
Flags: HW
PickledData: "(dp1
S'org.pippin.gimp.org.kernagic'
p2
(dp3
S'lstem'
p4
I0
sS'rstem'
p5
I0
ssS'com.typemytype.robofont.layerData'
p6
(dp7
S'b'
(dp8
S'name'
p9
S'parenright'
p10
sS'lib'
p11
(dp12
sS'unicodes'
p13
(tsS'width'
p14
I766
sS'contours'
p15
(tsS'components'
p16
(tsS'anchors'
p17
(tsssS'org.robofab.postScriptHintData'
p18
(dp19
s."
LayerCount: 2
Fore
SplineSet
570 677 m 256
 570 351 477 30 311 -236 c 257
 164 -236 l 257
 164 -203 l 257
 336 81 411 369 411 677 c 256
 411 985 336 1273 164 1556 c 257
 164 1591 l 257
 311 1591 l 257
 477 1324 570 1004 570 677 c 256
EndSplineSet
EndChar

StartChar: partialdiff
Encoding: 8706 8706 308
Width: 1183
VWidth: 0
GlyphClass: 2
Flags: HW
PickledData: "(dp1
S'org.robofab.postScriptHintData'
p2
(dp3
s."
LayerCount: 2
Fore
SplineSet
485 89 m 256
 738 89 849 542 868 829 c 257
 540 816 364 480 364 265 c 256
 364 163 404 89 485 89 c 256
471 -19 m 256
 262 -19 164 119 164 289 c 256
 164 563 418 920 873 922 c 257
 874 937 874 952 874 966 c 256
 874 1257 705 1431 487 1431 c 256
 421 1431 349 1415 277 1381 c 257
 238 1480 l 257
 337 1534 436 1560 529 1560 c 256
 816 1560 1047 1317 1047 908 c 256
 1047 382 814 -19 471 -19 c 256
EndSplineSet
EndChar

StartChar: percent
Encoding: 37 37 309
Width: 1623
VWidth: 0
GlyphClass: 2
Flags: HW
PickledData: "(dp1
S'org.pippin.gimp.org.kernagic'
p2
(dp3
S'lstem'
p4
I0
sS'rstem'
p5
I0
ssS'com.typemytype.robofont.layerData'
p6
(dp7
S'b'
(dp8
S'name'
p9
S'percent'
p10
sS'lib'
p11
(dp12
sS'unicodes'
p13
(tsS'width'
p14
I1563
sS'contours'
p15
(tsS'components'
p16
(tsS'anchors'
p17
(tsssS'org.robofab.postScriptHintData'
p18
(dp19
s."
LayerCount: 2
Fore
SplineSet
1157 -4 m 256
 929 -4 847 164 847 381 c 256
 847 599 933 765 1157 765 c 256
 1387 765 1469 602 1469 381 c 256
 1469 164 1384 -4 1157 -4 c 256
1159 100 m 256
 1311 100 1343 224 1343 382 c 256
 1343 546 1310 660 1159 660 c 256
 1006 660 974 540 974 382 c 256
 974 220 1006 100 1159 100 c 256
281 0 m 257
 1112 1463 l 257
 1245 1463 l 257
 423 0 l 257
 281 0 l 257
370 715 m 256
 142 715 68 883 68 1100 c 256
 68 1318 146 1483 370 1483 c 256
 600 1483 682 1321 682 1100 c 256
 682 883 597 715 370 715 c 256
372 819 m 256
 524 819 556 943 556 1101 c 256
 556 1264 523 1379 372 1379 c 256
 219 1379 187 1259 187 1101 c 256
 187 938 219 819 372 819 c 256
EndSplineSet
EndChar

StartChar: period
Encoding: 46 46 310
Width: 634
VWidth: 0
GlyphClass: 2
Flags: HW
PickledData: "(dp1
S'org.pippin.gimp.org.kernagic'
p2
(dp3
S'lstem'
p4
I0
sS'rstem'
p5
I0
ssS'com.typemytype.robofont.layerData'
p6
(dp7
S'b'
(dp8
S'name'
p9
S'period'
p10
sS'lib'
p11
(dp12
sS'unicodes'
p13
(tsS'width'
p14
I624
sS'contours'
p15
(tsS'components'
p16
(tsS'anchors'
p17
(tsssS'org.robofab.postScriptHintData'
p18
(dp19
s."
LayerCount: 2
Fore
SplineSet
320 -11 m 256
 244 -11 212 33 212 112 c 256
 212 189 244 232 320 232 c 256
 392 232 426 189 426 112 c 256
 426 33 392 -11 320 -11 c 256
EndSplineSet
EndChar

StartChar: periodcentered
Encoding: 183 183 311
Width: 648
VWidth: 0
GlyphClass: 2
Flags: HW
PickledData: "(dp1
S'org.pippin.gimp.org.kernagic'
p2
(dp3
S'lstem'
p4
I0
sS'rstem'
p5
I0
ssS'com.typemytype.robofont.layerData'
p6
(dp7
S'b'
(dp8
S'name'
p9
S'periodcentered'
p10
sS'lib'
p11
(dp12
sS'unicodes'
p13
(tsS'width'
p14
I653
sS'contours'
p15
(tsS'components'
p16
(tsS'anchors'
p17
(tsssS'org.robofab.postScriptHintData'
p18
(dp19
s."
LayerCount: 2
Fore
SplineSet
334 508 m 256
 266 508 217 555 217 624 c 256
 217 692 266 738 334 738 c 256
 401 738 450 692 450 624 c 256
 450 555 401 508 334 508 c 256
EndSplineSet
EndChar

StartChar: perthousand
Encoding: 8240 8240 312
Width: 2339
VWidth: 0
GlyphClass: 2
Flags: HW
PickledData: "(dp1
S'org.pippin.gimp.org.kernagic'
p2
(dp3
S'lstem'
p4
I0
sS'rstem'
p5
I0
ssS'com.typemytype.robofont.layerData'
p6
(dp7
S'b'
(dp8
S'name'
p9
S'perthousand'
p10
sS'lib'
p11
(dp12
sS'unicodes'
p13
(tsS'width'
p14
I2251
sS'contours'
p15
(tsS'components'
p16
(tsS'anchors'
p17
(tsssS'org.robofab.postScriptHintData'
p18
(dp19
s."
LayerCount: 2
Fore
SplineSet
1873 -4 m 256
 1645 -4 1563 164 1563 381 c 256
 1563 599 1649 765 1873 765 c 256
 2103 765 2184 602 2184 381 c 256
 2184 164 2100 -4 1873 -4 c 256
1875 100 m 256
 2027 100 2058 224 2058 382 c 256
 2058 546 2026 660 1875 660 c 256
 1722 660 1689 540 1689 382 c 256
 1689 220 1722 100 1875 100 c 256
EndSplineSet
Refer: 309 37 N 1 0 0 1 14 0 2
EndChar

StartChar: pi
Encoding: 960 960 313
Width: 1445
VWidth: 0
GlyphClass: 2
Flags: HW
PickledData: "(dp1
S'org.robofab.postScriptHintData'
p2
(dp3
sS'com.typemytype.robofont.layerData'
p4
(dp5
s."
LayerCount: 2
Fore
SplineSet
1143 -13 m 256
 964 -13 903 97 903 281 c 256
 903 443 945 675 977 906 c 257
 598 906 l 257
 572 332 l 258
 562 108 489 4 135 4 c 257
 135 115 l 257
 258 115 387 176 415 398 c 258
 480 906 l 257
 355 906 l 258
 274 906 233 849 221 771 c 257
 123 771 l 257
 123 992 198 1082 441 1082 c 258
 1350 1082 l 257
 1350 906 l 257
 1109 906 l 257
 1084 718 1073 549 1073 434 c 256
 1073 233 1118 142 1197 142 c 256
 1239 142 1295 166 1324 176 c 257
 1324 45 l 257
 1289 11 1222 -13 1143 -13 c 256
EndSplineSet
EndChar

StartChar: plus
Encoding: 43 43 314
Width: 1141
VWidth: 0
GlyphClass: 2
Flags: HW
PickledData: "(dp1
S'org.pippin.gimp.org.kernagic'
p2
(dp3
S'lstem'
p4
I0
sS'rstem'
p5
I0
ssS'com.typemytype.robofont.layerData'
p6
(dp7
S'b'
(dp8
S'name'
p9
S'plus'
p10
sS'lib'
p11
(dp12
sS'unicodes'
p13
(tsS'width'
p14
I1136
sS'contours'
p15
(tsS'components'
p16
(tsS'anchors'
p17
(tsssS'org.robofab.postScriptHintData'
p18
(dp19
s."
LayerCount: 2
Fore
SplineSet
476 1163 m 257
 654 1163 l 257
 654 785 l 257
 1009 785 l 257
 1009 612 l 257
 654 612 l 257
 654 228 l 257
 475 228 l 257
 475 612 l 257
 117 612 l 257
 117 785 l 257
 476 785 l 257
 476 1163 l 257
EndSplineSet
EndChar

StartChar: plusminus
Encoding: 177 177 315
Width: 1136
VWidth: 0
GlyphClass: 2
Flags: HW
PickledData: "(dp1
S'org.pippin.gimp.org.kernagic'
p2
(dp3
S'lstem'
p4
I0
sS'rstem'
p5
I0
ssS'com.typemytype.robofont.layerData'
p6
(dp7
sS'org.robofab.postScriptHintData'
p8
(dp9
s."
LayerCount: 2
Fore
SplineSet
105 126 m 257
 1035 126 l 257
 1035 0 l 257
 105 0 l 257
 105 126 l 257
494 1127 m 257
 629 1127 l 257
 629 743 l 257
 994 743 l 257
 994 614 l 257
 630 614 l 257
 630 222 l 257
 494 222 l 257
 494 614 l 257
 124 614 l 257
 124 743 l 257
 494 743 l 257
 494 1127 l 257
EndSplineSet
EndChar

StartChar: product
Encoding: 8719 8719 316
Width: 1538
VWidth: 0
GlyphClass: 2
Flags: HW
PickledData: "(dp1
S'org.pippin.gimp.org.kernagic'
p2
(dp3
S'lstem'
p4
I0
sS'rstem'
p5
I0
ssS'com.typemytype.robofont.layerData'
p6
(dp7
S'b'
(dp8
S'name'
p9
S'product'
p10
sS'lib'
p11
(dp12
sS'unicodes'
p13
(tsS'width'
p14
I1533
sS'contours'
p15
(tsS'components'
p16
(tsS'anchors'
p17
(tsssS'org.robofab.postScriptHintData'
p18
(dp19
s."
LayerCount: 2
Fore
SplineSet
199 1500 m 257
 1341 1500 l 257
 1341 0 l 257
 1168 0 l 257
 1168 1349 l 257
 372 1349 l 257
 372 0 l 257
 199 0 l 257
 199 1500 l 257
EndSplineSet
EndChar

StartChar: q
Encoding: 113 113 317
Width: 1206
VWidth: 0
GlyphClass: 2
Flags: HW
PickledData: "(dp1
S'org.pippin.gimp.org.kernagic'
p2
(dp3
S'lstem'
p4
I0
sS'rstem'
p5
I0
ssS'com.typemytype.robofont.layerData'
p6
(dp7
sS'org.robofab.postScriptHintData'
p8
(dp9
s."
LayerCount: 2
Fore
SplineSet
594 115 m 256
 710 115 811 156 868 234 c 257
 868 834 l 257
 802 927 708 970 591 970 c 256
 393 970 296 809 296 545 c 256
 296 271 392 115 594 115 c 256
578 -20 m 256
 272 -20 109 208 109 545 c 256
 109 880 285 1106 580 1106 c 256
 720 1106 820 1045 882 963 c 257
 890 1082 l 257
 1043 1082 l 257
 1043 -458 l 257
 862 -458 l 257
 862 -22 l 257
 865 88 l 257
 783 5 669 -20 578 -20 c 256
EndSplineSet
EndChar

StartChar: question
Encoding: 63 63 318
Width: 923
VWidth: 0
GlyphClass: 2
Flags: HW
PickledData: "(dp1
S'org.pippin.gimp.org.kernagic'
p2
(dp3
S'lstem'
p4
I0
sS'rstem'
p5
I0
ssS'com.typemytype.robofont.layerData'
p6
(dp7
sS'org.robofab.postScriptHintData'
p8
(dp9
s."
LayerCount: 2
Fore
SplineSet
371 -14 m 256
 290 -14 251 43 251 105 c 256
 251 165 290 222 371 222 c 256
 451 222 488 165 488 105 c 256
 488 41 451 -14 371 -14 c 256
331 431 m 257
 351 744 591 912 591 1124 c 256
 591 1264 521 1334 397 1334 c 256
 294 1334 199 1278 154 1248 c 257
 116 1385 l 257
 192 1444 295 1484 419 1484 c 256
 602 1484 765 1384 765 1139 c 256
 765 835 522 788 414 429 c 257
 331 431 l 257
EndSplineSet
EndChar

StartChar: quotedbl
Encoding: 34 34 320
Width: 703
VWidth: 0
GlyphClass: 2
Flags: HW
PickledData: "(dp1
S'org.robofab.postScriptHintData'
p2
(dp3
sS'com.typemytype.robofont.layerData'
p4
(dp5
s."
LayerCount: 2
Fore
SplineSet
469 996 m 257
 407 1529 l 257
 597 1529 l 257
 559 996 l 257
 469 996 l 257
170 996 m 257
 107 1529 l 257
 297 1529 l 257
 259 996 l 257
 170 996 l 257
EndSplineSet
EndChar

StartChar: quotedblbase
Encoding: 8222 8222 321
Width: 765
VWidth: 0
GlyphClass: 2
Flags: HW
PickledData: "(dp1
S'org.robofab.postScriptHintData'
p2
(dp3
s."
LayerCount: 2
Fore
SplineSet
419 -313 m 257
 467 161 l 257
 646 161 l 257
 536 -313 l 257
 419 -313 l 257
109 -313 m 257
 160 161 l 257
 335 161 l 257
 229 -313 l 257
 109 -313 l 257
EndSplineSet
EndChar

StartChar: quotedblleft
Encoding: 8220 8220 322
Width: 906
VWidth: 0
GlyphClass: 2
Flags: HW
PickledData: "(dp1
S'org.robofab.postScriptHintData'
p2
(dp3
sS'com.typemytype.robofont.layerData'
p4
(dp5
s."
LayerCount: 2
Fore
SplineSet
512 1019 m 257
 621 1503 l 257
 751 1503 l 257
 705 1019 l 257
 512 1019 l 257
158 1019 m 257
 268 1503 l 257
 397 1503 l 257
 351 1019 l 257
 158 1019 l 257
EndSplineSet
EndChar

StartChar: quotedblright
Encoding: 8221 8221 323
Width: 906
VWidth: 0
GlyphClass: 2
Flags: HW
PickledData: "(dp1
S'org.robofab.postScriptHintData'
p2
(dp3
sS'com.typemytype.robofont.layerData'
p4
(dp5
s."
LayerCount: 2
Fore
SplineSet
158 1019 m 257
 204 1503 l 257
 397 1503 l 257
 288 1019 l 257
 158 1019 l 257
512 1019 m 257
 558 1503 l 257
 751 1503 l 257
 641 1019 l 257
 512 1019 l 257
EndSplineSet
EndChar

StartChar: quoteleft
Encoding: 8216 8216 324
Width: 525
VWidth: 0
GlyphClass: 2
Flags: HW
PickledData: "(dp1
S'org.robofab.postScriptHintData'
p2
(dp3
sS'com.typemytype.robofont.layerData'
p4
(dp5
s."
LayerCount: 2
Fore
SplineSet
397 1503 m 257
 351 1019 l 257
 158 1019 l 257
 268 1503 l 257
 397 1503 l 257
EndSplineSet
EndChar

StartChar: quoteright
Encoding: 8217 8217 325
Width: 525
VWidth: 0
GlyphClass: 2
Flags: HW
PickledData: "(dp1
S'org.robofab.postScriptHintData'
p2
(dp3
sS'com.typemytype.robofont.layerData'
p4
(dp5
s."
LayerCount: 2
Fore
SplineSet
158 1019 m 257
 204 1503 l 257
 397 1503 l 257
 288 1019 l 257
 158 1019 l 257
EndSplineSet
EndChar

StartChar: quotesinglbase
Encoding: 8218 8218 326
Width: 459
VWidth: 0
GlyphClass: 2
Flags: HW
PickledData: "(dp1
S'org.robofab.postScriptHintData'
p2
(dp3
s."
LayerCount: 2
Fore
SplineSet
99 -313 m 257
 153 161 l 257
 333 161 l 257
 221 -313 l 257
 99 -313 l 257
EndSplineSet
EndChar

StartChar: quotesingle
Encoding: 39 39 327
Width: 415
VWidth: 0
GlyphClass: 2
Flags: HW
PickledData: "(dp1
S'org.robofab.postScriptHintData'
p2
(dp3
s."
LayerCount: 2
Fore
SplineSet
152 957 m 257
 103 1503 l 257
 284 1503 l 257
 256 957 l 257
 152 957 l 257
EndSplineSet
EndChar

StartChar: r
Encoding: 114 114 328
Width: 777
VWidth: 0
GlyphClass: 2
Flags: HW
PickledData: "(dp1
S'org.pippin.gimp.org.kernagic'
p2
(dp3
S'lstem'
p4
I0
sS'rstem'
p5
I352
ssS'com.typemytype.robofont.layerData'
p6
(dp7
sS'com.fontlab.hintData'
p8
(dp9
S'vhints'
p10
((dp11
S'position'
p12
I193
sS'width'
p13
I122
s(dp14
g12
I193
sg13
I92
stp15
sS'hhints'
p16
((dp17
g12
I974
sg13
I94
stp18
ssS'org.robofab.postScriptHintData'
p19
(dp20
s."
HStem: 974 94
VStem: 193 122 193 92
AnchorPoint: "bot" 290 0 basechar 0
AnchorPoint: "top" 459 1082 basechar 0
LayerCount: 2
Fore
SplineSet
166 0 m 257
 166 1082 l 257
 313 1082 l 257
 331 857 l 257
 405 1035 520 1095 643 1095 c 256
 672 1095 696 1094 722 1090 c 257
 708 946 l 257
 669 947 l 257
 667 947 l 258
 450 947 347 798 347 614 c 258
 347 0 l 257
 166 0 l 257
EndSplineSet
EndChar

StartChar: radical
Encoding: 8730 8730 330
Width: 1158
VWidth: 0
GlyphClass: 2
Flags: HW
PickledData: "(dp1
S'org.pippin.gimp.org.kernagic'
p2
(dp3
S'lstem'
p4
I0
sS'rstem'
p5
I0
ssS'com.typemytype.robofont.layerData'
p6
(dp7
S'b'
(dp8
S'name'
p9
S'radical'
p10
sS'lib'
p11
(dp12
sS'unicodes'
p13
(tsS'width'
p14
I1136
sS'contours'
p15
(tsS'components'
p16
(tsS'anchors'
p17
(tsssS'org.robofab.postScriptHintData'
p18
(dp19
s."
LayerCount: 2
Fore
SplineSet
998 1705 m 257
 1125 1705 l 257
 688 -163 l 257
 539 -163 l 257
 212 748 l 257
 64 716 l 257
 49 837 l 257
 310 899 l 257
 407 619 512 348 600 60 c 257
 721 571 876 1193 998 1705 c 257
EndSplineSet
EndChar

StartChar: registered
Encoding: 174 174 333
Width: 1851
VWidth: 0
GlyphClass: 2
Flags: HW
PickledData: "(dp1
S'org.pippin.gimp.org.kernagic'
p2
(dp3
S'lstem'
p4
I0
sS'rstem'
p5
I0
ssS'com.typemytype.robofont.layerData'
p6
(dp7
sS'org.robofab.postScriptHintData'
p8
(dp9
s."
LayerCount: 2
Fore
SplineSet
918 -23 m 256
 543 -23 173 241 173 728 c 256
 173 1215 543 1479 918 1479 c 256
 1295 1479 1666 1215 1666 728 c 256
 1666 241 1295 -23 918 -23 c 256
918 68 m 256
 1246 68 1558 302 1558 728 c 256
 1558 1152 1246 1388 918 1388 c 256
 591 1388 283 1153 283 728 c 256
 283 302 591 68 918 68 c 256
745 818 m 257
 953 818 l 258
 1093 818 1138 859 1138 965 c 256
 1138 1090 1079 1106 920 1106 c 258
 745 1106 l 257
 745 818 l 257
628 295 m 257
 628 1207 l 257
 938 1207 l 258
 1165 1207 1251 1136 1251 970 c 256
 1251 836 1192 750 1060 733 c 257
 1075 713 1285 295 1285 295 c 257
 1155 295 l 257
 1155 295 953 710 945 720 c 257
 744 720 l 257
 744 295 l 257
 628 295 l 257
EndSplineSet
EndChar

StartChar: ring
Encoding: 730 730 334
Width: 712
VWidth: 0
GlyphClass: 4
Flags: HW
PickledData: "(dp1
S'org.robofab.postScriptHintData'
p2
(dp3
sS'com.typemytype.robofont.layerData'
p4
(dp5
s."
AnchorPoint: "top" 344 1066 mark 0
LayerCount: 2
Fore
SplineSet
345 1198 m 256
 232 1198 153 1282 153 1385 c 256
 153 1488 232 1571 345 1571 c 256
 459 1571 539 1487 539 1385 c 256
 539 1282 458 1198 345 1198 c 256
345 1281 m 256
 402 1281 443 1328 443 1384 c 256
 443 1438 402 1486 345 1486 c 256
 288 1486 249 1438 249 1384 c 256
 249 1327 287 1281 345 1281 c 256
EndSplineSet
EndChar

StartChar: s
Encoding: 115 115 335
Width: 976
VWidth: 0
GlyphClass: 2
Flags: HW
PickledData: "(dp1
S'org.pippin.gimp.org.kernagic'
p2
(dp3
S'lstem'
p4
I168
sS'rstem'
p5
I620
ssS'com.typemytype.robofont.guides'
p6
((dp7
S'y'
I381
sS'x'
I77
sS'magnetic'
p8
I5
sS'angle'
p9
F90
sS'isGlobal'
p10
I00
stp11
sS'com.typemytype.robofont.layerData'
p12
(dp13
sS'com.fontlab.hintData'
p14
(dp15
S'vhints'
p16
((dp17
S'position'
p18
I142
sS'width'
p19
I107
s(dp20
g18
I738
sg19
I104
stp21
sS'hhints'
p22
((dp23
g18
I-19
sg19
I92
s(dp24
g18
I982
sg19
I92
stp25
ssS'org.robofab.postScriptHintData'
p26
(dp27
s."
HStem: -19 92 982 92
VStem: 142 107 738 104
AnchorPoint: "bot" 477 1 basechar 0
AnchorPoint: "top" 507 1083 basechar 0
LayerCount: 2
Fore
SplineSet
723 307 m 256
 723 377 699 424 534 476 c 258
 412 514 l 258
 150 596 116 686 116 815 c 256
 116 995 267 1106 508 1106 c 256
 683 1106 804 1039 868 948 c 257
 769 867 l 257
 759 867 l 257
 710 926 625 969 509 969 c 256
 357 969 295 910 295 814 c 256
 295 741 323 705 471 658 c 258
 591 620 l 257
 850 536 889 435 889 314 c 256
 889 78 716 -20 505 -20 c 256
 332 -20 174 39 85 151 c 257
 180 243 l 257
 194 243 l 257
 281 143 404 112 505 112 c 256
 644 112 723 175 723 307 c 256
EndSplineSet
EndChar

StartChar: section
Encoding: 167 167 341
Width: 1074
VWidth: 0
GlyphClass: 2
Flags: HW
PickledData: "(dp1
S'org.pippin.gimp.org.kernagic'
p2
(dp3
S'lstem'
p4
I0
sS'rstem'
p5
I0
ssS'com.typemytype.robofont.layerData'
p6
(dp7
S'b'
(dp8
S'name'
p9
S'section'
p10
sS'lib'
p11
(dp12
sS'unicodes'
p13
(tsS'width'
p14
I1079
sS'contours'
p15
(tsS'components'
p16
(tsS'anchors'
p17
(tsssS'org.robofab.postScriptHintData'
p18
(dp19
s."
LayerCount: 2
Fore
SplineSet
691 573 m 257
 717 601 731 642 731 692 c 256
 731 766 688 818 536 867 c 256
 415 907 398 913 389 918 c 257
 343 892 325 851 325 794 c 256
 325 711 357 686 495 640 c 256
 627 600 664 585 691 573 c 257
516 -20 m 256
 407 -20 289 10 188 59 c 257
 188 206 l 257
 303 150 411 115 523 115 c 258
 532 115 l 258
 653 115 724 178 725 291 c 256
 725 368 683 418 417 505 c 256
 219 570 167 655 167 784 c 256
 167 865 199 937 256 988 c 257
 188 1042 166 1108 166 1189 c 256
 166 1368 295 1483 519 1483 c 256
 643 1483 751 1453 843 1406 c 257
 802 1278 l 257
 742 1308 645 1347 537 1347 c 256
 384 1347 331 1289 331 1196 c 256
 331 1114 360 1088 600 1011 c 256
 830 937 883 855 883 699 c 256
 883 612 856 547 812 498 c 257
 865 445 883 381 883 293 c 256
 883 68 715 -20 516 -20 c 256
EndSplineSet
EndChar

StartChar: semicolon
Encoding: 59 59 342
Width: 715
VWidth: 0
GlyphClass: 2
Flags: HW
PickledData: "(dp1
S'org.pippin.gimp.org.kernagic'
p2
(dp3
S'lstem'
p4
I0
sS'rstem'
p5
I0
ssS'com.typemytype.robofont.layerData'
p6
(dp7
sS'org.robofab.postScriptHintData'
p8
(dp9
s."
LayerCount: 2
Fore
SplineSet
373 832 m 256
 290 832 247 892 247 958 c 256
 247 1023 289 1085 373 1085 c 256
 456 1085 495 1023 495 958 c 256
 495 892 456 832 373 832 c 256
248 -305 m 257
 248 -305 288 233 288 239 c 257
 472 239 l 257
 472 148 l 257
 355 -305 l 257
 248 -305 l 257
EndSplineSet
EndChar

StartChar: seven
Encoding: 55 55 343
Width: 1260
VWidth: 0
GlyphClass: 2
Flags: HW
PickledData: "(dp1
S'org.pippin.gimp.org.kernagic'
p2
(dp3
S'lstem'
p4
I0
sS'rstem'
p5
I0
ssS'com.typemytype.robofont.layerData'
p6
(dp7
sS'org.robofab.postScriptHintData'
p8
(dp9
s."
LayerCount: 2
Fore
SplineSet
344 0 m 257
 881 1308 l 257
 189 1308 l 257
 170 1456 l 257
 1075 1456 l 257
 1075 1323 l 257
 530 0 l 257
 344 0 l 257
EndSplineSet
EndChar

StartChar: six
Encoding: 54 54 344
Width: 1260
VWidth: 0
GlyphClass: 2
Flags: HW
PickledData: "(dp1
S'org.pippin.gimp.org.kernagic'
p2
(dp3
S'lstem'
p4
I0
sS'rstem'
p5
I0
ssS'com.typemytype.robofont.layerData'
p6
(dp7
sS'org.robofab.postScriptHintData'
p8
(dp9
s."
LayerCount: 2
Fore
SplineSet
648 124 m 256
 843 124 949 275 949 445 c 256
 949 623 842 754 653 754 c 256
 525 754 348 675 348 440 c 256
 348 271 453 124 648 124 c 256
651 -20 m 256
 345 -20 170 202 170 450 c 256
 170 665 248 807 383 991 c 258
 723 1456 l 257
 917 1456 l 257
 917 1434 l 257
 759 1219 601 1004 444 788 c 257
 508 843 596 892 717 892 c 256
 946 892 1128 716 1128 445 c 256
 1128 186 944 -20 651 -20 c 256
EndSplineSet
EndChar

StartChar: slash
Encoding: 47 47 345
Width: 970
VWidth: 0
GlyphClass: 2
Flags: HW
PickledData: "(dp1
S'org.pippin.gimp.org.kernagic'
p2
(dp3
S'lstem'
p4
I0
sS'rstem'
p5
I0
ssS'com.typemytype.robofont.layerData'
p6
(dp7
S'b'
(dp8
S'name'
p9
S'slash'
p10
sS'lib'
p11
(dp12
sS'unicodes'
p13
(tsS'width'
p14
I965
sS'contours'
p15
(tsS'components'
p16
(tsS'anchors'
p17
(tsssS'org.robofab.postScriptHintData'
p18
(dp19
s."
LayerCount: 2
Fore
SplineSet
128 -145 m 257
 741 1560 l 257
 895 1560 l 257
 279 -145 l 257
 128 -145 l 257
EndSplineSet
EndChar

StartChar: slashbar
Encoding: 65543 -1 346
Width: 854
VWidth: 0
GlyphClass: 4
Flags: HW
PickledData: "(dp1
S'org.pippin.gimp.org.kernagic'
p2
(dp3
S'lstem'
p4
I0
sS'rstem'
p5
I0
ssS'com.typemytype.robofont.layerData'
p6
(dp7
S'b'
(dp8
S'name'
p9
S'slashbar'
p10
sS'lib'
p11
(dp12
sS'unicodes'
p13
(tsS'width'
p14
I908
sS'contours'
p15
(tsS'components'
p16
(tsS'anchors'
p17
(tsssS'org.robofab.postScriptHintData'
p18
(dp19
s."
AnchorPoint: "mid" 481 715 mark 0
LayerCount: 2
Fore
SplineSet
184 486 m 257
 184 619 l 257
 777 944 l 257
 777 811 l 257
 184 486 l 257
EndSplineSet
EndChar

StartChar: sterling
Encoding: 163 163 348
Width: 1144
VWidth: 0
GlyphClass: 2
Flags: HW
PickledData: "(dp1
S'org.pippin.gimp.org.kernagic'
p2
(dp3
S'lstem'
p4
I0
sS'rstem'
p5
I0
ssS'com.typemytype.robofont.layerData'
p6
(dp7
S'b'
(dp8
S'name'
p9
S'sterling'
p10
sS'lib'
p11
(dp12
sS'unicodes'
p13
(tsS'width'
p14
I1136
sS'contours'
p15
((dp16
S'points'
p17
((dp18
S'segmentType'
p19
S'line'
p20
sS'x'
I20
sS'smooth'
p21
I00
sS'y'
I0
s(dp22
g19
S'line'
p23
sS'x'
I8
sg21
I00
sS'y'
I115
s(dp24
g19
S'line'
p25
sS'x'
I180
sg21
I00
sS'y'
I132
s(dp26
g19
S'line'
p27
sS'x'
I180
sg21
I00
sS'y'
I683
s(dp28
g19
S'line'
p29
sS'x'
I8
sg21
I00
sS'y'
I683
s(dp30
g19
S'line'
p31
sS'x'
I8
sg21
I00
sS'y'
I806
s(dp32
g19
S'line'
p33
sS'x'
I180
sg21
I00
sS'y'
I806
s(dp34
g19
S'line'
p35
sS'x'
I180
sg21
I01
sS'y'
I920
s(dp36
S'y'
I1183
sS'x'
I180
sg21
I00
s(dp37
S'y'
I1476
sS'x'
I245
sg21
I00
s(dp38
g19
S'curve'
p39
sS'x'
I598
sg21
I01
sS'y'
I1476
s(dp40
S'y'
I1476
sS'x'
I742
sg21
I00
s(dp41
S'y'
I1421
sS'x'
I854
sg21
I00
s(dp42
g19
S'curve'
p43
sS'x'
I939
sg21
I00
sS'y'
I1347
s(dp44
g19
S'line'
p45
sS'x'
I871
sg21
I00
sS'y'
I1229
s(dp46
S'y'
I1297
sS'x'
I785
sg21
I00
s(dp47
S'y'
I1334
sS'x'
I700
sg21
I00
s(dp48
g19
S'curve'
p49
sS'x'
I598
sg21
I01
sS'y'
I1334
s(dp50
S'y'
I1334
sS'x'
I397
sg21
I00
s(dp51
S'y'
I1179
sS'x'
I356
sg21
I00
s(dp52
g19
S'curve'
p53
sS'x'
I356
sg21
I01
sS'y'
I949
s(dp54
g19
S'line'
p55
sS'x'
I356
sg21
I00
sS'y'
I806
s(dp56
g19
S'line'
p57
sS'x'
I739
sg21
I00
sS'y'
I806
s(dp58
g19
S'line'
p59
sS'x'
I739
sg21
I00
sS'y'
I683
s(dp60
g19
S'line'
p61
sS'x'
I356
sg21
I00
sS'y'
I683
s(dp62
g19
S'line'
p63
sS'x'
I356
sg21
I00
sS'y'
I134
s(dp64
g19
S'line'
p65
sS'x'
I953
sg21
I00
sS'y'
I134
s(dp66
g19
S'line'
p67
sS'x'
I940
sg21
I00
sS'y'
I0
stp68
stp69
sS'components'
p70
(tsS'anchors'
p71
(tsssS'org.robofab.postScriptHintData'
p72
(dp73
s."
LayerCount: 2
Fore
SplineSet
439 957 m 258
 439 812 l 257
 815 812 l 257
 815 681 l 257
 439 681 l 257
 439 145 l 257
 1027 145 l 257
 1015 0 l 257
 85 0 l 257
 73 125 l 257
 246 143 l 257
 246 681 l 257
 72 681 l 257
 72 812 l 257
 246 812 l 257
 246 956 l 258
 246 1227 336 1483 668 1483 c 256
 847 1483 953 1409 1018 1346 c 257
 950 1225 l 257
 933 1225 l 257
 863 1281 800 1328 690 1328 c 256
 525 1328 439 1207 439 957 c 258
EndSplineSet
EndChar

StartChar: summation
Encoding: 8721 8721 349
Width: 1064
VWidth: 0
GlyphClass: 2
Flags: HW
PickledData: "(dp1
S'org.pippin.gimp.org.kernagic'
p2
(dp3
S'lstem'
p4
I0
sS'rstem'
p5
I0
ssS'com.typemytype.robofont.layerData'
p6
(dp7
S'b'
(dp8
S'name'
p9
S'summation'
p10
sS'lib'
p11
(dp12
sS'unicodes'
p13
(tsS'width'
p14
I1050
sS'contours'
p15
(tsS'components'
p16
(tsS'anchors'
p17
(tsssS'org.robofab.postScriptHintData'
p18
(dp19
s."
LayerCount: 2
Fore
SplineSet
86 1456 m 257
 991 1456 l 257
 991 1302 l 257
 330 1302 l 257
 783 618 l 257
 309 -37 l 257
 1037 -37 l 257
 1037 -199 l 257
 65 -199 l 257
 65 -97 l 257
 570 622 l 257
 86 1349 l 257
 86 1456 l 257
EndSplineSet
EndChar

StartChar: t
Encoding: 116 116 350
Width: 799
VWidth: 0
GlyphClass: 2
Flags: HW
PickledData: "(dp1
S'org.pippin.gimp.org.kernagic'
p2
(dp3
S'lstem'
p4
I189
sS'rstem'
p5
I480
ssS'com.typemytype.robofont.layerData'
p6
(dp7
sS'com.fontlab.hintData'
p8
(dp9
S'vhints'
p10
((dp11
S'position'
p12
I244
sS'width'
p13
I122
s(dp14
g12
I286
sg13
I80
stp15
sS'hhints'
p16
((dp17
g12
I-11
sg13
I83
stp18
ssS'org.robofab.postScriptHintData'
p19
(dp20
s."
HStem: -11 83
VStem: 244 122 286 80
AnchorPoint: "mid" 366 630 basechar 0
AnchorPoint: "bot" 476 0 basechar 0
AnchorPoint: "top" 334 1378 basechar 0
LayerCount: 2
Fore
SplineSet
586 -8 m 258
 279 -8 231 75 231 334 c 258
 231 971 l 257
 60 971 l 257
 65 1072 l 257
 236 1081 l 257
 262 1374 l 257
 413 1385 l 257
 413 1082 l 257
 701 1082 l 257
 701 971 l 257
 413 971 l 257
 413 333 l 258
 413 163 425 130 586 124 c 258
 694 120 l 257
 686 -8 l 257
 586 -8 l 258
EndSplineSet
EndChar

StartChar: thorn
Encoding: 254 254 355
Width: 1211
VWidth: 0
GlyphClass: 2
Flags: HW
PickledData: "(dp1
S'org.pippin.gimp.org.kernagic'
p2
(dp3
S'lstem'
p4
I0
sS'rstem'
p5
I0
ssS'com.typemytype.robofont.layerData'
p6
(dp7
S'b'
(dp8
S'name'
p9
S'thorn'
p10
sS'lib'
p11
(dp12
sS'unicodes'
p13
(tsS'width'
p14
I1221
sS'contours'
p15
(tsS'components'
p16
(tsS'anchors'
p17
(tsssS'org.robofab.postScriptHintData'
p18
(dp19
s."
LayerCount: 2
Fore
SplineSet
618 1106 m 0
 493 1106 359 1061 286 882 c 1
 293 1109 l 1
 293 1560 l 1
 111 1540 l 1
 111 -461 l 1
 286 -461 l 1
 286 97 l 1
 352 28 453 -20 584 -20 c 0
 879 -20 1045 205 1045 543 c 0
 1045 871 912 1106 618 1106 c 0
286 250 m 1
 286 353 286 456 286 559 c 0
 286 808 377 970 592 970 c 0
 795 970 859 792 859 542 c 0
 859 279 772 115 573 115 c 0
 454 115 352 159 286 250 c 1
EndSplineSet
EndChar

StartChar: three
Encoding: 51 51 356
Width: 1246
VWidth: 0
GlyphClass: 2
Flags: HW
PickledData: "(dp1
S'org.pippin.gimp.org.kernagic'
p2
(dp3
S'lstem'
p4
I0
sS'rstem'
p5
I0
ssS'com.typemytype.robofont.layerData'
p6
(dp7
sS'org.robofab.postScriptHintData'
p8
(dp9
s."
LayerCount: 2
Fore
SplineSet
772 770 m 257
 977 734 1083 583 1083 384 c 256
 1083 165 919 -20 619 -20 c 256
 463 -20 273 37 175 210 c 257
 281 297 l 257
 295 297 l 257
 375 168 515 134 616 134 c 256
 775 134 901 215 901 391 c 256
 901 621 761 688 502 688 c 258
 453 688 l 257
 428 837 l 257
 503 837 l 258
 664 837 864 867 864 1082 c 258
 864 1095 l 258
 864 1234 785 1322 624 1322 c 258
 609 1322 l 258
 483 1322 374 1274 295 1144 c 257
 275 1144 l 257
 169 1229 l 257
 267 1433 489 1476 625 1476 c 256
 890 1476 1042 1327 1042 1097 c 256
 1042 933 956 812 772 770 c 257
EndSplineSet
EndChar

StartChar: threequarters
Encoding: 190 190 357
Width: 1749
VWidth: 0
GlyphClass: 2
Flags: HW
PickledData: "(dp1
S'org.pippin.gimp.org.kernagic'
p2
(dp3
S'lstem'
p4
I0
sS'rstem'
p5
I0
ssS'com.typemytype.robofont.layerData'
p6
(dp7
sS'org.robofab.postScriptHintData'
p8
(dp9
s."
LayerCount: 2
Fore
SplineSet
1180 300 m 257
 1437 300 l 257
 1437 686 l 257
 1180 300 l 257
428 0 m 257
 1345 1479 l 257
 1484 1479 l 257
 569 0 l 257
 428 0 l 257
1438 0 m 257
 1438 190 l 257
 1036 190 l 257
 1036 288 l 257
 1428 859 l 257
 1570 859 l 257
 1570 300 l 257
 1683 300 l 257
 1689 190 l 257
 1569 190 l 257
 1569 0 l 257
 1438 0 l 257
357 592 m 256
 275 592 189 618 121 667 c 257
 168 768 l 257
 227 732 297 710 357 710 c 256
 441 710 507 750 507 851 c 256
 507 947 450 996 334 996 c 257
 238 995 l 257
 238 1111 l 257
 332 1111 l 258
 429 1111 488 1160 488 1240 c 256
 488 1319 435 1360 357 1360 c 256
 303 1360 239 1340 171 1300 c 257
 120 1395 l 257
 188 1448 279 1477 365 1477 c 256
 500 1477 622 1408 622 1259 c 256
 622 1187 585 1086 480 1062 c 257
 583 1032 642 951 642 855 c 256
 642 676 505 592 357 592 c 256
EndSplineSet
EndChar

StartChar: tilde
Encoding: 732 732 358
Width: 990
VWidth: 0
GlyphClass: 4
Flags: HW
PickledData: "(dp1
S'org.robofab.postScriptHintData'
p2
(dp3
sS'com.typemytype.robofont.layerData'
p4
(dp5
sS'com.fontlab.hintData'
p6
(dp7
S'vhints'
p8
((dp9
S'position'
p10
I169
sS'width'
p11
I63
s(dp12
g10
I657
sg11
I67
stp13
sS'hhints'
p14
((dp15
g10
I1301
sg11
I88
s(dp16
g10
I1400
sg11
I79
stp17
ss."
HStem: 1301 88 1400 79
VStem: 169 63 657 67
AnchorPoint: "top" 494 1066 mark 0
LayerCount: 2
Fore
SplineSet
173 1294 m 257
 173 1432 235 1508 340 1508 c 256
 461 1508 564 1420 626 1420 c 256
 657 1420 678 1442 687 1507 c 257
 783 1507 l 257
 783 1370 724 1294 631 1294 c 256
 526 1294 408 1393 334 1393 c 256
 299 1393 275 1365 266 1294 c 257
 173 1294 l 257
EndSplineSet
EndChar

StartChar: trademark
Encoding: 8482 8482 359
Width: 2201
VWidth: 0
GlyphClass: 2
Flags: HW
PickledData: "(dp1
S'org.robofab.postScriptHintData'
p2
(dp3
sS'com.typemytype.robofont.layerData'
p4
(dp5
S'b'
(dp6
S'name'
p7
S'trademark'
p8
sS'lib'
p9
(dp10
sS'unicodes'
p11
(tsS'width'
p12
I2216
sS'contours'
p13
(tsS'components'
p14
(tsS'anchors'
p15
(tsss."
LayerCount: 2
Fore
SplineSet
391 522 m 257
 391 1338 l 257
 81 1338 l 257
 81 1456 l 257
 849 1456 l 257
 849 1338 l 257
 537 1338 l 257
 537 522 l 257
 391 522 l 257
974 522 m 257
 991 1456 l 257
 1144 1456 l 257
 1467 794 l 257
 1791 1456 l 257
 1940 1456 l 257
 1957 522 l 257
 1828 522 l 257
 1821 1259 l 257
 1517 633 l 257
 1414 633 l 257
 1111 1267 l 257
 1105 522 l 257
 974 522 l 257
EndSplineSet
EndChar

StartChar: two
Encoding: 50 50 360
Width: 1260
VWidth: 0
GlyphClass: 2
Flags: HW
PickledData: "(dp1
S'org.pippin.gimp.org.kernagic'
p2
(dp3
S'lstem'
p4
I0
sS'rstem'
p5
I0
ssS'com.typemytype.robofont.layerData'
p6
(dp7
sS'org.robofab.postScriptHintData'
p8
(dp9
s."
LayerCount: 2
Fore
SplineSet
267 1188 m 257
 248 1188 l 257
 159 1294 l 257
 260 1409 427 1476 597 1476 c 256
 848 1476 1065 1337 1065 1059 c 256
 1065 857 994 759 797 571 c 258
 358 152 l 257
 1047 152 l 257
 1038 0 l 257
 175 0 l 257
 146 159 l 257
 686 690 l 258
 827 828 889 894 889 1054 c 256
 889 1242 747 1323 594 1323 c 256
 471 1323 342 1273 267 1188 c 257
EndSplineSet
EndChar

StartChar: u
Encoding: 117 117 361
Width: 1207
VWidth: 0
GlyphClass: 2
Flags: HW
PickledData: "(dp1
S'org.pippin.gimp.org.kernagic'
p2
(dp3
S'lstem'
p4
I0
sS'rstem'
p5
I0
ssS'com.typemytype.robofont.layerData'
p6
(dp7
sS'com.fontlab.hintData'
p8
(dp9
S'vhints'
p10
((dp11
S'position'
p12
I162
sS'width'
p13
I166
s(dp14
g12
I862
sg13
I166
stp15
sS'hhints'
p16
((dp17
g12
I-21
sg13
I126
stp18
ssS'org.robofab.postScriptHintData'
p19
(dp20
s."
HStem: -21 126
VStem: 162 166 862 166
AnchorPoint: "bot" 565 1 basechar 0
AnchorPoint: "ogonek" 960 1 basechar 0
AnchorPoint: "top" 617 1083 basechar 0
LayerCount: 2
Fore
SplineSet
861 259 m 257
 861 1082 l 257
 1042 1082 l 257
 1042 0 l 257
 885 0 l 257
 875 135 l 257
 803 44 697 -20 538 -20 c 256
 282 -20 149 121 149 404 c 258
 149 1082 l 257
 331 1082 l 257
 331 408 l 258
 331 221 393 113 563 113 c 256
 734 113 820 205 861 259 c 257
EndSplineSet
EndChar

StartChar: underscore
Encoding: 95 95 369
Width: 906
VWidth: 0
GlyphClass: 2
Flags: HW
PickledData: "(dp1
S'org.pippin.gimp.org.kernagic'
p2
(dp3
S'lstem'
p4
I0
sS'rstem'
p5
I0
ssS'com.typemytype.robofont.layerData'
p6
(dp7
sS'org.robofab.postScriptHintData'
p8
(dp9
s."
LayerCount: 2
Fore
SplineSet
0 -263 m 257
 0 -134 l 257
 906 -134 l 257
 906 -263 l 257
 0 -263 l 257
EndSplineSet
EndChar

StartChar: uni00AD
Encoding: 173 173 372
Width: 880
VWidth: 0
GlyphClass: 2
Flags: HW
PickledData: "(dp1
S'org.robofab.postScriptHintData'
p2
(dp3
s."
LayerCount: 2
Fore
SplineSet
105 494 m 257
 105 637 l 257
 774 637 l 257
 774 494 l 257
 105 494 l 257
EndSplineSet
EndChar

StartChar: uni00B2
Encoding: 178 178 373
Width: 785
VWidth: 0
GlyphClass: 2
Flags: HW
PickledData: "(dp1
S'org.robofab.postScriptHintData'
p2
(dp3
sS'com.typemytype.robofont.layerData'
p4
(dp5
s."
LayerCount: 2
Fore
SplineSet
152 647 m 257
 152 754 l 257
 256 858 308 887 436 1028 c 256
 502 1106 549 1178 549 1235 c 256
 549 1326 486 1387 400 1387 c 256
 303 1387 229 1349 175 1281 c 257
 112 1367 l 257
 180 1455 277 1501 408 1501 c 256
 548 1501 676 1409 676 1238 c 256
 676 1124 625 1035 533 940 c 256
 454 861 445 858 337 754 c 257
 675 754 l 257
 666 647 l 257
 152 647 l 257
EndSplineSet
EndChar

StartChar: uni00B3
Encoding: 179 179 374
Width: 876
VWidth: 0
GlyphClass: 2
Flags: HW
PickledData: "(dp1
S'org.robofab.postScriptHintData'
p2
(dp3
sS'com.typemytype.robofont.layerData'
p4
(dp5
s."
LayerCount: 2
Fore
SplineSet
437 629 m 256
 335 629 234 659 168 715 c 257
 219 808 l 257
 267 762 341 731 434 731 c 256
 533 731 613 780 613 878 c 256
 613 970 548 1033 430 1033 c 258
 427 1033 l 257
 313 1032 l 257
 313 1130 l 257
 428 1130 l 258
 553 1130 601 1186 601 1267 c 256
 601 1356 531 1396 438 1396 c 256
 350 1396 278 1368 222 1323 c 257
 173 1405 l 257
 240 1464 346 1498 455 1498 c 256
 594 1498 719 1435 719 1277 c 256
 718 1179 664 1106 568 1084 c 257
 662 1062 729 984 729 875 c 256
 729 709 591 629 437 629 c 256
EndSplineSet
EndChar

StartChar: uni00B5
Encoding: 181 181 375
Width: 1197
VWidth: 0
GlyphClass: 2
Flags: HW
PickledData: "(dp1
S'org.robofab.postScriptHintData'
p2
(dp3
sS'com.typemytype.robofont.layerData'
p4
(dp5
s."
LayerCount: 2
Fore
SplineSet
149 -288 m 1
 331 -288 l 1
 331 23 l 1
 387 -6 456 -20 538 -20 c 0
 697 -20 803 44 875 135 c 1
 885 0 l 1
 1042 0 l 1
 1042 1082 l 1
 861 1082 l 1
 861 259 l 1
 820 205 734 113 563 113 c 0
 393 113 331 221 331 408 c 2
 331 1082 l 1
 149 1082 l 1
 149 -288 l 1
EndSplineSet
EndChar

StartChar: uni00B9
Encoding: 185 185 376
Width: 884
VWidth: 0
GlyphClass: 2
Flags: HW
PickledData: "(dp1
S'org.robofab.postScriptHintData'
p2
(dp3
sS'com.typemytype.robofont.layerData'
p4
(dp5
s."
LayerCount: 2
Fore
SplineSet
262 629 m 257
 262 741 l 257
 433 741 l 257
 433 1342 l 257
 395 1319 289 1274 256 1267 c 257
 256 1381 l 257
 310 1401 425 1456 462 1487 c 257
 574 1487 l 257
 574 741 l 257
 740 741 l 257
 740 629 l 257
 262 629 l 257
EndSplineSet
EndChar

StartChar: uni02C9
Encoding: 713 713 445
Width: 600
VWidth: 0
GlyphClass: 4
Flags: HW
PickledData: "(dp1
S'org.robofab.postScriptHintData'
p2
(dp3
s."
AnchorPoint: "top" 307 1066 mark 0
LayerCount: 2
Fore
SplineSet
-9 1316 m 257
 -9 1447 l 257
 602 1447 l 257
 602 1316 l 257
 -9 1316 l 257
EndSplineSet
EndChar

StartChar: uni0307
Encoding: 775 775 446
Width: 437
VWidth: 0
GlyphClass: 2
Flags: HW
PickledData: "(dp1
S'org.robofab.postScriptHintData'
p2
(dp3
sS'com.typemytype.robofont.layerData'
p4
(dp5
s."
LayerCount: 2
Fore
SplineSet
351 1452 m 256
 351 1375 305 1330 224 1330 c 256
 143 1330 97 1375 97 1452 c 256
 97 1527 143 1571 224 1571 c 256
 305 1571 351 1527 351 1452 c 256
EndSplineSet
EndChar

StartChar: uni2074
Encoding: 8308 8308 465
Width: 701
VWidth: 0
GlyphClass: 2
Flags: HW
PickledData: "(dp1
S'org.robofab.postScriptHintData'
p2
(dp3
sS'com.typemytype.robofont.layerData'
p4
(dp5
s."
LayerCount: 2
Fore
SplineSet
180 929 m 257
 409 929 l 257
 410 1326 l 257
 180 929 l 257
409 621 m 257
 409 828 l 257
 48 828 l 257
 48 935 l 257
 401 1489 l 257
 535 1489 l 257
 535 929 l 257
 654 929 l 257
 648 828 l 257
 533 828 l 257
 534 621 l 257
 409 621 l 257
EndSplineSet
EndChar

StartChar: uni2113
Encoding: 8467 8467 466
Width: 1218
VWidth: 0
GlyphClass: 2
Flags: HW
PickledData: "(dp1
S'org.robofab.postScriptHintData'
p2
(dp3
s."
LayerCount: 2
Fore
SplineSet
632 804 m 257
 842 970 l 258
 1002 1097 1102 1216 1102 1385 c 256
 1102 1459 1061 1538 967 1538 c 256
 948 1538 928 1535 905 1528 c 256
 789 1493 773 1350 729 1178 c 258
 632 804 l 257
304 264 m 256
 304 328 315 405 339 493 c 257
 125 334 l 257
 79 414 l 257
 379 639 l 257
 584 1396 l 258
 646 1622 786 1689 922 1689 c 256
 1075 1688 1222 1593 1222 1386 c 256
 1222 1176 1127 1060 883 865 c 258
 589 629 l 257
 537 417 l 258
 522 359 515 310 515 270 c 256
 515 178 555 133 642 133 c 256
 723 133 813 166 916 221 c 257
 940 98 l 257
 940 98 789 -20 562 -20 c 256
 406 -20 304 63 304 264 c 256
EndSplineSet
EndChar

StartChar: uni2206
Encoding: 8710 8710 468
Width: 1283
VWidth: 0
GlyphClass: 2
Flags: HW
PickledData: "(dp1
S'org.pippin.gimp.org.kernagic'
p2
(dp3
S'lstem'
p4
I0
sS'rstem'
p5
I0
ssS'com.typemytype.robofont.layerData'
p6
(dp7
S'b'
(dp8
S'name'
p9
S'uni2206'
p10
sS'lib'
p11
(dp12
sS'unicodes'
p13
(tsS'width'
p14
I1278
sS'contours'
p15
(tsS'components'
p16
(tsS'anchors'
p17
(tsssS'org.robofab.postScriptHintData'
p18
(dp19
s."
LayerCount: 2
Fore
SplineSet
672 1196 m 257
 638 1314 l 257
 606 1196 l 257
 262 174 l 257
 1022 174 l 257
 672 1196 l 257
549 1542 m 257
 736 1542 l 257
 1219 85 l 257
 1219 0 l 257
 66 0 l 257
 66 85 l 257
 549 1542 l 257
EndSplineSet
EndChar

StartChar: v
Encoding: 118 118 479
Width: 1081
VWidth: 0
GlyphClass: 2
Flags: HW
PickledData: "(dp1
S'org.pippin.gimp.org.kernagic'
p2
(dp3
S'lstem'
p4
I0
sS'rstem'
p5
I0
ssS'com.typemytype.robofont.guides'
p6
((dp7
S'y'
I552
sS'x'
I438
sS'magnetic'
p8
I5
sS'angle'
p9
I0
sS'isGlobal'
p10
I00
stp11
sS'com.typemytype.robofont.layerData'
p12
(dp13
sS'org.robofab.postScriptHintData'
p14
(dp15
s."
LayerCount: 2
Fore
SplineSet
453 0 m 257
 61 1082 l 257
 248 1082 l 257
 347 791 445 499 548 212 c 257
 646 502 744 792 841 1082 c 257
 1024 1082 l 257
 638 0 l 257
 453 0 l 257
EndSplineSet
EndChar

StartChar: w
Encoding: 119 119 480
Width: 1508
VWidth: 0
GlyphClass: 2
Flags: HW
PickledData: "(dp1
S'org.pippin.gimp.org.kernagic'
p2
(dp3
S'lstem'
p4
I0
sS'rstem'
p5
I0
ssS'com.typemytype.robofont.layerData'
p6
(dp7
sS'org.robofab.postScriptHintData'
p8
(dp9
s."
AnchorPoint: "top" 759 1082 basechar 0
LayerCount: 2
Fore
SplineSet
760 907 m 257
 483 -1 l 257
 320 -1 l 257
 24 1082 l 257
 195 1082 l 257
 411 238 l 257
 661 1082 l 257
 851 1082 l 257
 1117 235 l 257
 1318 1082 l 257
 1484 1082 l 257
 1202 -1 l 257
 1038 -1 l 257
 760 907 l 257
EndSplineSet
EndChar

StartChar: x
Encoding: 120 120 485
Width: 1058
VWidth: 0
GlyphClass: 2
Flags: HW
PickledData: "(dp1
S'org.pippin.gimp.org.kernagic'
p2
(dp3
S'lstem'
p4
I0
sS'rstem'
p5
I0
ssS'com.typemytype.robofont.layerData'
p6
(dp7
sS'com.fontlab.hintData'
p8
(dp9
S'hhints'
p10
((dp11
S'position'
p12
I0
sS'width'
p13
I22
s(dp14
g12
I1034
sg13
I21
stp15
ssS'org.robofab.postScriptHintData'
p16
(dp17
s."
HStem: 0 22 1034 21
LayerCount: 2
Fore
SplineSet
633 550 m 257
 1002 -1 l 257
 800 -1 l 257
 519 419 l 257
 235 -1 l 257
 52 -1 l 257
 432 548 l 257
 74 1082 l 257
 276 1082 l 257
 545 680 l 257
 815 1082 l 257
 998 1082 l 257
 633 550 l 257
EndSplineSet
EndChar

StartChar: y
Encoding: 121 121 486
Width: 1131
VWidth: 0
GlyphClass: 2
Flags: HW
PickledData: "(dp1
S'org.pippin.gimp.org.kernagic'
p2
(dp3
S'lstem'
p4
I0
sS'rstem'
p5
I0
ssS'com.typemytype.robofont.layerData'
p6
(dp7
sS'org.robofab.postScriptHintData'
p8
(dp9
s."
AnchorPoint: "top" 582 1082 basechar 0
LayerCount: 2
Fore
SplineSet
1083 1082 m 257
 485 -414 l 257
 329 -374 l 257
 489 44 l 257
 39 1082 l 257
 229 1082 l 257
 579 243 l 257
 908 1082 l 257
 1083 1082 l 257
EndSplineSet
EndChar

StartChar: yen
Encoding: 165 165 490
Width: 1364
VWidth: 0
GlyphClass: 2
Flags: HW
PickledData: "(dp1
S'org.pippin.gimp.org.kernagic'
p2
(dp3
S'lstem'
p4
I0
sS'rstem'
p5
I0
ssS'com.typemytype.robofont.layerData'
p6
(dp7
S'b'
(dp8
S'name'
p9
S'yen'
p10
sS'lib'
p11
(dp12
sS'unicodes'
p13
(tsS'width'
p14
I1366
sS'contours'
p15
(tsS'components'
p16
(tsS'anchors'
p17
(tsssS'org.robofab.postScriptHintData'
p18
(dp19
s."
LayerCount: 2
Fore
SplineSet
259 256 m 1
 259 366 l 1
 587 366 l 1
 587 509 l 1
 259 509 l 1
 259 620 l 1
 531 620 l 1
 76 1456 l 1
 260 1456 l 1
 683 684 l 1
 1094 1456 l 1
 1288 1456 l 1
 838 620 l 1
 1081 620 l 1
 1081 509 l 1
 781 509 l 1
 781 366 l 1
 1081 366 l 1
 1081 256 l 1
 781 256 l 1
 781 0 l 1
 587 0 l 1
 587 256 l 1
 259 256 l 1
EndSplineSet
EndChar

StartChar: z
Encoding: 122 122 492
Width: 1012
VWidth: 0
GlyphClass: 2
Flags: HW
PickledData: "(dp1
S'org.pippin.gimp.org.kernagic'
p2
(dp3
S'lstem'
p4
I0
sS'rstem'
p5
I0
ssS'com.typemytype.robofont.layerData'
p6
(dp7
sS'org.robofab.postScriptHintData'
p8
(dp9
s."
AnchorPoint: "bot" 482 0 basechar 0
AnchorPoint: "top" 511 1082 basechar 0
LayerCount: 2
Fore
SplineSet
121 1082 m 257
 889 1082 l 257
 889 959 l 257
 303 136 l 257
 892 136 l 257
 899 0 l 257
 101 0 l 257
 101 116 l 257
 698 952 l 257
 126 952 l 257
 121 1082 l 257
EndSplineSet
EndChar

StartChar: zero
Encoding: 48 48 496
Width: 1260
VWidth: 0
GlyphClass: 2
Flags: HW
PickledData: "(dp1
S'org.pippin.gimp.org.kernagic'
p2
(dp3
S'lstem'
p4
I0
sS'rstem'
p5
I0
ssS'com.typemytype.robofont.layerData'
p6
(dp7
S'b'
(dp8
S'name'
p9
S'zero'
p10
sS'lib'
p11
(dp12
sS'unicodes'
p13
(tsS'width'
p14
I1248
sS'contours'
p15
(tsS'components'
p16
(tsS'anchors'
p17
(tsssS'org.robofab.postScriptHintData'
p18
(dp19
s."
LayerCount: 2
Fore
SplineSet
635 -20 m 256
 288 -20 131 260 131 705 c 256
 131 1171 303 1476 635 1476 c 256
 966 1476 1129 1172 1129 705 c 256
 1129 260 981 -20 635 -20 c 256
635 135 m 256
 830 135 943 296 943 711 c 256
 943 1132 830 1322 635 1322 c 256
 439 1322 317 1106 317 710 c 256
 317 296 439 135 635 135 c 256
EndSplineSet
EndChar
